<ttFont>
          <CharString index="0">
            rmoveto
            -200 -81 -184 -165 -119 57 -49 103 57 48 16 23 41 hvcurveto
            -9 37 rlineto
            -10 -27 -31 -8 -27 hhcurveto
            -87 -27 30 84 24 2 23 5 28 hvcurveto
            186 101 66 106 66 -49 32 -62 hvcurveto
            -24 -55 rmoveto
            35 12 -24 -28 -80 -75 -43 -116 hvcurveto
            111 22 51 64 71 hhcurveto
            return
          </CharString>
          <CharString index="1">
            -45 callsubr
            76 -20 -61 -316 rlineto
            -108 -20 -47 -86 -111 hhcurveto
            -80 -25 47 67 30 5 37 8 26 callsubr
            5 callgsubr
            -253 -45 callsubr
            74 -20 -56 -291 rlineto
            -8 -38 -5 -38 -34 vvcurveto
            -95 43 -69 139 192 -35 callsubr
            return
          </CharString>
          <CharString index="2">
            rmoveto
            -166 -118 -134 -231 -97 47 -55 103 168 117 135 231 -17 callgsubr
            hvcurveto
            -112 -463 rmoveto
            -56 -16 37 57 126 39 188 125 55 16 -38 -57 -132 -41 -181 -122 hvcurveto
            return
          </CharString>
          <CharString index="3">
            rmoveto
            20 -150 -63 -14 -6 -39 rlineto
            222 hlineto
            7 38 -62 19 -83 569 -60 -11 -285 -561 -71 -16 -6 -38 rlineto
            195 hlineto
            9 39 -64 14 75 150 rlineto
            24 47 rmoveto
            111 220 30 -220 rlineto
            return
          </CharString>
          <CharString index="4">
            rmoveto
            144 98 59 174 33 hvcurveto
            94 489 82 -61 callsubr
            -241 34 callgsubr
            -69 -360 rlineto
            -44 -27 -54 -46 -80 hhcurveto
            -72 -24 42 71 29 5 38 8 40 hvcurveto
            45 230 5 callgsubr
            -253 40 callsubr
            -44 -228 rlineto
            -8 -40 -6 -39 -35 vvcurveto
            -99 39 -64 129 69 58 24 33 41 vhcurveto
            -9 -41 rlineto
            -121 -22 -55 -54 -103 hhcurveto
            -38 -46 13 21 -30 hvcurveto
            -5 82 rlineto
            -40 hlineto
            -37 -124 rlineto
            -34 54 58 -16 73 hhcurveto
            endchar
          </CharString>
          <CharString index="5">
            rmoveto
            67 81 34 66 55 hvcurveto
            0 -7 -52 -6 vvcurveto
            -26 12 -16 37 28 35 9 19 59 vhcurveto
            -69 callgsubr
            -70 -32 -41 hhcurveto
            -21 -11 -36 callgsubr
            -9 10 -14 -34 -70 -16 -19 -58 vhcurveto
            6 -29 73 52 callsubr
            -51 -199 -65 vvcurveto
            -63 34 -17 38 vhcurveto
            endchar
          </CharString>
          <CharString index="6">
            rmoveto
            54 261 rlineto
            82 5 76 39 65 vvcurveto
            15 -4 24 -9 18 vhcurveto
            -72 -22 callsubr
            -34 -4 -29 -5 vhcurveto
            -100 -16 -58 -320 rlineto
            -80 -48 -71 -32 -40 hhcurveto
            -21 -12 -36 callgsubr
            -8 10 -15 -34 -70 -16 -19 -57 -40 callsubr
            rlineto
            -18 -101 -52 -199 -65 vvcurveto
            -63 34 -17 39 67 80 34 66 56 vhcurveto
            0 -7 -52 -6 vvcurveto
            -26 11 -16 37 28 35 9 19 60 -65 callgsubr
            return
          </CharString>
          <CharString index="7">
            rmoveto
            99 16 17 13 131 114 26 83 rlinecurve
            3 -55 -3 -108 -8 -63 93 16 rcurveline
            117 77 139 178 207 vvcurveto
            14 -2 14 -3 13 vhcurveto
            -34 -2 -50 -14 -58 -20 6 -30 rcurveline
            56 -7 rlineto
            2 -10 1 -7 -14 vvcurveto
            -98 -55 -140 -117 -92 vhcurveto
            1 37 2 53 42 vvcurveto
            147 -16 119 -11 35 vhcurveto
            -98 -17 rlineto
            13 -40 10 -51 -33 vvcurveto
            -80 -52 -117 -112 -94 vhcurveto
            2 37 1 62 26 vvcurveto
            157 -14 150 -10 -41 -64 -16 -20 -59 vhcurveto
            6 -30 75 -8 rlineto
            0 15 -100 -181 vvcurveto
            -43 -3 -74 -5 -46 vhcurveto
            endchar
          </CharString>
          <CharString index="8">
            rmoveto
            21 31 -4 -9 14 hvcurveto
            9 -76 rlineto
            35 hlineto
            33 115 rlineto
            20 -40 -48 9 -41 hhcurveto
            -122 -74 -68 -96 -58 32 -36 40 -19 hvcurveto
            77 -35 rlineto
            42 -18 12 -21 -26 vvcurveto
            -60 -41 -26 -66 -37 -24 6 8 -18 vhcurveto
            -7 87 rlineto
            -36 hlineto
            -33 -126 rlineto
            -22 41 56 -7 44 hhcurveto
            131 76 65 108 59 -33 33 -45 21 hvcurveto
            -75 35 rlineto
            -37 17 -16 15 33 vvcurveto
            43 35 33 64 vhcurveto
            return
          </CharString>
          <CharString index="9">
            rmoveto
            -88 callsubr
            25 136 rlineto
            -420 -34 callgsubr
            83 -84 callsubr
          </CharString>
          <CharString index="10">
            rmoveto
            139 93 65 123 25 hvcurveto
            98 509 -42 8 -26 -35 rlineto
            2 -6 -48 15 -45 hhcurveto
            -189 -94 -162 -190 -115 59 -27 60 50 61 21 49 41 hvcurveto
            -159 -24 -56 -44 -114 hhcurveto
            -40 -34 7 14 -38 hvcurveto
            -16 -47 rlineto
            -22 46 40 -12 60 hhcurveto
            63 259 rmoveto
            -35 -22 16 68 102 36 187 135 25 27 -7 -12 16 hvcurveto
            -20 -97 -32 -172 -2 -2 rrcurveto
            -56 -25 -66 -27 -37 hhcurveto
            endchar
          </CharString>
          <CharString index="11">
            rmoveto
            110 72 61 82 46 -38 29 -43 24 hvcurveto
            92 37 21 49 42 vvcurveto
            44 -38 34 -81 -116 -49 -67 -67 -39 23 -26 33 -23 vhcurveto
            -65 -29 -46 -49 -64 vvcurveto
            -44 29 -40 96 vhcurveto
            65 263 rmoveto
            -34 19 -23 26 28 vvcurveto
            39 33 30 45 36 18 -20 -29 -41 -27 -28 -48 -24 vhcurveto
            -57 -220 rmoveto
            -34 -26 13 36 51 36 38 35 22 hvcurveto
            12 -6 rlineto
            33 -17 31 -23 -38 vvcurveto
            -51 -41 -25 -46 vhcurveto
            endchar
          </CharString>
          <CharString index="12">
            -87 callgsubr
            -39 -21 -11 -35 -3 vhcurveto
            34 -35 -53 20 -75 hhcurveto
            -224 -122 -202 -212 -133 62 -89 161 225 119 204 215 48 -9 43 -19 34 hvcurveto
            62 15 51 35 52 vvcurveto
            -419 -592 -50 callgsubr
          </CharString>
          <CharString index="13">
            -87 callgsubr
            -37 -20 -12 -32 -3 vhcurveto
            40 -23 -43 23 -66 hhcurveto
            -166 -118 -134 -231 -97 47 -55 103 168 117 135 231 17 -1 16 -4 14 hvcurveto
            68 13 57 36 55 vvcurveto
            -383 -58 callgsubr
          </CharString>
          <CharString index="14">
            rmoveto
            41 35 22 22 31 hvcurveto
            -11 40 rlineto
            -6 -15 -16 -2 -14 -76 -37 67 -95 hhcurveto
            309 386 -31 32 -50 -16 rlineto
            -282 hlineto
            10 -84 rlineto
            224 hlineto
            -313 -399 35 -22 rlineto
            0 25 37 32 vhcurveto
            65 58 -77 75 hhcurveto
            return
          </CharString>
          <CharString index="15">
            rmoveto
            5 -99 rlineto
            41 hlineto
            39 135 rlineto
            20 -40 -71 10 -60 hhcurveto
            -244 -117 -200 -215 -134 63 -89 171 74 67 17 26 47 hvcurveto
            39 199 68 -61 callsubr
            -239 -45 callsubr
            78 -21 -34 52 callgsubr
            -30 -4 -28 hhcurveto
            -114 -29 84 90 108 41 248 203 41 33 -6 -6 22 hvcurveto
            endchar
          </CharString>
          <CharString index="16">
            rmoveto
            108 15 36 223 60 137 53 53 39 13 rlinecurve
            11 -76 rlineto
            46 hlineto
            30 158 rlineto
            -108 -55 -55 -110 -54 hvcurveto
            9 56 14 60 19 vvcurveto
            13 -7 10 -14 -34 -71 -16 -20 -55 7 callgsubr
            return
          </CharString>
          <CharString index="17">
            rmoveto
            29 -78 callsubr
            23 -22 120 83 rlineto
            return
          </CharString>
          <CharString index="18">
            -5 -7 17 vhcurveto
            5 -94 rlineto
            40 hlineto
            34 133 rlineto
            17 -47 -51 11 -53 hhcurveto
            -155 -76 -82 -119 -75 55 -40 30 -13 hvcurveto
            79 -39 rlineto
            50 -21 15 -33 -38 vvcurveto
            -72 -51 -51 -92 -42 -35 9 6 -19 vhcurveto
            -5 86 rlineto
            -40 hlineto
            -34 -125 return
          </CharString>
          <CharString index="19">
            -69 callsubr
            180 hlineto
            1 -79 rlineto
            43 hlineto
            return
          </CharString>
          <CharString index="20">
            rmoveto
            -21 callgsubr
            172 hlineto
            -64 callgsubr
            rlineto
            232 212 -19 callgsubr
          </CharString>
          <CharString index="21">
            -29 -3 -25 hhcurveto
            -106 -36 63 106 168 68 191 167 42 27 -4 -8 26 hvcurveto
            1 -99 rlineto
            39 hlineto
            37 138 rlineto
            15 -39 -50 12 -77 hhcurveto
            -221 -127 -198 -217 return
          </CharString>
          <CharString index="22">
            713 rmoveto
            -95 -34 -60 -62 -12 hvcurveto
            39 hlineto
            31 7 18 31 68 hhcurveto
            55 10 -21 -24 1 hvcurveto
            -5 -1 -7 -1 -5 vhcurveto
            40 hlineto
            3 11 3 13 11 vvcurveto
            48 -23 39 -78 vhcurveto
            return
          </CharString>
          <CharString index="23">
            -28 callgsubr
            -90 -51 callgsubr
            442 hlineto
            -21 callsubr
            -42 hlineto
            -42 -91 rlineto
            -194 hlineto
            42 218 rlineto
            124 hlineto
            9 -69 rlineto
            38 -32 callgsubr
            endchar
          </CharString>
          <CharString index="24">
            rmoveto
            62 -20 -175 -405 -42 419 -76 -13 -177 -403 -41 402 60 20 6 37 rlineto
            -220 -34 callgsubr
            64 -21 64 -564 64 12 186 411 48 -423 62 12 247 553 72 21 17 callsubr
          </CharString>
          <CharString index="25">
            9 callsubr
            -79 56 callsubr
            -3 callgsubr
            -262 -46 callgsubr
            rlineto
            return
          </CharString>
          <CharString index="26">
            rmoveto
            139 94 65 123 24 hvcurveto
            98 509 -42 8 -26 -35 rlineto
            2 -6 -48 15 -45 hhcurveto
            -189 -93 -162 -190 -115 58 -27 61 49 61 21 49 41 hvcurveto
            -159 -24 -56 -44 -114 hhcurveto
            -39 -35 7 14 -37 hvcurveto
            -16 -47 rlineto
            -22 45 41 -12 59 hhcurveto
            63 259 rmoveto
            -34 -22 16 68 102 35 187 136 25 27 -7 -12 15 hvcurveto
            -20 -97 -32 -172 -2 -2 rrcurveto
            -56 -24 -67 -27 -37 hhcurveto
            endchar
          </CharString>
          <CharString index="27">
            rmoveto
            10 -86 rlineto
            39 hlineto
            26 122 rlineto
            16 -32 -40 7 -38 hhcurveto
            -186 6 callgsubr
            45 54 10 27 47 hvcurveto
            -12 39 rlineto
            -12 -35 -32 -7 -27 hhcurveto
            -67 -21 37 83 131 50 156 114 13 15 -1 -5 14 hvcurveto
            endchar
          </CharString>
          <CharString index="28">
            35 -78 vlineto
            1 4 70 79 16 hvcurveto
            return
          </CharString>
          <CharString index="29">
            20 -69 139 rlineto
            -67 hlineto
            -121 -137 return
          </CharString>
          <CharString index="30">
            rmoveto
            261 hlineto
            6 37 -79 21 97 497 87 20 7 -24 callgsubr
            -97 -497 -87 -21 rlineto
            endchar
          </CharString>
          <CharString index="31">
            0 -6 -48 -8 vvcurveto
            -29 16 -16 36 return
          </CharString>
          <CharString index="32">
            rmoveto
            -41 hlineto
            -53 -93 rlineto
            -229 hlineto
            399 522 1 32 56 callgsubr
            -17 -136 rlineto
            41 hlineto
            return
          </CharString>
          <CharString index="33">
            107 49 59 100 17 hvcurveto
            77 448 rlineto
            113 58 -103 54 callsubr
            26 24 -4 -8 28 hvcurveto
            14 50 rlineto
            16 -33 -45 13 -33 hhcurveto
            -127 -34 -75 -97 -18 hvcurveto
            -13 -67 -100 -26 7 -30 rlineto
            80 hlineto
            -75 -441 rlineto
            -90 -16 -35 -18 -63 hhcurveto
            -27 -26 5 7 -22 hvcurveto
            -9 -41 rlineto
            -4 8 52 -25 57 hhcurveto
            return
          </CharString>
          <CharString index="34">
            rmoveto
            24 14 -60 160 rlineto
            -80 hlineto
            -1 -19 rlineto
            278 -155 rmoveto
            24 14 -60 160 rlineto
            -80 hlineto
            -1 -19 rlineto
            return
          </CharString>
          <CharString index="35">
            -30 callgsubr
            -24 -63 callgsubr
            return
          </CharString>
          <CharString index="36">
            rmoveto
            -51 -58 -18 -21 -41 hvcurveto
            12 -40 rlineto
            20 40 36 8 25 hhcurveto
            39 17 -17 -26 -47 -43 -47 -88 -9 hvcurveto
            -2 -37 rlineto
            53 59 -7 -56 -71 -55 -31 -62 -24 -33 3 15 -40 hvcurveto
            -17 -45 rlineto
            -14 35 45 -7 43 hhcurveto
            109 86 48 103 47 -30 32 -53 12 hvcurveto
            54 22 52 46 61 vvcurveto
            51 -47 25 -61 vhcurveto
            endchar
          </CharString>
          <CharString index="37">
            rmoveto
            74 47 49 61 42 -27 32 -60 -80 -42 -52 -62 -42 30 -28 58 hvcurveto
            7 38 rmoveto
            -26 -10 13 23 34 13 37 42 24 11 -13 -24 -32 -12 -38 -42 hvcurveto
            return
          </CharString>
          <CharString index="38">
            -44 callsubr
            44 228 rlineto
            return
          </CharString>
          <CharString index="39">
            rmoveto
            18 24 23 callgsubr
            rlineto
            return
          </CharString>
          <CharString index="40">
            723 rmoveto
            -31 -20 78 -144 rlineto
            67 hlineto
            121 142 -23 23 return
          </CharString>
          <CharString index="41">
            268 hlineto
            224 119 201 201 129 -72 81 -163 hvcurveto
            -258 hlineto
            return
          </CharString>
          <CharString index="42">
            107 14 46 callgsubr
            56 45 73 43 39 hhcurveto
            19 10 -10 -20 return
          </CharString>
          <CharString index="43">
            -41 callsubr
            -154 -130 rlineto
            return
          </CharString>
          <CharString index="44">
            -146 rlineto
            39 hlineto
            36 89 rlineto
            125 hlineto
            -96 -497 -99 -51 callgsubr
            284 -12 callsubr
            -90 56 callsubr
            rlineto
            125 -89 42 hlineto
            34 146 rlineto
            return
          </CharString>
          <CharString index="45">
            rmoveto
            42 34 22 22 32 hvcurveto
            -11 40 rlineto
            -6 -16 -16 -2 -14 -76 -36 67 -95 hhcurveto
            309 386 -31 32 -50 -16 rlineto
            -282 hlineto
            10 -84 rlineto
            224 hlineto
            -313 -399 34 -22 rlineto
            0 25 37 33 vhcurveto
            64 59 -77 74 hhcurveto
            endchar
          </CharString>
          <CharString index="46">
            20 -28 callsubr
            return
          </CharString>
          <CharString index="47">
            -37 78 -55 callgsubr
            return
          </CharString>
          <CharString index="48">
            39 7 -180 rmoveto
            99 16 15 153 1 13 0 15 -3 14 rlinecurve
            4 1 rlineto
            -28 7 25 -13 22 hhcurveto
            57 42 36 71 38 hvcurveto
            -4 -18 -6 -27 -15 vvcurveto
            -26 10 -20 36 27 42 8 19 57 vhcurveto
            35 -80 vlineto
            6 26 6 42 10 51 67 336 rcurveline
            -103 -16 -29 -177 rlineto
            -119 -22 -49 -132 -80 hhcurveto
            -26 -16 15 50 hvcurveto
            60 69 278 17 vvcurveto
            14 -6 9 -14 -33 -69 -16 -19 -55 vhcurveto
            6 -29 71 -7 rlineto
            endchar
          </CharString>
          <CharString index="49">
            -6 192 -13 rmoveto
            148 79 85 106 55 -32 50 -65 48 hvcurveto
            112 59 34 69 53 vvcurveto
            59 -36 57 -111 -134 -84 -79 -99 -64 39 -43 43 -31 vhcurveto
            -90 -48 -65 -76 -82 vvcurveto
            -65 39 -54 123 vhcurveto
            87 372 rmoveto
            -57 36 -31 40 42 vvcurveto
            68 59 30 53 64 13 -34 -43 -54 -26 -43 -75 -42 vhcurveto
            -73 -318 rmoveto
            -54 -31 22 55 78 47 51 59 37 hvcurveto
            76 -51 25 -36 -50 vvcurveto
            -63 -51 -43 -71 vhcurveto
            endchar
          </CharString>
          <CharString index="50">
            28 151 rlineto
            -41 hlineto
            -41 -91 rlineto
            -171 hlineto
            96 495 -3 callgsubr
            -262 -46 callgsubr
            -7 -37 rlineto
            return
          </CharString>
          <CharString index="51">
            rlineto
            50 40 81 50 45 hhcurveto
            24 9 -8 -21 -52 -63 -62 -114 -29 hvcurveto
            -6 -14 rlineto
            0 65 -260 47 29 42 8 20 58 vhcurveto
            35 -75 vlineto
            -75 198 rlineto
            136 41 50 74 74 vvcurveto
            44 -25 23 -41 -81 return
          </CharString>
          <CharString index="52">
            -71 callgsubr
            endchar
          </CharString>
          <CharString index="53">
            hlineto
            -136 -132 return
          </CharString>
          <CharString index="54">
            rmoveto
            64 hlineto
            27 86 rlineto
            14 hlineto
            225 119 204 215 105 -43 82 -111 23 hvcurveto
            29 88 rlineto
            -64 hlineto
            -27 -81 rlineto
            -5 hlineto
            -224 -122 -202 -212 -111 43 -79 105 -24 hvcurveto
            20 60 rmoveto
            -46 25 -15 57 72 vvcurveto
            164 74 195 153 1 vhcurveto
            -108 -528 rmoveto
            167 515 rlineto
            53 -23 16 -59 -71 vvcurveto
            -185 -77 -177 -159 vhcurveto
            endchar
          </CharString>
          <CharString index="55">
            35 -29 -49 callgsubr
            return
          </CharString>
          <CharString index="56">
            210 584 73 rmoveto
            -82 -3 rlineto
            85 43 59 125 90 vvcurveto
            155 -77 144 -210 -204 -93 -143 -163 -140 83 -84 62 -29 vhcurveto
            -83 5 rlineto
            -44 hlineto
            -20 76 rlineto
            -42 -149 264 51 hlineto
            -60 56 -54 84 118 vvcurveto
            124 31 139 152 157 34 -153 -107 -129 -57 -83 -57 -49 vhcurveto
            -51 263 149 -40 vlineto
            -21 -76 rlineto
            endchar
          </CharString>
          <CharString index="57">
            rmoveto
            60 hlineto
            27 83 rlineto
            162 5 112 135 226 vvcurveto
            80 -34 53 -73 15 vhcurveto
            28 84 rlineto
            -60 hlineto
            -27 -81 rlineto
            -159 -8 -110 -133 -224 vvcurveto
            -81 32 -52 70 -15 vhcurveto
            22 69 rmoveto
            -18 15 -7 26 35 vvcurveto
            121 37 179 115 12 vhcurveto
            -73 -407 rmoveto
            128 392 rlineto
            22 -15 8 -28 -36 vvcurveto
            -129 -40 -177 -118 -7 vhcurveto
            endchar
          </CharString>
          <CharString index="58">
            rmoveto
            14 -7 8 -13 -29 -71 -15 -20 -61 46 callsubr
            -8 rlineto
            -28 -141 -53 -233 -24 vvcurveto
            -32 17 -14 36 29 42 8 20 54 51 callgsubr
            57 268 14 vvcurveto
            return
          </CharString>
          <CharString index="59">
            -16 callsubr
            33 24 44 53 return
          </CharString>
          <CharString index="60">
            -443 -65 callsubr
            return
          </CharString>
          <CharString index="61">
            642 -45 callgsubr
            return
          </CharString>
          <CharString index="62">
            hlineto
            -6 -37 return
          </CharString>
          <CharString index="63">
            -32 -66 rlineto
            -126 hlineto
            return
          </CharString>
          <CharString index="64">
            -20 -96 -497 return
          </CharString>
          <CharString index="65">
            722 rmoveto
            37 -32 30 -35 -35 -32 -30 -37 -36 32 -28 35 35 32 28 36 vhcurveto
            return
          </CharString>
          <CharString index="66">
            31 callsubr
            -83 30 return
          </CharString>
          <CharString index="67">
            vhcurveto
            5 -29 74 -8 return
          </CharString>
          <CharString index="68">
            -21 callsubr
            -41 hlineto
            -41 -91 rlineto
            -172 hlineto
            97 495 88 20 6 -24 callgsubr
            -96 -497 -87 -51 callgsubr
            return
          </CharString>
          <CharString index="69">
            rmoveto
            103 177 -17 19 -80 -17 return
          </CharString>
          <CharString index="70">
            28 -33 -33 -30 -28 -34 41 callgsubr
            return
          </CharString>
          <CharString index="71">
            -43 -54 -22 -43 callgsubr
            return
          </CharString>
          <CharString index="72">
            -40 callgsubr
            vhcurveto
            return
          </CharString>
          <CharString index="73">
            rmoveto
            10 -86 rlineto
            39 hlineto
            27 122 rlineto
            16 -32 -40 7 -39 hhcurveto
            -185 6 callgsubr
            44 55 10 27 46 hvcurveto
            -11 39 rlineto
            -12 -35 -32 -7 -28 hhcurveto
            -67 -20 37 83 131 49 156 115 12 15 -1 -5 14 hvcurveto
            endchar
          </CharString>
          <CharString index="74">
            650 rmoveto
            -9 -60 rlineto
            224 hlineto
            9 60 rlineto
            return
          </CharString>
          <CharString index="75">
            9 19 55 vhcurveto
            return
          </CharString>
          <CharString index="76">
            2 callsubr
            67 hlineto
            130 23 callsubr
            return
          </CharString>
          <CharString index="77">
            rmoveto
            -9 -61 rlineto
            244 hlineto
            9 61 rlineto
            return
          </CharString>
          <CharString index="78">
            4 19 11 56 12 vvcurveto
            15 -7 10 -15 -34 -70 -17 -19 -56 vhcurveto
            6 -29 74 -8 return
          </CharString>
          <CharString index="79">
            7 37 rlineto
            return
          </CharString>
          <CharString index="80">
            vvcurveto
            -38 22 -34 63 68 38 53 0 vhcurveto
            -15 18 rlineto
            -15 -20 -19 -7 -18 hhcurveto
            return
          </CharString>
          <CharString index="81">
            rmoveto
            -235 hlineto
            -54 -190 14 -17 rlineto
            101 54 -17 -59 -66 -54 -41 -68 -32 -27 5 14 -36 hvcurveto
            -17 -43 rlineto
            -15 35 42 -8 47 hhcurveto
            121 77 68 98 51 -32 55 -157 3 hvcurveto
            31 112 rlineto
            180 hlineto
            return
          </CharString>
          <CharString index="82">
            rmoveto
            29 10 -54 184 rlineto
            -69 hlineto
            -12 -16 rlineto
            return
          </CharString>
          <CharString index="83">
            2 -12 rlineto
            48 14 -20 -20 -38 -37 -29 -43 -13 -12 2 5 -12 hvcurveto
            -14 32 callgsubr
            28 hhcurveto
            return
          </CharString>
          <CharString index="84">
            34 188 54 305 6 vvcurveto
            return
          </CharString>
          <CharString index="85">
            -14 -6 -13 rlineto
            3 -13 2 -16 -12 vvcurveto
            -44 return
          </CharString>
          <CharString index="86">
            29 151 rlineto
            return
          </CharString>
          <CharString index="87">
            36 rlineto
            -198 hlineto
            return
          </CharString>
          <CharString index="88">
            215 708 rmoveto
            -34 -30 -29 -34 -34 30 -28 34 34 29 28 34 34 -30 29 -33 hvcurveto
            return
          </CharString>
          <CharString index="89" raw="1">
            7f1d38a9 0b  
          </CharString>
          <CharString index="90">
            705 rmoveto
            -48 callsubr
            21 hvcurveto
            1 callsubr
            return
          </CharString>
          <CharString index="91">
            35 86 -39 38 hhcurveto
            return
          </CharString>
          <CharString index="92">
            664 rmoveto
            33 29 26 34 -52 callsubr
            hvcurveto
            205 hmoveto
            33 30 26 34 35 -30 49 callsubr
            return
          </CharString>
          <CharString index="93">
            30 26 34 vhcurveto
            return
          </CharString>
          <CharString index="94">
            583 -47 callgsubr
            return
          </CharString>
          <CharString index="95">
            hlineto
            7 37 return
          </CharString>
          <CharString index="96">
            rmoveto
            37 -28 27 -37 -34 -29 -27 -37 -35 29 -28 34 37 28 28 35 vhcurveto
            endchar
          </CharString>
          <CharString index="97">
            rmoveto
            -33 -23 20 65 159 59 148 117 20 24 -7 -13 19 hvcurveto
            -97 -19 -35 -180 -1 hhcurveto
            -39 -26 -65 -56 -37 hhcurveto
            endchar
          </CharString>
          <CharString index="98">
            rmoveto
            23 callgsubr
            219 -105 rlineto
            return
          </CharString>
          <CharString index="99">
            3 callsubr
            23 vhcurveto
            34 86 -39 39 hhcurveto
            return
          </CharString>
          <CharString index="100">
            hmoveto
            -66 callsubr
            -7 -37 79 -20 -45 -230 rlineto
            -75 hlineto
            return
          </CharString>
          <CharString index="101">
            -3 callsubr
            endchar
          </CharString>
          <CharString index="102">
            -66 callsubr
            -6 -37 78 -43 callsubr
            -87 -21 rlineto
            return
          </CharString>
          <CharString index="103">
            195 hlineto
            9 39 -63 14 return
          </CharString>
          <CharString index="104">
            -21 15 -33 -38 vvcurveto
            -72 -51 -51 -92 -42 -35 9 6 -19 vhcurveto
            -5 86 rlineto
            -40 hlineto
            -34 -125 rlineto
            -21 46 63 -10 50 hhcurveto
            return
          </CharString>
          <CharString index="105">
            -34 -30 -27 -35 -34 30 -26 34 hvcurveto
            205 hmoveto
            32 30 26 34 35 -30 27 -32 -34 -29 -27 -35 -34 29 -26 34 hvcurveto
            return
          </CharString>
          <CharString index="106">
            34 31 27 35 36 -31 29 -34 return
          </CharString>
          <CharString index="107">
            rmoveto
            240 399 -7 41 rlineto
            -295 hlineto
            -12 -94 rlineto
            31 hlineto
            27 39 rlineto
            178 hlineto
            -242 -371 rlineto
            return
          </CharString>
          <CharString index="108">
            -34 -30 callgsubr
            -24 -57 callgsubr
            35 -14 rlineto
            0 21 35 22 vhcurveto
            return
          </CharString>
          <CharString index="109">
            801 rmoveto
            -28 -20 87 -133 rlineto
            return
          </CharString>
          <CharString index="110">
            -35 -30 callgsubr
            -24 vhcurveto
            -36 -84 40 -39 37 callgsubr
            return
          </CharString>
          <CharString index="111">
            19 callgsubr
            -2 -19 rlineto
            return
          </CharString>
          <CharString index="112">
            133 110 111 133 134 -110 110 -133 -134 -109 -110 -134 return
          </CharString>
          <CharString index="113">
            30 -155 -130 rlineto
            return
          </CharString>
          <CharString index="114">
            -53 callgsubr
            -87 -153 rlineto
            return
          </CharString>
          <CharString index="115">
            hvcurveto
            5 1 7 2 5 vhcurveto
            return
          </CharString>
          <CharString index="116">
            261 -12 callsubr
            return
          </CharString>
          <CharString index="117">
            -55 -169 -3 131 101 rlineto
            85 66 54 62 69 vvcurveto
            63 -49 27 -75 -54 -58 -18 -20 return
          </CharString>
          <CharString index="118">
            -236 rmoveto
            68 38 36 callgsubr
            16 29 return
          </CharString>
          <CharString index="119">
            -21 -7 -35 rlineto
            71 hlineto
            -73 -381 -84 -19 -7 -35 rlineto
            252 hlineto
            7 35 -75 19 return
          </CharString>
          <CharString index="120">
            -3 28 hhcurveto
            -10 callgsubr
            return
          </CharString>
          <CharString index="121">
            33 callgsubr
            32 23 43 53 return
          </CharString>
          <CharString index="122">
            vvcurveto
            11 -4 8 -14 -24 -54 -12 -15 -41 vhcurveto
            4 -25 16 -2 21 -2 16 -1 rlinecurve
            return
          </CharString>
          <CharString index="123">
            724 rmoveto
            -52 callsubr
            33 29 26 34 vhcurveto
            return
          </CharString>
          <CharString index="124">
            7 -20 callsubr
            endchar
          </CharString>
          <CharString index="125">
            40 rmoveto
            -28 -8 16 23 44 12 41 43 27 8 -16 -24 -44 -12 -40 -42 hvcurveto
            return
          </CharString>
          <CharString index="126">
            rmoveto
            28 hlineto
            39 188 -54 16 rlineto
            -29 hlineto
            return
          </CharString>
          <CharString index="127">
            68 hlineto
            121 142 -24 23 -120 -88 return
          </CharString>
          <CharString index="128">
            -26 33 33 -14 callsubr
            return
          </CharString>
          <CharString index="129">
            -14 rlineto
            0 21 35 23 vhcurveto
            34 87 -39 38 hhcurveto
            33 23 44 53 22 hvcurveto
            return
          </CharString>
          <CharString index="130">
            132 -21 22 -131 -79 rlineto
            return
          </CharString>
          <CharString index="131">
            -171 rlineto
            endchar
          </CharString>
          <CharString index="132">
            -450 rmoveto
            82 hlineto
            84 431 -202 -29 -5 -32 rlineto
            113 hlineto
            return
          </CharString>
          <CharString index="133">
            38 hvcurveto
            56 291 return
          </CharString>
          <CharString index="134">
            150 rlineto
            24 47 -19 callgsubr
          </CharString>
          <CharString index="135">
            41 -81 hvcurveto
            -87 -340 rmoveto
            -38 -7 28 41 92 32 133 return
          </CharString>
          <CharString index="136">
            -34 29 21 callsubr
            return
          </CharString>
          <CharString index="137">
            763 rmoveto
            -35 -30 callgsubr
            return
          </CharString>
          <CharString index="138">
            rmoveto
            218 -12 callgsubr
            return
          </CharString>
          <CharString index="139">
            81 34 66 55 vhcurveto
            return
          </CharString>
          <CharString index="140">
            -41 hhcurveto
            -21 -11 12 return
          </CharString>
          <CharString index="141">
            -34 14 rlineto
            0 return
          </CharString>
          <CharString index="142">
            49 callgsubr
            -2 -19 rlineto
            return
          </CharString>
          <CharString index="143">
            rmoveto
            393 60 -393 hlineto
            endchar
          </CharString>
          <CharString index="144">
            rmoveto
            -128 -215 15 -20 87 19 55 210 rlineto
            return
          </CharString>
          <CharString index="145">
            rmoveto
            128 216 -15 19 -87 -19 -55 -209 rlineto
            return
          </CharString>
          <CharString index="146">
            -157 2 hvcurveto
            31 111 rlineto
            180 hlineto
            endchar
          </CharString>
          <CharString index="147">
            -45 callsubr
            75 -20 return
          </CharString>
          <CharString index="148">
            rmoveto
            177 24 144 39 50 -30 43 -77 -44 return
          </CharString>
          <CharString index="149">
            rlineto
            -15 35 40 -8 48 hhcurveto
            122 75 70 97 return
          </CharString>
          <CharString index="150">
            -129 0 vvcurveto
            -35 -20 -47 -35 -24 hhcurveto
            endchar
          </CharString>
          <CharString index="151">
            -29 -28 -34 -34 29 -26 return
          </CharString>
          <CharString index="152">
            7 -30 rcurveline
            56 -7 rlineto
            return
          </CharString>
          <CharString index="153">
            vhcurveto
            6 -30 73 return
          </CharString>
          <CharString index="154">
            45 26 -51 151 110 152 -35 27 return
          </CharString>
          <CharString index="155">
            98 127 180 106 -55 37 -74 -141 return
          </CharString>
          <CharString index="156">
            -49 callgsubr
            hvcurveto
            return
          </CharString>
          <CharString index="157">
            724 rmoveto
            35 -29 27 -33 return
          </CharString>
          <CharString index="158">
            -132 -173 -105 56 -40 return
          </CharString>
          <CharString index="159">
            -8 rlineto
            -18 -101 return
          </CharString>
          <CharString index="160">
            6 -45 rlineto
            269 hlineto
            -184 63 rmoveto
            return
          </CharString>
          <CharString index="161">
            hlineto
            10 58 rlineto
            89 15 25 23 70 hhcurveto
            return
          </CharString>
          <CharString index="162">
            -15 -53 callgsubr
            return
          </CharString>
          <CharString index="163">
            21 96 497 return
          </CharString>
        <CharString name=".notdef">
          -298 endchar
        </CharString>
        <CharString name="A">
          50 349 203 -104 callsubr
          endchar
        </CharString>
        <CharString name="AE">
          202 417 311 -59 callgsubr
        </CharString>
        <CharString name="AEacute">
          202 393 646 -89 callgsubr
          43 -359 -59 callgsubr
        </CharString>
        <CharString name="Aacute">
          76 280 646 -41 callsubr
          -155 -130 rlineto
          -299 -670 -87 callsubr
        </CharString>
        <CharString name="Abreve">
          76 360 664 rmoveto
          95 34 60 62 12 hvcurveto
          -39 hlineto
          -32 -6 -19 -30 -68 hhcurveto
          -55 -10 21 24 -1 hvcurveto
          5 1 7 1 5 vhcurveto
          -40 hlineto
          -3 -11 -3 -13 -11 vvcurveto
          -48 23 -39 78 vhcurveto
          -399 -664 -87 callsubr
        </CharString>
        <CharString name="Acircumflex">
          76 476 647 rmoveto
          27 21 -79 133 rlineto
          -68 -54 callsubr
          21 -22 138 78 rlineto
          -31 -522 rmoveto
          -64 callgsubr
          -7 -38 rlineto
          195 hlineto
          9 39 -63 14 74 27 callsubr
        </CharString>
        <CharString name="Adieresis">
          76 272 -15 callsubr
          -516 -664 -87 callsubr
        </CharString>
        <CharString name="Agrave">
          76 443 646 rmoveto
          18 24 -154 130 -83 -30 -1 -19 rlineto
          -262 -751 -87 callsubr
        </CharString>
        <CharString name="Amacron">
          76 237 686 rmoveto
          244 hlineto
          9 61 rlineto
          -244 hlineto
          -285 -747 -87 callsubr
        </CharString>
        <CharString name="Aogonek">
          76 313 -9 callgsubr
          -20 -7 -17 hhcurveto
          -30 -16 16 31 58 60 82 52 hvcurveto
          111 hlineto
          7 38 -62 18 -74 569 -64 -13 -292 -558 -71 -16 -7 -38 rlineto
          -4 callsubr
          79 152 rlineto
          169 hlineto
          17 -141 rlineto
          1 -9 1 -7 -6 -38 -142 -61 -107 vvcurveto
          -38 22 -34 64 vhcurveto
          -106 490 rmoveto
          112 215 26 -215 rlineto
          endchar
        </CharString>
        <CharString name="Aring">
          76 364 636 rmoveto
          73 47 49 61 42 -27 32 -59 -81 -41 -52 -62 -42 29 -28 59 hvcurveto
          7 38 rmoveto
          -27 -9 13 23 34 12 37 42 24 12 -13 -24 -32 -12 -38 -42 hvcurveto
          -410 -674 -87 callsubr
        </CharString>
        <CharString name="Aringacute">
          50 353 826 -89 callgsubr
          20 -214 -70 callsubr
          -12 -471 -104 callsubr
          endchar
        </CharString>
        <CharString name="Atilde">
          76 532 21 callgsubr
          -37 -84 39 -38 hhcurveto
          -33 -26 -44 -54 -21 -35 callgsubr
          34 23 vhcurveto
          34 86 -39 39 hhcurveto
          32 24 45 53 22 hvcurveto
          -184 -560 rmoveto
          -64 callgsubr
          -7 -38 rlineto
          195 hlineto
          9 39 -63 14 74 27 callsubr
        </CharString>
        <CharString name="B">
          37 354 323 rmoveto
          88 17 71 61 96 vvcurveto
          67 -52 48 -122 vhcurveto
          -236 hlineto
          -7 -60 callsubr
          -6 -37 rlineto
          237 hlineto
          150 103 85 112 66 -39 43 -82 17 hvcurveto
          -87 16 rmoveto
          -39 hlineto
          42 219 rlineto
          3 15 17 3 23 hhcurveto
          55 33 -24 -54 -105 -74 -42 -72 hvcurveto
          -95 -284 rmoveto
          47 241 rlineto
          35 hlineto
          75 44 -32 -62 -112 -79 -43 -69 -18 -19 2 6 -16 hvcurveto
          endchar
        </CharString>
        <CharString name="C">
          16 436 22 rmoveto
          16 122 rlineto
          -40 hlineto
          -39 -85 rlineto
          -11 -35 -86 callsubr
          -133 64 -88 160 72 50 11 20 55 hvcurveto
          endchar
        </CharString>
        <CharString name="Cacute">
          19 300 646 -41 callsubr
          -155 -130 rlineto
          147 -648 rmoveto
          16 122 rlineto
          -41 hlineto
          -39 -85 rlineto
          -11 -34 -86 callsubr
          -133 63 -88 161 71 50 11 20 56 hvcurveto
          endchar
        </CharString>
        <CharString name="Cacute.loclPLK">
          16 362 -46 callsubr
          97 -635 rmoveto
          16 122 rlineto
          -40 hlineto
          -39 -85 rlineto
          -11 -35 -86 callsubr
          -133 64 -88 160 72 50 11 20 55 hvcurveto
          endchar
        </CharString>
        <CharString name="Ccaron">
          19 276 -31 callsubr
          47 -701 rmoveto
          16 122 rlineto
          -41 hlineto
          -39 -85 rlineto
          -11 -34 -86 callsubr
          -133 63 -88 161 71 50 11 20 56 hvcurveto
          endchar
        </CharString>
        <CharString name="Ccedilla">
          19 427 22 rmoveto
          16 122 rlineto
          -41 hlineto
          -39 -85 rlineto
          -11 -34 -86 callsubr
          -125 55 -85 138 -10 hvcurveto
          -31 -60 -39 callgsubr
          19 36 68 1 49 10 55 20 rlinecurve
          endchar
        </CharString>
        <CharString name="Ccircumflex">
          16 501 647 17 callgsubr
          -705 rmoveto
          16 122 rlineto
          -40 hlineto
          -39 -85 rlineto
          -11 -35 -86 callsubr
          -133 64 -88 160 72 50 11 20 55 hvcurveto
          endchar
        </CharString>
        <CharString name="Cdotaccent">
          16 470 -42 callsubr
          -34 -700 rmoveto
          16 122 rlineto
          -40 hlineto
          -39 -85 rlineto
          -11 -35 -86 callsubr
          -133 64 -88 160 72 50 11 20 55 hvcurveto
          endchar
        </CharString>
        <CharString name="D">
          125 -12 hmoveto
          -80 callgsubr
          endchar
        </CharString>
        <CharString name="Dcaron">
          125 326 648 rmoveto
          68 hlineto
          129 132 -21 22 -131 -79 -104 78 -28 -20 rlineto
          -246 -781 rmoveto
          -66 callsubr
          -7 -37 79 -62 callgsubr
          endchar
        </CharString>
        <CharString name="Dcroat">
          126 -6 -7 callsubr
          -9 -49 rlineto
          75 hlineto
          -42 -218 -87 42 callgsubr
          42 214 rlineto
          103 hlineto
          9 49 rlineto
          -103 hlineto
          45 230 rlineto
          3 15 25 3 35 hhcurveto
          100 46 -54 -105 -150 -63 -205 -169 hvcurveto
          endchar
        </CharString>
        <CharString name="E">
          27 391 393 -103 callgsubr
          endchar
        </CharString>
        <CharString name="Eacute">
          35 274 646 -64 callsubr
          141 -277 -98 callsubr
        </CharString>
        <CharString name="Ebreve">
          27 345 664 -100 callgsubr
          46 -271 -103 callgsubr
          endchar
        </CharString>
        <CharString name="Ecaron">
          35 253 2 callsubr
          68 hlineto
          129 23 callsubr
          39 -330 -98 callsubr
        </CharString>
        <CharString name="Ecircumflex">
          35 452 647 -99 callgsubr
          42 -334 -98 callsubr
        </CharString>
        <CharString name="Edieresis">
          35 303 -15 callgsubr
          -113 -331 -98 callsubr
        </CharString>
        <CharString name="Edotaccent">
          35 418 722 rmoveto
          37 -32 30 -35 -36 -31 -30 -37 -36 31 -28 36 35 32 28 36 vhcurveto
          -22 -329 -98 callsubr
        </CharString>
        <CharString name="Egrave">
          35 279 719 rmoveto
          158 -63 -34 52 -137 82 -55 -26 rlineto
          185 -371 -98 callsubr
        </CharString>
        <CharString name="Emacron">
          35 240 747 -30 callsubr
          -88 -354 -98 callsubr
        </CharString>
        <CharString name="Eng">
          171 493 612 rmoveto
          -6 -37 75 -20 -79 -413 -233 470 rlineto
          -146 -45 callsubr
          72 -43 callsubr
          -81 -51 callgsubr
          217 9 callgsubr
          80 415 211 -432 rlineto
          -106 -12 -31 -47 -72 hhcurveto
          -26 -28 3 9 -26 hvcurveto
          -10 -42 rlineto
          -16 29 37 -14 44 hhcurveto
          103 58 52 183 34 hvcurveto
          95 492 5 callgsubr
          endchar
        </CharString>
        <CharString name="Eogonek">
          35 368 11 callsubr
          48 42 62 36 32 hvcurveto
          -21 callsubr
          -42 hlineto
          -42 -91 rlineto
          -194 hlineto
          42 218 rlineto
          124 hlineto
          9 -69 rlineto
          38 -32 callgsubr
          -39 hlineto
          -88 callsubr
          25 136 rlineto
          -420 -34 callgsubr
          83 -28 callgsubr
          -90 -51 callgsubr
          404 hlineto
          -82 -59 -32 -62 -43 vvcurveto
          -38 22 -34 63 vhcurveto
          endchar
        </CharString>
        <CharString name="Eth">
          126 -10 -7 callsubr
          -10 -49 rlineto
          76 hlineto
          -43 -218 -86 42 callgsubr
          41 214 rlineto
          104 hlineto
          10 49 rlineto
          -104 hlineto
          45 230 rlineto
          3 15 25 3 35 hhcurveto
          100 45 -54 -105 -150 -62 -205 -169 hvcurveto
          endchar
        </CharString>
        <CharString name="Euro">
          -6 270 -6 rmoveto
          50 39 8 17 40 hvcurveto
          44 vlineto
          -8 -35 -31 -4 -25 hhcurveto
          -99 -30 60 79 8 0 9 1 9 hvcurveto
          175 hlineto
          16 47 rlineto
          -186 hlineto
          11 67 rlineto
          180 hlineto
          17 47 rlineto
          -185 hlineto
          156 44 60 31 69 hhcurveto
          25 16 -4 -5 16 hvcurveto
          4 -83 rlineto
          34 hlineto
          37 120 rlineto
          16 -38 -46 12 -54 hhcurveto
          -93 -107 -42 -201 -57 hvcurveto
          -70 hlineto
          -17 -47 rlineto
          73 hlineto
          -6 -34 -3 -18 -2 -15 rrcurveto
          -67 hlineto
          -17 -47 rlineto
          79 hlineto
          -1 -14 -1 -12 -12 vvcurveto
          -158 87 -26 97 vhcurveto
          endchar
        </CharString>
        <CharString name="F">
          -7 528 612 rmoveto
          -422 -45 callsubr
          82 -28 callgsubr
          -90 -51 callgsubr
          291 hlineto
          6 38 -105 20 41 208 rlineto
          127 hlineto
          5 -69 rlineto
          39 hlineto
          35 184 rlineto
          -38 hlineto
          -44 callsubr
          46 240 rlineto
          181 hlineto
          1 -79 rlineto
          43 hlineto
          endchar
        </CharString>
        <CharString name="G">
          85 482 561 -92 callsubr
        </CharString>
        <CharString name="G_tilde.loclGUA">
          81 541 763 rmoveto
          34 callsubr
          -20 -34 -23 -57 callgsubr
          35 -14 rlineto
          0 21 35 22 vhcurveto
          -48 callsubr
          21 hvcurveto
          -66 -202 -72 callgsubr
          endchar
        </CharString>
        <CharString name="Gbreve">
          81 380 664 26 callgsubr
          13 hvcurveto
          -40 hlineto
          -32 -6 -19 -30 -68 hhcurveto
          -55 -10 21 24 -1 8 callsubr
          -41 hlineto
          -3 -11 -3 -13 -11 vvcurveto
          -48 23 -39 79 vhcurveto
          95 -103 -72 callgsubr
          endchar
        </CharString>
        <CharString name="Gcaron">
          85 281 801 -77 callgsubr
          97 -162 -92 callsubr
        </CharString>
        <CharString name="Gcircumflex">
          85 486 647 -99 callgsubr
          94 -166 -92 callsubr
        </CharString>
        <CharString name="Gcommaaccent">
          81 475 561 -72 callgsubr
          -265 -786 -38 callsubr
          -36 24 callsubr
        </CharString>
        <CharString name="Gdotaccent">
          85 455 -42 callsubr
          27 -161 -92 callsubr
        </CharString>
        <CharString name="H">
          170 -12 hmoveto
          -68 callgsubr
          endchar
        </CharString>
        <CharString name="Hbar">
          170 697 575 rmoveto
          -28 callsubr
          -253 34 callgsubr
          -22 -114 rlineto
          -251 hlineto
          22 114 84 20 6 37 rlineto
          -253 40 callsubr
          -22 -114 rlineto
          -77 hlineto
          -9 -49 rlineto
          76 hlineto
          -65 -334 -83 -21 -6 -37 rlineto
          252 -12 callsubr
          -75 21 37 189 rlineto
          251 hlineto
          -37 -189 -83 -21 -6 -37 rlineto
          253 9 callgsubr
          65 334 rlineto
          75 hlineto
          10 49 rlineto
          -76 hlineto
          22 114 rlineto
          -144 -254 rmoveto
          -251 hlineto
          18 91 rlineto
          251 hlineto
          endchar
        </CharString>
        <CharString name="Hcircumflex">
          170 528 647 -99 callgsubr
          -442 -727 rmoveto
          -68 callgsubr
          endchar
        </CharString>
        <CharString name="I">
          -167 -12 hmoveto
          -82 callsubr
          endchar
        </CharString>
        <CharString name="IJ">
          151 -12 hmoveto
          -82 callsubr
          345 -186 -82 callgsubr
        </CharString>
        <CharString name="Iacute">
          -150 163 646 -48 callgsubr
          -151 -670 -77 callsubr
        </CharString>
        <CharString name="Iacute_J.loclNLD">
          151 209 646 -89 callgsubr
          346 -24 -89 callgsubr
          -529 -670 rmoveto
          -82 callsubr
          345 -186 -82 callgsubr
        </CharString>
        <CharString name="Ibreve">
          -167 249 664 -100 callgsubr
          -261 -664 rmoveto
          -82 callsubr
          endchar
        </CharString>
        <CharString name="Icircumflex">
          -150 131 12 callgsubr
          -117 -669 -77 callsubr
        </CharString>
        <CharString name="Idieresis">
          -150 157 664 rmoveto
          33 29 26 34 35 -29 27 -33 -2 callsubr
          -369 -664 -77 callsubr
        </CharString>
        <CharString name="Idotaccent">
          -150 260 658 rmoveto
          35 31 28 36 37 -31 30 -35 -36 -32 -30 -37 -36 32 -28 36 hvcurveto
          -267 -658 -77 callsubr
        </CharString>
        <CharString name="Igrave">
          -150 351 646 -68 callsubr
          -139 -751 -77 callsubr
        </CharString>
        <CharString name="Imacron">
          -150 145 692 rmoveto
          229 hlineto
          9 60 rlineto
          -230 hlineto
          -160 -752 -77 callsubr
        </CharString>
        <CharString name="Iogonek">
          -150 145 -236 rmoveto
          67 39 36 callgsubr
          17 29 56 55 61 65 24 hvcurveto
          7 37 -80 21 97 497 87 20 7 -24 callgsubr
          -97 -497 -87 -21 -6 -37 rlineto
          188 hlineto
          -81 -45 -41 -65 -53 vvcurveto
          -38 23 -35 63 vhcurveto
          endchar
        </CharString>
        <CharString name="Itilde">
          -150 336 666 rmoveto
          33 24 44 53 22 hvcurveto
          -35 -30 callgsubr
          -24 vhcurveto
          -36 -85 40 -38 16 callgsubr
          -343 -666 -77 callsubr
        </CharString>
        <CharString name="J">
          -185 4 -149 -82 callgsubr
        </CharString>
        <CharString name="Jcircumflex">
          -185 351 647 -99 callgsubr
          -249 -876 -82 callgsubr
        </CharString>
        <CharString name="K">
          59 520 38 callgsubr
          71 21 6 -20 callsubr
          -7 -37 56 -18 -239 -226 44 224 85 -61 callsubr
          -259 -46 callgsubr
          -7 -37 rlineto
          257 -12 callsubr
          -75 21 47 242 140 -300 rlineto
          endchar
        </CharString>
        <CharString name="Kcommaaccent">
          64 525 38 callgsubr
          70 21 7 -20 callsubr
          -7 -37 55 -18 -238 -226 44 224 85 20 6 37 rlineto
          -258 hlineto
          -7 -37 79 -55 callgsubr
          -7 -37 rlineto
          256 -12 callsubr
          -75 21 47 242 141 -300 rlineto
          -159 27 callgsubr
        </CharString>
        <CharString name="L">
          -48 402 hmoveto
          -57 callsubr
          endchar
        </CharString>
        <CharString name="Lacute">
          -39 170 646 -89 callgsubr
          255 -670 rmoveto
          -39 callsubr
          endchar
        </CharString>
        <CharString name="Lcaron">
          -39 159 2 callsubr
          67 hlineto
          129 132 -20 22 -132 -79 rlineto
          144 -723 rmoveto
          -39 callsubr
          endchar
        </CharString>
        <CharString name="Lcommaaccent">
          -39 406 hmoveto
          -39 callsubr
          178 27 callgsubr
        </CharString>
        <CharString name="Ldot">
          -48 402 hmoveto
          -57 callsubr
          486 429 -11 callsubr
        </CharString>
        <CharString name="Lslash">
          -40 406 hmoveto
          -21 callsubr
          -41 hlineto
          -41 -91 rlineto
          -172 hlineto
          48 242 122 61 -23 44 -88 -43 38 191 88 20 6 -24 callgsubr
          -47 -242 -109 -54 22 -44 75 36 -37 -193 -87 -51 callgsubr
          endchar
        </CharString>
        <CharString name="M">
          290 206 hmoveto
          7 37 -78 21 98 425 68 -493 60 11 253 482 -66 -425 -87 -51 callgsubr
          9 callsubr
          -79 21 76 497 -3 callgsubr
          -194 hlineto
          -247 -481 -64 481 rlineto
          -182 -34 callgsubr
          72 -20 -114 -497 -81 -51 callgsubr
          endchar
        </CharString>
        <CharString name="N">
          171 493 -27 callgsubr
          endchar
        </CharString>
        <CharString name="Nacute">
          192 359 646 -48 callgsubr
          160 -58 -97 callgsubr
          endchar
        </CharString>
        <CharString name="Nacute.loclPLK">
          171 389 -46 callsubr
          127 -45 -97 callgsubr
          endchar
        </CharString>
        <CharString name="Ncaron">
          192 320 -31 callsubr
          76 -111 -97 callgsubr
          endchar
        </CharString>
        <CharString name="Ncommaaccent">
          192 500 -27 callgsubr
          -465 -837 rmoveto
          103 43 callgsubr
        </CharString>
        <CharString name="Ntilde">
          192 595 763 rmoveto
          -8 callsubr
          32 24 44 53 22 hvcurveto
          -95 -151 -97 callgsubr
          endchar
        </CharString>
        <CharString name="O">
          263 -9 -105 callgsubr
          endchar
        </CharString>
        <CharString name="OE">
          377 287 hmoveto
          458 hlineto
          -21 callsubr
          -42 hlineto
          -42 -91 rlineto
          -191 hlineto
          43 218 rlineto
          123 hlineto
          8 -69 rlineto
          39 hlineto
          35 184 rlineto
          -39 hlineto
          -31 -66 rlineto
          -126 hlineto
          45 228 rlineto
          176 hlineto
          1 -79 rlineto
          43 hlineto
          25 136 rlineto
          -415 hlineto
          -230 -139 -181 -218 -133 70 -80 160 hvcurveto
          21 52 rmoveto
          -99 -48 61 104 92 45 250 198 31 32 -2 -7 32 hvcurveto
          -94 -488 rlineto
          -7 -34 -31 -3 -32 hhcurveto
          endchar
        </CharString>
        <CharString name="Oacute">
          352 646 -89 callgsubr
          -70 -679 -105 callgsubr
          endchar
        </CharString>
        <CharString name="Oacute.loclPLK">
          364 -46 callsubr
          -78 -666 -105 callgsubr
          endchar
        </CharString>
        <CharString name="Obreve">
          392 664 -100 callgsubr
          -129 -673 -105 callgsubr
          endchar
        </CharString>
        <CharString name="Ocircumflex">
          267 647 rmoveto
          136 80 98 -80 28 21 -80 133 rlineto
          -68 hlineto
          -135 -132 rlineto
          17 -678 -105 callgsubr
          endchar
        </CharString>
        <CharString name="Odieresis">
          301 -15 callsubr
          -243 -673 -105 callgsubr
          endchar
        </CharString>
        <CharString name="Ograve">
          485 646 -68 callsubr
          -3 -760 -105 callgsubr
          endchar
        </CharString>
        <CharString name="Ohorn">
          692 637 -95 callsubr
        </CharString>
        <CharString name="Ohungarumlaut">
          273 -25 callgsubr
          -88 -153 rlineto
          -148 -666 -105 callgsubr
          endchar
        </CharString>
        <CharString name="Omacron">
          280 686 rmoveto
          244 hlineto
          9 61 rlineto
          -244 hlineto
          -26 -756 -105 callgsubr
          endchar
        </CharString>
        <CharString name="Oslash">
          158 -95 -53 callsubr
        </CharString>
        <CharString name="Oslashacute">
          272 646 -89 callgsubr
          -95 -765 -53 callsubr
        </CharString>
        <CharString name="Otilde">
          488 666 rmoveto
          33 23 44 53 22 hvcurveto
          -35 -30 callgsubr
          -23 -57 callgsubr
          35 -14 rlineto
          0 20 35 23 vhcurveto
          -16 callsubr
          -225 -675 -105 callgsubr
          endchar
        </CharString>
        <CharString name="P">
          15 340 612 rmoveto
          -234 hlineto
          -7 -38 79 -22 -95 -494 -88 -51 callgsubr
          284 hlineto
          7 38 -102 20 39 198 rlineto
          -6 20 30 -3 17 hhcurveto
          107 132 73 157 90 -67 45 -115 hvcurveto
          -116 -315 rmoveto
          50 258 rlineto
          6 17 22 3 17 hhcurveto
          57 35 -30 -62 -128 -81 -54 -70 -17 -17 1 6 -13 hvcurveto
          endchar
        </CharString>
        <CharString name="Q">
          127 457 -153 rmoveto
          34 48 16 12 25 hvcurveto
          3 31 rlineto
          -73 hlineto
          -24 -97 46 48 -84 hvcurveto
          -4 4 rlineto
          190 127 189 216 125 -57 93 -163 -222 -124 -197 -208 -107 47 -57 96 -60 hvcurveto
          160 -104 rlineto
          -39 60 25 -8 33 hhcurveto
          -192 200 rmoveto
          -97 -27 86 85 138 64 217 162 104 28 -77 -91 -98 -45 -260 -189 hvcurveto
          endchar
        </CharString>
        <CharString name="R">
          52 365 hmoveto
          -86 callgsubr
          endchar
        </CharString>
        <CharString name="Racute">
          54 270 646 -64 callsubr
          119 -670 rmoveto
          -78 callgsubr
          endchar
        </CharString>
        <CharString name="Rcaron">
          54 246 -31 callsubr
          20 -723 rmoveto
          -78 callgsubr
          endchar
        </CharString>
        <CharString name="Rcommaaccent">
          54 370 hmoveto
          -78 callgsubr
          -72 -545 -38 callsubr
          -36 24 callsubr
        </CharString>
        <CharString name="S">
          -30 158 -11 -23 callgsubr
          -24 22 41 vvcurveto
          76 56 35 78 26 35 -89 callsubr
          rlineto
          -21 46 63 -10 50 hhcurveto
          endchar
        </CharString>
        <CharString name="Sacute">
          -39 233 646 -48 callgsubr
          -57 -681 -54 callgsubr
        </CharString>
        <CharString name="Sacute.loclPLK">
          -30 289 -46 callsubr
          -108 -668 -23 callgsubr
          -24 22 41 vvcurveto
          76 56 35 78 26 35 -89 callsubr
          rlineto
          -21 46 63 -10 50 hhcurveto
          endchar
        </CharString>
        <CharString name="Scaron">
          -39 215 801 -77 callgsubr
          -162 -734 -54 callgsubr
        </CharString>
        <CharString name="Scedilla">
          -39 409 207 rmoveto
          62 -36 46 -54 26 vhcurveto
          -76 38 rlineto
          -42 19 -23 22 41 vvcurveto
          76 55 35 78 27 34 -89 callsubr
          41 -19 56 -9 47 -2 rlinecurve
          -30 -58 -39 callgsubr
          18 35 rlineto
          152 7 80 86 124 vvcurveto
          endchar
        </CharString>
        <CharString name="Scircumflex">
          -30 428 647 -99 callgsubr
          -172 -738 -23 callgsubr
          -24 22 41 vvcurveto
          76 56 35 78 26 35 -89 callsubr
          rlineto
          -21 46 63 -10 50 hhcurveto
          endchar
        </CharString>
        <CharString name="Scommaaccent">
          -39 156 -11 -23 callgsubr
          -23 22 41 vvcurveto
          76 55 35 78 27 34 -89 callsubr
          rlineto
          -21 46 63 -10 50 hhcurveto
          -38 -214 rmoveto
          103 43 callgsubr
        </CharString>
        <CharString name="T">
          -6 76 612 rmoveto
          -21 -63 callsubr
          endchar
        </CharString>
        <CharString name="Tbar">
          -6 517 466 rmoveto
          34 146 rlineto
          -475 hlineto
          -21 -146 rlineto
          39 hlineto
          36 89 rlineto
          125 hlineto
          -42 -220 rlineto
          -160 hlineto
          -9 -48 rlineto
          159 hlineto
          -44 -229 -99 -51 callgsubr
          284 -12 callsubr
          -90 21 44 229 rlineto
          176 hlineto
          9 48 rlineto
          -175 hlineto
          42 220 rlineto
          125 -89 hlineto
          endchar
        </CharString>
        <CharString name="Tcaron">
          3 234 2 callsubr
          68 hlineto
          129 23 callsubr
          -253 -111 rmoveto
          -20 -63 callsubr
          endchar
        </CharString>
        <CharString name="Thorn">
          -21 -12 hmoveto
          9 callsubr
          -79 21 16 84 rlineto
          -3 19 20 -1 17 hhcurveto
          100 126 68 146 83 -56 42 -112 hvcurveto
          -49 hlineto
          15 78 -3 callgsubr
          -262 -46 callgsubr
          rlineto
          243 143 rmoveto
          -15 -13 1 2 -9 hvcurveto
          48 243 rlineto
          4 13 10 1 20 hhcurveto
          49 37 -21 -66 -119 -67 -45 -73 hvcurveto
          endchar
        </CharString>
        <CharString name="U">
          107 516 236 rmoveto
          62 319 80 -61 callsubr
          -219 -106 callsubr
          endchar
        </CharString>
        <CharString name="Uacute">
          145 334 646 -64 callsubr
          217 -434 rmoveto
          -98 callgsubr
          191 -35 callsubr
          endchar
        </CharString>
        <CharString name="Ubreve">
          107 385 664 -100 callgsubr
          131 -428 rmoveto
          62 319 80 -61 callsubr
          -219 -106 callsubr
          endchar
        </CharString>
        <CharString name="Ucircumflex">
          145 516 647 -99 callgsubr
          114 -491 rmoveto
          -98 callgsubr
          191 -35 callsubr
          endchar
        </CharString>
        <CharString name="Udieresis">
          145 378 -15 callgsubr
          -52 -488 rmoveto
          -98 callgsubr
          191 -35 callsubr
          endchar
        </CharString>
        <CharString name="Ugrave">
          145 500 35 callsubr
          252 -515 rmoveto
          -98 callgsubr
          191 -35 callsubr
          endchar
        </CharString>
        <CharString name="Uhorn">
          107 715 676 -87 callgsubr
          -44 -28 -9 -43 vhcurveto
          -111 -106 callsubr
          63 325 60 24 rlineto
          1 vlineto
          44 18 32 31 41 vvcurveto
          endchar
        </CharString>
        <CharString name="Uhungarumlaut">
          145 310 -46 callsubr
          184 -15 -45 callgsubr
          84 -421 rmoveto
          -98 callgsubr
          191 -35 callsubr
          endchar
        </CharString>
        <CharString name="Umacron">
          145 300 747 -30 callsubr
          -12 -511 rmoveto
          -98 callgsubr
          191 -35 callsubr
          endchar
        </CharString>
        <CharString name="Uogonek">
          145 532 236 rmoveto
          -98 callgsubr
          7 7 0 1 7 vhcurveto
          -76 -49 -34 -64 -42 -27 callsubr
          -29 -16 16 29 39 30 74 71 33 hvcurveto
          121 38 36 121 14 73 rrcurveto
          endchar
        </CharString>
        <CharString name="Uring">
          145 408 636 -70 callsubr
          -140 -684 rmoveto
          191 -40 callgsubr
          hvcurveto
          -98 callgsubr
          vhcurveto
          endchar
        </CharString>
        <CharString name="Utilde">
          145 576 763 rmoveto
          3 callsubr
          22 vhcurveto
          -48 callsubr
          22 hvcurveto
          -40 -527 rmoveto
          62 319 81 -61 callsubr
          -219 -34 callgsubr
          77 -20 -61 -316 rlineto
          -108 -21 -46 -86 -111 hhcurveto
          -81 -25 47 67 30 6 37 7 38 hvcurveto
          57 291 5 callgsubr
          -254 40 callsubr
          -57 -291 rlineto
          -7 -38 -6 -38 -34 vvcurveto
          -95 44 -69 139 191 50 158 88 16 vhcurveto
          endchar
        </CharString>
        <CharString name="V">
          41 417 575 rmoveto
          63 -20 -215 -430 -55 430 61 -61 callsubr
          -220 -34 callgsubr
          63 -21 78 -563 67 11 282 552 72 21 -28 callsubr
          -196 hlineto
          endchar
        </CharString>
        <CharString name="W">
          283 653 575 -83 callsubr
        </CharString>
        <CharString name="Wacute">
          283 433 646 -89 callgsubr
          239 -95 -83 callsubr
        </CharString>
        <CharString name="Wcircumflex">
          283 584 647 -99 callgsubr
          167 -152 -83 callsubr
        </CharString>
        <CharString name="Wdieresis">
          283 446 724 -94 callgsubr
          2 -149 -83 callsubr
        </CharString>
        <CharString name="Wgrave">
          283 520 646 -68 callsubr
          352 -176 -83 callsubr
        </CharString>
        <CharString name="X">
          48 -39 hmoveto
          200 hlineto
          6 37 -61 20 153 190 79 -191 -59 -18 -7 -38 rlineto
          228 hlineto
          6 37 -62 19 -109 260 202 239 68 -61 callsubr
          -200 hlineto
          -7 -38 61 -19 -153 -183 -74 183 61 19 7 38 rlineto
          -224 -45 callsubr
          59 -20 101 -251 -202 -247 -68 -20 rlineto
          endchar
        </CharString>
        <CharString name="Y">
          22 388 575 -95 callgsubr
          endchar
        </CharString>
        <CharString name="Y.loclGUA">
          146 228 -167 -103 callsubr
        </CharString>
        <CharString name="Yacute">
          34 279 646 -48 callgsubr
          136 -95 -95 callgsubr
          endchar
        </CharString>
        <CharString name="Yacute.loclGUA">
          146 338 646 -64 callsubr
          -91 -837 -103 callsubr
        </CharString>
        <CharString name="Ycircumflex">
          34 467 647 -99 callgsubr
          27 -152 -95 callgsubr
          endchar
        </CharString>
        <CharString name="Ycircumflex.loclGUA">
          146 280 12 callgsubr
          -31 -836 -103 callsubr
        </CharString>
        <CharString name="Ydieresis">
          34 329 50 callsubr
          -34 -29 -27 -35 -34 29 -26 34 33 29 26 34 vhcurveto
          205 hmoveto
          35 -30 27 -32 -34 -29 -27 -35 -34 29 -26 34 32 -14 callsubr
          -138 -149 -95 callgsubr
          endchar
        </CharString>
        <CharString name="Ydieresis.loclGUA">
          163 316 664 rmoveto
          32 29 26 34 35 -29 27 -32 -2 callsubr
          -276 -831 -103 callsubr
        </CharString>
        <CharString name="Ygrave">
          34 437 646 -68 callsubr
          -142 -751 rmoveto
          284 hlineto
          6 37 -90 21 34 175 212 321 72 22 7 -20 callsubr
          -7 -37 63 -20 -169 -258 -70 258 62 20 6 37 rlineto
          -214 -34 callgsubr
          60 -21 89 -317 -35 -179 -98 -21 rlineto
          endchar
        </CharString>
        <CharString name="Ygrave.loclGUA">
          146 466 35 callsubr
          -18 -918 -103 callsubr
        </CharString>
        <CharString name="Z">
          -3 446 151 -75 callsubr
          37 79 rlineto
          212 -20 callgsubr
          401 hlineto
          endchar
        </CharString>
        <CharString name="Zacute">
          -3 232 646 -64 callsubr
          224 -519 -75 callsubr
          36 79 rlineto
          213 -20 callgsubr
          400 hlineto
          endchar
        </CharString>
        <CharString name="Zacute.loclPLK">
          -3 302 -46 callsubr
          167 -506 -75 callsubr
          37 79 rlineto
          212 -20 callgsubr
          401 hlineto
          endchar
        </CharString>
        <CharString name="Zcaron">
          -3 224 -31 callsubr
          109 -572 -75 callsubr
          36 79 rlineto
          213 -20 callgsubr
          400 hlineto
          endchar
        </CharString>
        <CharString name="Zdotaccent">
          -3 381 722 rmoveto
          37 -31 30 -35 -36 -32 -30 -37 -36 32 -28 36 35 31 28 36 vhcurveto
          56 -571 -75 callsubr
          36 79 rlineto
          213 -20 callgsubr
          400 hlineto
          endchar
        </CharString>
        <CharString name="a">
          20 419 206 -107 callgsubr
          endchar
        </CharString>
        <CharString name="aacute">
          20 244 563 -89 callgsubr
          194 -381 -107 callgsubr
          endchar
        </CharString>
        <CharString name="abreve">
          20 313 584 rmoveto
          96 33 60 62 12 hvcurveto
          -39 hlineto
          -31 -6 -19 -31 -68 hhcurveto
          -55 -10 21 24 -1 hvcurveto
          5 1 7 1 5 vhcurveto
          -40 hlineto
          -3 -10 -3 -14 -10 vvcurveto
          -49 23 -39 78 vhcurveto
          106 -378 -107 callgsubr
          endchar
        </CharString>
        <CharString name="acircumflex">
          20 415 13 callgsubr
          88 -436 -107 callgsubr
          endchar
        </CharString>
        <CharString name="acute">
          -248 101 563 -89 callgsubr
          endchar
        </CharString>
        <CharString name="acute.case">
          -248 117 646 -89 callgsubr
          endchar
        </CharString>
        <CharString name="acute.loclPLK">
          -248 142 550 -56 callgsubr
          endchar
        </CharString>
        <CharString name="acute.loclPLK.case">
          -248 156 -46 callsubr
          endchar
        </CharString>
        <CharString name="acutecomb">
          -503 -138 646 -89 callgsubr
          endchar
        </CharString>
        <CharString name="adieresis">
          20 287 -60 callgsubr
          -29 -28 -34 29 callsubr
          -74 -438 -107 callgsubr
          endchar
        </CharString>
        <CharString name="ae">
          205 487 -9 -66 callgsubr
        </CharString>
        <CharString name="aeacute">
          205 336 563 -89 callgsubr
          170 -596 -66 callgsubr
        </CharString>
        <CharString name="agrave">
          20 408 564 rmoveto
          18 24 -153 130 -83 -30 -1 -19 rlineto
          230 -463 -107 callgsubr
          endchar
        </CharString>
        <CharString name="amacron">
          20 210 -33 callsubr
          -15 -444 -107 callgsubr
          endchar
        </CharString>
        <CharString name="ampersand">
          83 487 213 rmoveto
          93 -5 rlineto
          65 -271 vlineto
          7 -51 80 -5 -29 -152 rlineto
          -7 -21 -47 -12 -44 hhcurveto
          -82 -50 43 66 135 83 31 120 2 hvcurveto
          6 51 rlineto
          -50 7 -49 20 65 vvcurveto
          70 45 31 56 35 26 -7 -9 25 vhcurveto
          4 -94 rlineto
          45 hlineto
          35 136 rlineto
          19 -52 -49 13 -75 hhcurveto
          -81 -108 -41 -111 -56 27 -31 40 -25 hvcurveto
          -118 -27 -65 -83 -98 vvcurveto
          -108 73 -55 127 100 82 25 22 48 vhcurveto
          endchar
        </CharString>
        <CharString name="aogonek">
          20 374 -9 callgsubr
          -20 -7 -17 hhcurveto
          -29 -17 16 29 44 41 80 74 37 hvcurveto
          -79 callgsubr
          61 312 -42 9 -25 -38 rlineto
          0 -51 15 -46 -167 -116 -137 -225 -116 56 -34 65 48 67 40 60 42 vhcurveto
          -76 callsubr
          11 11 2 3 14 vhcurveto
          -79 -63 -26 -56 -41 vvcurveto
          -38 22 -34 64 vhcurveto
          -186 295 -10 callsubr
        </CharString>
        <CharString name="approxequal">
          6 82 320 rmoveto
          40 26 22 15 29 58 64 -56 57 hhcurveto
          46 41 35 66 37 hvcurveto
          -38 22 rlineto
          -41 -26 -19 -14 -37 -59 -58 53 -62 hhcurveto
          -44 -39 -29 -69 -34 hvcurveto
          36 -172 rmoveto
          39 26 22 16 29 58 64 -55 57 hhcurveto
          46 41 33 67 37 hvcurveto
          -38 21 rlineto
          -40 -26 -19 -15 -37 -59 -58 55 -62 hhcurveto
          -44 -39 -29 -69 -34 hvcurveto
          endchar
        </CharString>
        <CharString name="aring">
          20 310 542 rmoveto
          73 47 54 67 48 -28 31 callgsubr
          60 hvcurveto
          7 40 rmoveto
          -29 -7 16 23 44 12 41 42 27 8 -16 -24 -44 -11 -40 -42 hvcurveto
          -163 -590 rmoveto
          48 67 40 60 42 hvcurveto
          -76 callsubr
          31 34 -32 callsubr
          -79 callgsubr
          61 312 -42 9 -25 -38 rlineto
          0 -51 15 -46 -167 -116 -137 -225 -116 56 -34 65 vhcurveto
          34 67 -10 callsubr
        </CharString>
        <CharString name="aringacute">
          20 315 707 -89 callgsubr
          20 -214 -70 callsubr
          96 -349 -107 callgsubr
          endchar
        </CharString>
        <CharString name="arrowdown">
          62 70 321 rmoveto
          212 -292 rlineto
          14 hlineto
          199 292 -30 32 -141 -168 13 310 rlineto
          -96 hlineto
          12 -311 -152 168 rlineto
          endchar
        </CharString>
        <CharString name="arrowleft">
          62 204 302 rmoveto
          168 141 -31 30 -292 -199 rlineto
          -14 vlineto
          292 -212 31 31 -168 152 311 -12 rlineto
          97 vlineto
          endchar
        </CharString>
        <CharString name="arrowright">
          62 224 48 rmoveto
          292 212 rlineto
          14 vlineto
          -292 199 -32 -30 168 -141 -310 14 rlineto
          -97 vlineto
          310 12 -168 -152 rlineto
          endchar
        </CharString>
        <CharString name="arrowup">
          62 495 200 rmoveto
          -212 292 rlineto
          -15 hlineto
          -198 -292 29 -31 143 168 -15 -311 rlineto
          97 hlineto
          -13 311 153 -168 rlineto
          endchar
        </CharString>
        <CharString name="asciicircum">
          -2 45 251 rmoveto
          75 hlineto
          132 268 129 -268 rlineto
          75 hlineto
          -177 360 rlineto
          -55 hlineto
          endchar
        </CharString>
        <CharString name="asciitilde">
          17 167 273 rmoveto
          57 61 -53 57 hhcurveto
          45 40 32 64 36 hvcurveto
          -38 22 rlineto
          -39 -25 -18 -14 -36 -57 -58 52 -60 hhcurveto
          -43 -39 -28 -67 -33 hvcurveto
          35 -22 rlineto
          38 26 22 15 28 hhcurveto
          endchar
        </CharString>
        <CharString name="asterisk">
          -152 116 427 rmoveto
          76 107 rlineto
          7 hlineto
          36 -107 77 50 -68 87 4 7 123 19 -9 82 -120 -55 -5 4 40 121 rlineto
          -84 hlineto
          -5 -121 -6 -3 -100 54 -41 -82 115 -19 1 -7 -103 -87 rlineto
          endchar
        </CharString>
        <CharString name="at">
          244 430 559 rmoveto
          -247 -169 -188 -192 -160 102 -101 170 97 90 25 45 82 hvcurveto
          -14 34 rlineto
          -35 -87 -77 -13 -73 hhcurveto
          -134 -70 74 127 183 138 152 194 132 77 -80 -108 -99 -56 -105 -86 -14 -6 6 17 56 66 237 1 2 hvcurveto
          6 -13 1 -9 vhcurveto
          -8 -10 -1 -2 hhcurveto
          -16 -24 rlineto
          4 -18 -32 4 -22 hhcurveto
          -139 -87 -125 -122 -73 31 -53 67 49 45 30 57 31 hvcurveto
          -2 -11 -2 -12 -11 vvcurveto
          -31 15 -22 39 151 111 127 144 123 -95 112 -200 vhcurveto
          -113 -442 rmoveto
          -29 -11 22 39 87 45 111 79 16 12 -2 -6 17 hvcurveto
          -138 -21 -42 -113 -66 hhcurveto
          endchar
        </CharString>
        <CharString name="atilde">
          20 485 683 rmoveto
          -7 callgsubr
          33 22 43 53 22 hvcurveto
          -66 -477 -107 callgsubr
          endchar
        </CharString>
        <CharString name="b">
          18 207 -8 rmoveto
          218 64 214 164 106 -47 32 -63 -49 -76 -38 -59 -45 hvcurveto
          -2 3 56 272 22 vvcurveto
          13 -7 9 -14 -33 -69 -15 -20 -57 vhcurveto
          6 -28 74 -9 -124 -631 rlineto
          -14 28 57 -21 83 hhcurveto
          13 52 rmoveto
          -29 -34 10 17 -13 hvcurveto
          97 19 35 178 1 hhcurveto
          42 29 69 52 36 hhcurveto
          34 22 -19 -64 -146 -47 -167 -122 hvcurveto
          endchar
        </CharString>
        <CharString name="backslash">
          -143 79 697 rmoveto
          -68 hlineto
          271 -835 rlineto
          69 hlineto
          endchar
        </CharString>
        <CharString name="bar">
          -131 228 697 rmoveto
          -85 -835 85 hlineto
          endchar
        </CharString>
        <CharString name="braceleft">
          -200 183 675 rmoveto
          -51 -372 -78 -36 -3 -15 65 -35 -95 -374 159 -35 17 30 -84 37 92 353 -89 31 101 32 45 353 98 37 -4 31 rlineto
          endchar
        </CharString>
        <CharString name="braceright">
          -200 -46 -192 rmoveto
          170 35 52 374 78 35 3 15 -65 36 93 372 -156 37 -17 -31 84 -37 -92 -353 89 -32 -101 -31 -46 -353 -97 -37 rlineto
          endchar
        </CharString>
        <CharString name="bracketleft">
          -200 208 -166 rmoveto
          7 38 -115 8 149 772 120 8 -28 callsubr
          -203 hlineto
          -168 -863 rlineto
          endchar
        </CharString>
        <CharString name="bracketright">
          -200 100 697 rmoveto
          -7 -37 116 -8 -150 -772 -118 -8 -8 -38 rlineto
          201 hlineto
          168 863 rlineto
          endchar
        </CharString>
        <CharString name="breve">
          -248 194 -81 callgsubr
          endchar
        </CharString>
        <CharString name="breve.case">
          -248 210 664 -100 callgsubr
          endchar
        </CharString>
        <CharString name="brokenbar">
          -122 228 697 rmoveto
          -85 -323 85 hlineto
          -190 vmoveto
          -85 -322 85 hlineto
          endchar
        </CharString>
        <CharString name="bullet">
          -28 389 348 rmoveto
          81 -66 64 -79 -81 -65 -64 -81 -80 65 -65 81 79 66 65 80 vhcurveto
          endchar
        </CharString>
        <CharString name="c">
          -107 340 449 -80 callsubr
        </CharString>
        <CharString name="cacute">
          -104 217 563 -64 callsubr
          140 -138 -34 callsubr
        </CharString>
        <CharString name="cacute.loclPLK">
          -107 254 550 -56 callgsubr
          108 -115 -80 callsubr
        </CharString>
        <CharString name="caron">
          -248 114 -67 callsubr
          -120 -88 rlineto
          endchar
        </CharString>
        <CharString name="caron.case">
          -248 117 801 -77 callgsubr
          endchar
        </CharString>
        <CharString name="ccaron">
          -104 208 -67 callsubr
          -121 -88 rlineto
          39 -187 -34 callsubr
        </CharString>
        <CharString name="ccedilla">
          -104 338 449 rmoveto
          10 -86 rlineto
          39 hlineto
          27 122 rlineto
          16 -32 -40 7 -39 hhcurveto
          -185 -87 -173 -186 -99 49 -48 72 -9 hvcurveto
          -32 -61 2 -12 rlineto
          48 15 -20 -20 -38 -38 -29 -43 -13 -12 2 5 -12 hvcurveto
          -14 32 callgsubr
          28 hhcurveto
          69 76 48 67 33 -27 26 -63 hvcurveto
          18 36 43 1 52 10 44 26 rlinecurve
          -11 39 rlineto
          -12 -35 -32 -7 -28 hhcurveto
          -67 -20 37 83 131 49 156 115 12 15 -1 -5 14 hvcurveto
          endchar
        </CharString>
        <CharString name="ccircumflex">
          -107 393 559 -90 callsubr
          32 -193 -80 callsubr
        </CharString>
        <CharString name="cdotaccent">
          -107 308 -52 callgsubr
          32 -132 -80 callsubr
        </CharString>
        <CharString name="cedilla">
          -248 6 -219 rmoveto
          -10 callgsubr
          28 52 rlineto
          -36 hlineto
          -40 -75 -24 callsubr
          endchar
        </CharString>
        <CharString name="cent">
          2 196 33 rmoveto
          -23 -122 rlineto
          53 hlineto
          23 120 48 2 55 18 46 27 rlinecurve
          -3 37 rlineto
          -14 -38 -51 -9 -48 hhcurveto
          -76 -26 47 75 136 44 168 127 25 29 -5 -7 19 hvcurveto
          7 -95 rlineto
          43 hlineto
          32 134 -30 17 -47 11 -41 1 rlinecurve
          23 121 rlineto
          -53 hlineto
          -23 -122 rlineto
          -162 -15 -92 -156 -190 vvcurveto
          -105 49 -61 90 -13 vhcurveto
          endchar
        </CharString>
        <CharString name="circumflex">
          -248 291 559 -90 callsubr
          endchar
        </CharString>
        <CharString name="circumflex.case">
          -248 323 647 -99 callgsubr
          endchar
        </CharString>
        <CharString name="colon">
          -255 140 356 rmoveto
          39 32 29 39 39 -32 33 -39 -39 -31 -33 -39 -39 31 -29 39 hvcurveto
          -57 -365 rmoveto
          39 33 30 39 41 -33 31 -39 -37 -32 -31 -41 -39 32 -30 37 hvcurveto
          endchar
        </CharString>
        <CharString name="comma">
          -318 2 -119 rmoveto
          130 228 -16 22 -97 -22 -50 -221 rlineto
          endchar
        </CharString>
        <CharString name="commaaccentInverted">
          -314 65 557 rmoveto
          80 53 callgsubr
          endchar
        </CharString>
        <CharString name="copyright">
          0 9 453 rmoveto
          -133 109 -111 134 5 callsubr
          vhcurveto
          34 hmoveto
          117 93 28 callgsubr
          -116 -93 93 118 vhcurveto
          305 -139 rmoveto
          -4 59 rlineto
          -27 hlineto
          -13 -42 rlineto
          -4 -17 -12 -2 -14 hhcurveto
          -71 -13 65 64 74 15 55 71 13 12 -2 -4 16 hvcurveto
          12 -47 rlineto
          26 hlineto
          6 69 rlineto
          9 -31 -30 6 -32 hhcurveto
          -104 -40 -69 -91 -97 37 -62 107 38 26 6 13 29 hvcurveto
          endchar
        </CharString>
        <CharString name="currency">
          50 50 79 rmoveto
          37 -50 66 54 rlineto
          -23 28 38 -13 44 hhcurveto
          43 43 12 24 38 hvcurveto
          43 -53 57 50 -43 51 rlineto
          39 42 25 58 54 vvcurveto
          29 -7 27 -11 25 vhcurveto
          63 53 -39 48 -63 -53 rlineto
          24 -28 -39 14 -43 hhcurveto
          -44 -42 -14 -24 -38 hvcurveto
          -42 54 -59 -49 43 -53 rlineto
          -39 -44 -25 -55 -58 vvcurveto
          -28 6 -27 12 -23 vhcurveto
          56 117 rmoveto
          75 14 71 60 74 hhcurveto
          65 46 -47 -63 -84 -81 -74 -82 -65 -45 46 61 9 1 9 2 8 hvcurveto
          endchar
        </CharString>
        <CharString name="d">
          17 -92 callgsubr
          47 68 -55 callsubr
        </CharString>
        <CharString name="dagger">
          -56 211 hmoveto
          62 435 126 -20 18 95 -133 -19 44 131 rlineto
          -97 hlineto
          -6 -131 -125 19 -18 -95 133 20 -109 -435 rlineto
          endchar
        </CharString>
        <CharString name="daggerdbl">
          -54 131 hmoveto
          96 hlineto
          7 132 126 -19 18 94 -134 -20 49 125 rlineto
          123 vlineto
          126 -20 19 95 -133 -19 43 131 rlineto
          -96 hlineto
          -7 -131 -124 19 -19 -95 133 20 -49 -123 rlineto
          -125 vlineto
          -125 20 -18 -94 132 19 rlineto
          endchar
        </CharString>
        <CharString name="dcaron">
          65 -92 callgsubr
          432 535 rmoveto
          28 hlineto
          40 188 -55 16 rlineto
          -29 hlineto
          -369 -671 -55 callsubr
        </CharString>
        <CharString name="dcroat">
          18 143 -9 rmoveto
          54 80 42 58 42 hvcurveto
          0 -6 -47 -8 vvcurveto
          -29 15 -16 36 30 35 -32 callsubr
          35 -78 vlineto
          3 42 7 47 12 63 67 373 rcurveline
          70 50 -60 hlineto
          6 32 7 42 7 vvcurveto
          12 -7 8 -13 -33 -60 -5 -19 -65 vhcurveto
          6 -29 76 -8 -8 -40 rlineto
          -159 -50 148 hlineto
          -16 -79 rlineto
          4 -20 -21 4 -31 hhcurveto
          -158 -124 -134 -240 -110 51 -33 59 hvcurveto
          47 68 -55 callsubr
        </CharString>
        <CharString name="degree">
          -53 383 558 rmoveto
          86 -71 71 -87 -87 -71 -71 -86 -88 71 -69 87 87 71 69 88 vhcurveto
          -158 118 rmoveto
          65 38 -53 -65 -66 -38 -52 -65 -66 -37 52 66 65 37 53 66 hvcurveto
          endchar
        </CharString>
        <CharString name="dieresis">
          -248 164 -60 callgsubr
          -30 -28 -34 -34 30 21 callsubr
          endchar
        </CharString>
        <CharString name="dieresis.case">
          -248 180 724 -94 callgsubr
          endchar
        </CharString>
        <CharString name="divide">
          15 259 384 rmoveto
          33 28 27 33 33 -28 28 -33 -33 -28 -28 -33 -33 28 -27 33 hvcurveto
          -196 -108 rmoveto
          393 61 -393 hlineto
          196 -229 rmoveto
          33 28 26 33 35 -28 26 -33 -33 -28 -26 -35 -33 28 -26 33 hvcurveto
          endchar
        </CharString>
        <CharString name="dollar">
          -6 154 -117 rmoveto
          48 hlineto
          22 121 rlineto
          133 16 71 80 114 vvcurveto
          56 -26 34 -49 21 vhcurveto
          -94 42 rlineto
          -44 19 -26 21 40 vvcurveto
          79 63 36 75 22 42 -4 -5 15 vhcurveto
          4 -93 rlineto
          39 hlineto
          33 127 -41 14 -44 10 -45 2 rlinecurve
          19 101 rlineto
          -48 hlineto
          -19 -101 rlineto
          -123 -8 -82 -80 -124 vvcurveto
          -60 30 -28 44 -19 vhcurveto
          96 -41 rlineto
          45 -20 22 -25 -38 vvcurveto
          -69 -57 -48 -88 -40 -37 8 6 -21 vhcurveto
          -1 83 rlineto
          -41 hlineto
          -34 -118 43 -19 60 -10 56 -1 rlinecurve
          endchar
        </CharString>
        <CharString name="dotaccent">
          -248 204 -52 callgsubr
          endchar
        </CharString>
        <CharString name="dotaccent.case">
          -248 287 -42 callsubr
          endchar
        </CharString>
        <CharString name="dotbelowcomb">
          -503 -196 -41 -102 callgsubr
        </CharString>
        <CharString name="dotlessi">
          -206 237 486 -96 callgsubr
          endchar
        </CharString>
        <CharString name="e">
          -87 313 508 -107 callsubr
          endchar
        </CharString>
        <CharString name="eacute">
          -78 226 563 -48 callgsubr
          106 -79 -107 callsubr
          endchar
        </CharString>
        <CharString name="ebreve">
          -87 272 -81 callgsubr
          41 -76 -107 callsubr
          endchar
        </CharString>
        <CharString name="ecaron">
          -89 207 723 rmoveto
          -31 -20 77 -144 rlineto
          20 callsubr
          rlineto
          15 -128 -107 callsubr
          endchar
        </CharString>
        <CharString name="ecircumflex">
          -89 395 559 rmoveto
          30 -78 callsubr
          23 -22 120 83 rlineto
          2 -134 -107 callsubr
          endchar
        </CharString>
        <CharString name="edieresis">
          -89 256 -60 callgsubr
          -29 -28 -34 29 callsubr
          -149 -136 -107 callsubr
          endchar
        </CharString>
        <CharString name="edotaccent">
          -89 304 708 rmoveto
          0 callgsubr
          -1 callsubr
          hvcurveto
          9 -200 -107 callsubr
          endchar
        </CharString>
        <CharString name="egrave">
          -89 382 563 -68 callsubr
          150 -160 -107 callsubr
          endchar
        </CharString>
        <CharString name="eight">
          -58 callsubr
        </CharString>
        <CharString name="eight.dnom">
          -98 156 -8 -96 callsubr
        </CharString>
        <CharString name="eight.numr">
          -98 156 163 rmoveto
          111 71 63 80 46 -38 28 -43 25 hvcurveto
          90 36 23 49 42 vvcurveto
          44 -37 35 -82 -115 -50 -67 -66 -40 23 -26 33 -23 vhcurveto
          -65 -29 -46 -49 -64 vvcurveto
          -44 29 -40 96 vhcurveto
          64 263 rmoveto
          -33 19 -23 27 27 vvcurveto
          41 35 28 43 35 19 -19 -28 -43 -27 -28 -49 -24 vhcurveto
          -56 -220 rmoveto
          -34 -26 13 36 51 35 37 36 23 hvcurveto
          12 -6 rlineto
          33 -16 31 -26 -36 vvcurveto
          -50 -41 -26 -46 vhcurveto
          endchar
        </CharString>
        <CharString name="eight.osf">
          -58 callsubr
        </CharString>
        <CharString name="ellipsis">
          68 28 51 rmoveto
          -33 26 48 callgsubr
          -26 -26 -35 vhcurveto
          185 hmoveto
          -33 27 48 callgsubr
          -27 -26 -35 vhcurveto
          187 hmoveto
          -33 26 -27 33 33 29 27 33 35 -29 26 -33 -33 -26 -26 -35 vhcurveto
          endchar
        </CharString>
        <CharString name="emacron">
          -89 192 -33 callsubr
          -103 -142 -107 callsubr
          endchar
        </CharString>
        <CharString name="emdash">
          337 830 209 rmoveto
          7 57 rlineto
          -831 hlineto
          -6 -57 rlineto
          endchar
        </CharString>
        <CharString name="endash">
          223 719 209 rmoveto
          6 57 rlineto
          -717 hlineto
          -7 -57 rlineto
          endchar
        </CharString>
        <CharString name="eng">
          63 441 509 rmoveto
          -55 -93 -46 -68 -66 hvcurveto
          4 19 11 56 12 vvcurveto
          15 -8 10 -14 -35 -69 -17 -19 -56 -40 callsubr
          -87 -47 callsubr
          -35 -20 -99 -55 -276 hvcurveto
          -83 -17 -38 -24 -57 hhcurveto
          -26 -27 5 7 -22 hvcurveto
          -10 -42 rlineto
          -13 23 41 -17 52 hhcurveto
          96 58 59 99 20 hvcurveto
          58 288 25 127 44 vvcurveto
          44 -21 20 -41 vhcurveto
          endchar
        </CharString>
        <CharString name="eogonek">
          -89 232 11 callsubr
          53 50 79 59 35 hvcurveto
          8 5 -9 37 rlineto
          -10 -27 -31 -8 -27 hhcurveto
          -87 -27 30 84 24 2 23 5 28 hvcurveto
          186 101 66 106 66 -49 32 -62 -200 -81 -184 -165 -119 57 -49 103 16 16 1 3 16 hvcurveto
          -61 -55 -33 -54 -50 vvcurveto
          -38 23 -34 63 vhcurveto
          -87 514 rmoveto
          111 22 51 64 71 hhcurveto
          35 12 -24 -28 -80 -75 -43 -116 hvcurveto
          endchar
        </CharString>
        <CharString name="equal">
          15 61 359 rmoveto
          392 61 -392 hlineto
          -228 vmoveto
          392 60 -392 hlineto
          endchar
        </CharString>
        <CharString name="estimated">
          187 154 289 rmoveto
          505 14 hlineto
          176 -140 140 -176 -174 -141 -140 -176 -174 141 -141 174 103 108 53 78 49 vhcurveto
          -56 hlineto
          -61 -50 -71 -34 -82 hhcurveto
          -75 -63 30 54 -50 hvcurveto
          -3 4 -4 7 8 vvcurveto
          159 vlineto
          2 3 1 2 vhcurveto
          383 193 rmoveto
          -155 vlineto
          -2 -1 -2 -2 vhcurveto
          -380 hlineto
          -2 -3 2 2 hvcurveto
          152 vlineto
          8 4 7 4 6 vhcurveto
          51 45 60 32 82 hhcurveto
          89 51 -28 -53 46 hvcurveto
          4 -5 3 -7 -8 vvcurveto
          endchar
        </CharString>
        <CharString name="eth">
          -4 182 -9 rmoveto
          154 110 114 195 18 hvcurveto
          1 14 2 12 13 vvcurveto
          23 vlineto
          -2 84 -35 92 -60 83 85 55 rcurveline
          -25 39 -88 -56 -27 32 -31 30 -33 28 rlinecurve
          -31 -29 28 -32 24 -31 19 -30 rlinecurve
          -90 -57 25 -41 89 57 14 -26 11 -27 9 -28 rlinecurve
          2 -11 -10 1 -12 hhcurveto
          -16 callgsubr
        </CharString>
        <CharString name="exclam">
          -258 78 187 rmoveto
          55 hlineto
          113 425 rlineto
          -116 hlineto
          -48 -621 rmoveto
          34 27 27 33 34 -27 27 -34 -33 -27 -27 -34 -33 27 -27 33 hvcurveto
          endchar
        </CharString>
        <CharString name="exclamdown">
          -258 160 384 rmoveto
          34 25 26 33 34 -25 27 -34 -33 -29 -27 -34 -33 29 -26 33 hvcurveto
          -166 -504 rmoveto
          116 hlineto
          52 425 rlineto
          -55 hlineto
          endchar
        </CharString>
        <CharString name="f">
          -201 -22 -172 rmoveto
          -74 callsubr
          endchar
        </CharString>
        <CharString name="f_f">
          101 -22 -172 rmoveto
          -74 callsubr
          302 hmoveto
          -74 callsubr
          endchar
        </CharString>
        <CharString name="fi">
          70 -19 -172 rmoveto
          106 50 59 100 17 hvcurveto
          77 448 rlineto
          185 hlineto
          -28 -142 -53 -232 -24 vvcurveto
          -32 16 -14 37 29 42 8 20 54 vhcurveto
          -37 callgsubr
          252 15 vvcurveto
          13 -7 9 -13 vhcurveto
          -254 47 callgsubr
          12 -3 -4 20 hvcurveto
          13 52 rlineto
          15 -24 -33 7 -35 hhcurveto
          -123 -36 -13 callgsubr
          518 755 rmoveto
          34 30 28 34 34 -30 29 -34 -34 -29 -29 -34 -34 29 -28 34 hvcurveto
          endchar
        </CharString>
        <CharString name="five">
          -6 466 612 rmoveto
          -312 hlineto
          -71 -253 8 -24 rlineto
          156 72 -32 -89 -102 -87 -65 -110 -42 -21 2 8 -41 hvcurveto
          -10 -56 rlineto
          -10 41 41 -1 41 hhcurveto
          182 110 98 138 81 -40 86 -224 2 hvcurveto
          38 146 rlineto
          256 hlineto
          endchar
        </CharString>
        <CharString name="five.dnom">
          -98 376 437 rmoveto
          -236 hlineto
          -55 -198 15 -18 rlineto
          100 55 -18 -57 -67 -54 -40 -68 -32 -27 5 13 -36 hvcurveto
          -16 -43 42 callsubr
          51 -31 55 39 callsubr
        </CharString>
        <CharString name="five.numr">
          -98 376 603 -26 callsubr
          endchar
        </CharString>
        <CharString name="five.osf">
          -5 449 524 rmoveto
          -312 hlineto
          -70 -252 8 -24 rlineto
          158 69 -33 -90 -100 -84 -67 -124 -19 -32 2 7 -42 hvcurveto
          -10 -53 rlineto
          -9 38 46 -5 39 hhcurveto
          183 110 101 136 83 -40 86 -225 2 hvcurveto
          39 146 rlineto
          255 hlineto
          endchar
        </CharString>
        <CharString name="fiveeighths">
          456 351 20 callgsubr
          -182 -19 -26 callsubr
          345 -561 -96 callsubr
        </CharString>
        <CharString name="fl">
          77 -19 -172 rmoveto
          106 50 59 100 17 hvcurveto
          77 448 rlineto
          110 58 -100 47 callgsubr
          37 -4 -5 28 hvcurveto
          -36 -192 -50 -275 -15 -77 rrcurveto
          -4 -21 -9 -41 -9 vvcurveto
          -32 17 -16 36 27 47 9 20 58 vhcurveto
          35 -86 vlineto
          34 187 71 387 8 52 rrcurveto
          2 10 1 11 7 vvcurveto
          10 -3 11 -16 -23 -30 -18 -10 -15 vhcurveto
          15 -34 -58 13 -32 hhcurveto
          -126 -35 -13 callgsubr
          endchar
        </CharString>
        <CharString name="florin">
          -47 32 -173 rmoveto
          65 69 40 95 17 hvcurveto
          64 365 rlineto
          139 hlineto
          8 47 rlineto
          -138 hlineto
          136 18 38 54 58 hhcurveto
          13 17 -2 -3 9 hvcurveto
          14 -68 rlineto
          37 hlineto
          15 104 rlineto
          13 -37 -35 9 -43 hhcurveto
          -99 -62 -77 -166 -25 hvcurveto
          -91 hlineto
          -10 -47 rlineto
          92 hlineto
          -57 -327 rlineto
          -81 -15 -30 -36 -43 hhcurveto
          -67 1 -9 -32 rlineto
          -15 25 37 -10 26 hhcurveto
          endchar
        </CharString>
        <CharString name="four">
          -6 243 hmoveto
          90 hlineto
          24 131 rlineto
          78 hlineto
          11 63 rlineto
          -79 hlineto
          75 419 -72 8 -379 -445 53 callsubr
          247 289 -52 -289 rlineto
          endchar
        </CharString>
        <CharString name="four.dnom">
          -98 207 hmoveto
          8 callgsubr
          50 rlineto
          -60 hlineto
          57 289 -63 6 -289 -310 5 -35 rlineto
          202 hlineto
          -126 50 50 callgsubr
        </CharString>
        <CharString name="four.numr">
          -98 207 171 rmoveto
          8 callgsubr
          51 rlineto
          -60 hlineto
          56 288 -62 7 -289 -310 5 -36 rlineto
          202 hlineto
          -126 51 50 callgsubr
        </CharString>
        <CharString name="four.osf">
          -6 225 -90 rmoveto
          91 hlineto
          23 134 rlineto
          78 hlineto
          12 63 rlineto
          -79 hlineto
          75 418 -72 8 -379 -444 53 callsubr
          246 289 -51 -289 rlineto
          endchar
        </CharString>
        <CharString name="fraction">
          -283 -33 20 callgsubr
          endchar
        </CharString>
        <CharString name="g">
          2 130 -179 -97 callsubr
        </CharString>
        <CharString name="g_tilde.loclGUA">
          -11 399 587 rmoveto
          32 23 43 53 22 hvcurveto
          -7 callgsubr
          -275 -766 -81 callsubr
        </CharString>
        <CharString name="gbreve">
          -11 312 584 26 callgsubr
          13 hvcurveto
          -40 hlineto
          -31 -6 -19 -31 -68 hhcurveto
          -55 -10 21 24 -1 8 callsubr
          -41 hlineto
          -3 -10 -3 -14 -10 vvcurveto
          -49 23 -39 79 vhcurveto
          -188 -763 -81 callsubr
        </CharString>
        <CharString name="gcaron">
          2 234 -67 callsubr
          -120 -88 rlineto
          -196 -815 -97 callsubr
        </CharString>
        <CharString name="gcircumflex">
          2 415 559 -90 callsubr
          -200 -821 -97 callsubr
        </CharString>
        <CharString name="gcommaaccent">
          -11 281 557 rmoveto
          81 53 callgsubr
          -141 -756 -81 callsubr
        </CharString>
        <CharString name="gdotaccent">
          2 330 -52 callgsubr
          -200 -760 -97 callsubr
        </CharString>
        <CharString name="germandbls">
          120 397 -9 rmoveto
          115 74 59 89 hvcurveto
          134 -167 5 92 81 130 9 115 vvcurveto
          80 -61 48 -102 -126 -78 -72 -140 -30 vhcurveto
          -75 12 callsubr
          89 462 rlineto
          92 17 35 37 67 hhcurveto
          56 30 -27 -48 hvcurveto
          -100 -130 -21 -108 -123 171 -6 -98 vvcurveto
          -43 -37 -26 -59 -18 -18 3 5 -25 vhcurveto
          79 -34 vlineto
          -37 -120 rlineto
          -12 31 52 -9 46 hhcurveto
          endchar
        </CharString>
        <CharString name="grave">
          -248 303 563 -68 callsubr
          endchar
        </CharString>
        <CharString name="grave.case">
          -248 319 646 -68 callsubr
          endchar
        </CharString>
        <CharString name="gravecomb">
          -503 64 646 -68 callsubr
          endchar
        </CharString>
        <CharString name="greater">
          15 98 113 rmoveto
          361 193 -361 193 -33 -56 271 -137 -271 -138 rlineto
          endchar
        </CharString>
        <CharString name="greaterequal">
          6 94 116 rmoveto
          362 190 -362 190 -33 -55 271 -135 -271 -136 rlineto
          -3 -149 36 callsubr
        </CharString>
        <CharString name="guillemotleft">
          -94 35 245 rmoveto
          102 -177 47 callsubr
          rlineto
          93 -356 rmoveto
          47 callsubr
          -171 -179 rlineto
          endchar
        </CharString>
        <CharString name="guillemotright">
          -94 40 68 rmoveto
          172 178 -102 178 -46 -26 52 -152 -111 -151 rlineto
          197 -27 rmoveto
          171 178 -101 178 -45 -26 50 -152 -109 -151 rlineto
          endchar
        </CharString>
        <CharString name="guilsinglleft">
          -246 36 245 rmoveto
          102 -177 45 26 -50 151 109 152 -35 27 rlineto
          endchar
        </CharString>
        <CharString name="guilsinglright">
          -246 131 424 rmoveto
          -45 -26 51 -152 -110 -151 35 -27 171 178 rlineto
          endchar
        </CharString>
        <CharString name="h">
          51 41 -9 -74 callgsubr
          15 78 41 222 12 vvcurveto
          14 -5 10 -15 -34 -68 -15 -21 -57 vhcurveto
          5 -28 75 -9 rlineto
          endchar
        </CharString>
        <CharString name="hbar">
          51 41 -9 -74 callgsubr
          7 40 15 77 13 68 rrcurveto
          134 hlineto
          10 50 rlineto
          -136 hlineto
          6 32 8 42 7 vvcurveto
          12 -7 8 -13 -33 -60 -5 -19 -66 vhcurveto
          6 -29 76 -8 -8 -40 rlineto
          -84 hlineto
          -9 -50 rlineto
          83 hlineto
          endchar
        </CharString>
        <CharString name="hcircumflex">
          51 345 736 -99 callgsubr
          -206 -825 -74 callgsubr
          15 78 41 222 12 vvcurveto
          14 -5 10 -15 -34 -68 -15 -21 -57 vhcurveto
          5 -28 75 -9 rlineto
          endchar
        </CharString>
        <CharString name="hookabovecomb">
          -503 -100 553 -106 callgsubr
          endchar
        </CharString>
        <CharString name="hungarumlaut">
          -248 59 550 -56 callgsubr
          183 -14 -56 callgsubr
          endchar
        </CharString>
        <CharString name="hungarumlaut.case">
          -248 78 -25 callgsubr
          -87 -153 rlineto
          endchar
        </CharString>
        <CharString name="hyphen">
          -222 270 209 rmoveto
          7 57 rlineto
          -264 hlineto
          -7 -57 rlineto
          endchar
        </CharString>
        <CharString name="i">
          -208 -19 callsubr
          22 -222 -49 callsubr
          endchar
        </CharString>
        <CharString name="i.loclTRK">
          -206 226 -52 callgsubr
          11 -95 -96 callgsubr
          endchar
        </CharString>
        <CharString name="iacute">
          -206 102 563 -48 callgsubr
          28 -596 -67 callgsubr
        </CharString>
        <CharString name="iacute_j.loclNLD">
          75 131 563 -89 callgsubr
          308 -24 -89 callgsubr
          -164 -101 -96 callgsubr
          303 -1 rmoveto
          -88 callgsubr
          15 callgsubr
          vhcurveto
          -23 callsubr
          endchar
        </CharString>
        <CharString name="ibreve">
          -206 213 -81 callgsubr
          24 -98 -96 callgsubr
          endchar
        </CharString>
        <CharString name="icircumflex">
          -206 72 559 rmoveto
          114 83 77 -83 29 19 -62 140 rlineto
          -67 hlineto
          -113 -137 rlineto
          61 -590 -67 callgsubr
        </CharString>
        <CharString name="idieresis">
          -206 153 644 rmoveto
          34 -29 -37 callsubr
          33 29 26 34 vhcurveto
          180 hmoveto
          34 -30 28 -32 -34 44 callsubr
          34 32 -14 callsubr
          -96 -158 -96 callgsubr
          endchar
        </CharString>
        <CharString name="igrave">
          -206 259 4 callsubr
          72 -677 -67 callgsubr
        </CharString>
        <CharString name="ij">
          55 -19 callsubr
          279 -125 -47 callgsubr
          -257 -97 -49 callsubr
          18 -658 rmoveto
          15 callgsubr
          hvcurveto
          -23 callsubr
          -88 callgsubr
          vhcurveto
          endchar
        </CharString>
        <CharString name="imacron">
          -206 72 -33 callsubr
          -59 -164 -96 callgsubr
          endchar
        </CharString>
        <CharString name="infinity">
          206 354 350 rmoveto
          40 -29 -54 56 -79 hhcurveto
          -121 -26 -84 -57 -57 26 -84 121 79 54 57 39 29 hvcurveto
          -39 30 53 -57 80 hhcurveto
          120 27 83 58 58 -27 83 -120 -80 -53 -56 -40 -30 hvcurveto
          -244 -45 rmoveto
          32 10 50 71 62 46 -54 -28 22 vhcurveto
          -27 -23 -45 -55 -62 hhcurveto
          -71 -10 50 32 hvcurveto
          490 hmoveto
          -32 -11 -50 -71 -64 -45 55 27 -22 vhcurveto
          28 23 44 54 64 hhcurveto
          71 11 -50 -32 hvcurveto
          endchar
        </CharString>
        <CharString name="integral">
          -100 121 -134 rmoveto
          79 53 44 89 hvcurveto
          601 vlineto
          44 22 15 22 12 11 -4 -6 8 vhcurveto
          12 -64 rlineto
          37 hlineto
          13 90 rlineto
          17 -19 -47 9 -25 hhcurveto
          -79 -52 -44 -89 hvcurveto
          -601 vlineto
          -45 -23 -15 -22 -12 -11 4 7 -8 vhcurveto
          -12 62 rlineto
          -37 hlineto
          -13 -89 rlineto
          -16 20 47 -9 24 hhcurveto
          endchar
        </CharString>
        <CharString name="iogonek">
          -206 221 708 rmoveto
          -34 -29 -29 -34 -34 29 -28 34 34 29 28 34 34 -29 29 -34 hvcurveto
          22 -222 rmoveto
          14 -7 8 -13 -29 -70 -15 -20 -62 46 callsubr
          -8 rlineto
          -28 -141 -52 -233 -24 vvcurveto
          -32 16 -14 37 11 14 1 4 16 vhcurveto
          -80 -62 -24 -56 -42 -27 callsubr
          -28 -17 16 29 43 39 78 74 40 hvcurveto
          -41 callgsubr
          57 268 14 vvcurveto
          endchar
        </CharString>
        <CharString name="itilde">
          -206 245 587 rmoveto
          32 23 43 53 22 hvcurveto
          -35 -30 callgsubr
          -24 vhcurveto
          -36 -59 39 -39 hhcurveto
          -33 35 callgsubr
          60 -39 39 hhcurveto
          -134 -596 -67 callgsubr
        </CharString>
        <CharString name="j">
          -222 217 -13 callsubr
          -239 -755 rmoveto
          15 callgsubr
          hvcurveto
          -23 callsubr
          -88 callgsubr
          vhcurveto
          endchar
        </CharString>
        <CharString name="jcircumflex">
          -222 303 559 -90 callsubr
          25 -157 rmoveto
          -88 callgsubr
          15 callgsubr
          vhcurveto
          -23 callsubr
          endchar
        </CharString>
        <CharString name="k">
          4 148 6 rmoveto
          57 331 -56 callsubr
          -102 -69 -44 -33 vhcurveto
          25 140 30 152 20 vvcurveto
          13 -4 10 -17 -32 -67 -14 -21 -60 vhcurveto
          6 -29 75 -9 -131 -666 rlineto
          endchar
        </CharString>
        <CharString name="kcommaaccent">
          -3 41 -9 rmoveto
          107 15 57 331 -56 callsubr
          -102 -69 -44 -33 vhcurveto
          25 140 30 152 20 vvcurveto
          13 -4 10 -17 -32 -67 -14 -21 -60 vhcurveto
          6 -29 74 -9 rlineto
          -4 -882 rmoveto
          103 43 callgsubr
        </CharString>
        <CharString name="kgreenlandic">
          15 159 5 rmoveto
          57 332 -56 callsubr
          -101 -69 -44 -34 vhcurveto
          7 40 8 29 19 vvcurveto
          13 -5 11 -16 -32 -72 -15 -21 -57 -40 callsubr
          -87 -443 rlineto
          endchar
        </CharString>
        <CharString name="l">
          -207 106 -9 -84 callgsubr
          endchar
        </CharString>
        <CharString name="lacute">
          -205 108 727 rmoveto
          221 97 1 19 -82 34 -158 -126 rlineto
          17 -760 -84 callgsubr
          endchar
        </CharString>
        <CharString name="lcaron">
          -189 107 -9 -84 callgsubr
          211 535 19 callsubr
          endchar
        </CharString>
        <CharString name="lcommaaccent">
          -205 107 -9 -84 callgsubr
          -44 -216 rmoveto
          103 43 callgsubr
        </CharString>
        <CharString name="ldot">
          -207 106 -9 -84 callgsubr
          281 438 -11 callsubr
        </CharString>
        <CharString name="less">
          15 415 113 rmoveto
          33 55 -271 138 271 137 -33 56 -362 -193 rlineto
          endchar
        </CharString>
        <CharString name="lessequal">
          6 416 115 rmoveto
          33 55 -272 136 272 135 -33 55 -362 -190 rlineto
          5 -285 36 callsubr
        </CharString>
        <CharString name="logicalnot">
          26 404 131 rmoveto
          57 206 -393 -61 336 hlineto
          endchar
        </CharString>
        <CharString name="longs">
          -195 344 730 rmoveto
          -119 -33 -49 -190 -39 hvcurveto
          -76 12 callsubr
          96 497 rlineto
          89 17 21 23 69 hhcurveto
          26 24 -4 -8 28 hvcurveto
          14 50 rlineto
          16 -33 -45 13 -34 hhcurveto
          endchar
        </CharString>
        <CharString name="lozenge">
          -12 219 -1 rmoveto
          55 hlineto
          175 306 -175 306 rlineto
          -55 hlineto
          -176 -306 rlineto
          203 -223 rmoveto
          -128 223 128 223 126 -223 rlineto
          endchar
        </CharString>
        <CharString name="lslash">
          -203 213 370 rmoveto
          112 55 -23 45 -78 -38 47 254 rlineto
          2 9 0 7 5 vvcurveto
          12 -5 11 -16 -34 -72 -15 -22 -58 vhcurveto
          7 -28 75 -10 -51 -275 -114 -56 21 -45 81 40 rlineto
          -30 -155 -21 -112 -13 vvcurveto
          -32 17 -16 36 27 47 9 20 58 vhcurveto
          35 -86 vlineto
          endchar
        </CharString>
        <CharString name="m">
          296 53 -9 rmoveto
          107 15 56 330 rlineto
          47 39 70 51 39 hhcurveto
          19 2 -10 -24 -23 -49 -221 -33 -165 hvcurveto
          107 15 60 334 rlineto
          45 38 69 49 38 hhcurveto
          19 2 -10 -22 hvcurveto
          -38 -73 -283 -33 vvcurveto
          -45 29 -12 39 31 40 11 17 39 vhcurveto
          35 -83 vlineto
          28 129 50 228 34 vvcurveto
          45 -13 18 -40 -57 -91 -52 -57 -54 vhcurveto
          4 19 2 20 8 vvcurveto
          42 -17 20 -36 -61 -94 -55 -59 -53 vhcurveto
          4 19 9 55 13 vvcurveto
          10 -4 15 -15 -32 -71 -16 -20 -56 7 callgsubr
          endchar
        </CharString>
        <CharString name="macron">
          -248 92 -33 callsubr
          endchar
        </CharString>
        <CharString name="macron.case">
          -248 101 747 -30 callsubr
          endchar
        </CharString>
        <CharString name="minus">
          6 59 276 rmoveto
          392 61 -392 hlineto
          endchar
        </CharString>
        <CharString name="multiply">
          15 123 133 rmoveto
          132 132 132 -131 42 44 -132 130 132 131 -44 43 -130 -130 -131 131 -44 -43 132 -132 -132 -131 rlineto
          endchar
        </CharString>
        <CharString name="n">
          63 227 395 -90 callgsubr
          endchar
        </CharString>
        <CharString name="nacute">
          63 275 563 -64 callsubr
          -28 -192 rmoveto
          -29 callsubr
          -88 -443 -73 callgsubr
          endchar
        </CharString>
        <CharString name="nacute.loclPLK">
          63 307 550 -56 callgsubr
          -58 -169 -90 callgsubr
          endchar
        </CharString>
        <CharString name="napostrophe">
          97 194 526 19 callsubr
          49 -335 -90 callgsubr
          endchar
        </CharString>
        <CharString name="ncaron">
          63 251 -67 callsubr
          -121 -88 rlineto
          -114 -241 rmoveto
          -29 callsubr
          -88 -443 -73 callgsubr
          endchar
        </CharString>
        <CharString name="ncommaaccent">
          63 53 -9 rmoveto
          -73 callgsubr
          -29 callsubr
          rlineto
          57 -659 -38 callsubr
          -36 24 callsubr
        </CharString>
        <CharString name="nine">
          -6 55 -16 rmoveto
          202 5 211 163 292 vvcurveto
          102 -59 82 -114 -188 -55 -155 -73 -99 36 -65 110 64 50 25 28 37 vhcurveto
          -36 -135 -112 -108 -153 -20 rrcurveto
          188 272 rmoveto
          -57 -26 43 66 93 43 71 80 68 27 -40 -81 -33 -3 -37 -7 -33 hvcurveto
          -19 -28 -48 -30 -49 hhcurveto
          endchar
        </CharString>
        <CharString name="nine.dnom">
          -98 38 7 rmoveto
          27 55 callgsubr
          36 180 rrcurveto
          5 24 3 25 24 vvcurveto
          71 -29 61 -96 -168 -22 -137 -36 -59 32 -46 76 30 35 8 17 39 vhcurveto
          -24 -95 -61 -45 -66 -5 -23 -2 -26 2 -26 7 rrcurveto
          156 166 rmoveto
          -37 -20 20 42 54 callgsubr
          -28 -7 -31 hvcurveto
          -17 -26 -31 -12 -25 hhcurveto
          endchar
        </CharString>
        <CharString name="nine.numr">
          -98 38 178 rmoveto
          25 -9 30 -5 36 1 92 6 112 55 36 182 rrcurveto
          5 23 3 25 23 vvcurveto
          72 -29 60 -96 -168 -22 -137 -36 -58 32 -45 76 30 35 6 18 39 vhcurveto
          -25 -98 -64 -44 -67 -5 -21 -1 -25 2 -25 7 rrcurveto
          157 166 rmoveto
          -37 -20 21 42 64 38 52 55 38 18 -22 -45 -22 -3 -29 -7 -31 hvcurveto
          -18 -26 -31 -12 -25 hhcurveto
          endchar
        </CharString>
        <CharString name="nine.osf">
          -5 37 -100 rmoveto
          203 1 210 182 247 vvcurveto
          128 -57 77 -126 -174 -59 -143 -93 -88 50 -67 103 56 45 20 33 43 vhcurveto
          -36 -131 -112 -106 -153 -19 rrcurveto
          188 265 rmoveto
          -57 -26 41 71 89 41 72 85 65 27 -42 -82 -29 -3 -38 -7 -33 hvcurveto
          -18 -27 -49 -31 -49 hhcurveto
          endchar
        </CharString>
        <CharString name="notequal">
          6 159 81 rmoveto
          64 111 rlineto
          228 60 -193 hlineto
          63 107 rlineto
          130 61 -96 hlineto
          48 82 -52 31 -65 -113 rlineto
          -227 -61 192 hlineto
          -63 -107 rlineto
          -129 -60 94 hlineto
          -46 -81 rlineto
          endchar
        </CharString>
        <CharString name="ntilde">
          63 505 683 rmoveto
          4 callgsubr
          22 vhcurveto
          14 callsubr
          22 hvcurveto
          -277 -288 rmoveto
          -29 callsubr
          -88 -443 -73 callgsubr
          endchar
        </CharString>
        <CharString name="numbersign">
          62 402 226 rmoveto
          29 104 rlineto
          113 hlineto
          17 60 rlineto
          -113 hlineto
          48 174 rlineto
          -64 hlineto
          -48 -174 rlineto
          -132 hlineto
          50 174 rlineto
          -63 hlineto
          -49 -174 rlineto
          -125 hlineto
          -16 -60 rlineto
          124 hlineto
          -29 -104 rlineto
          -123 hlineto
          -17 -60 rlineto
          125 hlineto
          -49 -175 rlineto
          63 hlineto
          48 175 rlineto
          132 hlineto
          -49 -175 rlineto
          64 hlineto
          48 175 rlineto
          113 hlineto
          18 60 rlineto
          -310 hmoveto
          29 104 rlineto
          133 hlineto
          -29 -104 rlineto
          endchar
        </CharString>
        <CharString name="o">
          -4 316 508 -105 callsubr
          endchar
        </CharString>
        <CharString name="oacute">
          -4 232 563 -89 callgsubr
          103 -79 -105 callsubr
          endchar
        </CharString>
        <CharString name="oacute.loclPLK">
          -4 273 550 -56 callgsubr
          65 -56 -105 callsubr
          endchar
        </CharString>
        <CharString name="obreve">
          -4 314 -81 callgsubr
          2 -76 -105 callsubr
          endchar
        </CharString>
        <CharString name="ocircumflex">
          -4 418 13 callgsubr
          -18 -134 -105 callsubr
          endchar
        </CharString>
        <CharString name="odieresis">
          -4 287 -60 callgsubr
          -29 -28 -34 29 callsubr
          -177 -136 -105 callsubr
          endchar
        </CharString>
        <CharString name="oe">
          231 182 -9 rmoveto
          73 65 27 49 48 hvcurveto
          -52 24 47 -24 72 hhcurveto
          57 48 16 23 41 hvcurveto
          -9 37 rlineto
          -10 -27 -31 -8 -27 hhcurveto
          -87 -27 30 84 24 2 20 5 31 hvcurveto
          186 101 66 106 66 -49 32 -62 -78 -59 -29 -45 -44 hvcurveto
          47 -20 -43 27 -72 hhcurveto
          -166 -118 -134 -231 -97 47 -55 103 hvcurveto
          22 54 rmoveto
          -56 -16 37 57 126 39 188 125 55 16 -38 -57 -132 -41 -181 -122 hvcurveto
          260 233 rmoveto
          111 22 51 64 71 hhcurveto
          35 12 -24 -28 -80 -75 -43 -116 hvcurveto
          endchar
        </CharString>
        <CharString name="ogonek">
          -248 102 hmoveto
          -37 hlineto
          -82 -59 -32 -62 -43 -27 callsubr
          -29 -16 16 29 48 41 62 36 32 hvcurveto
          endchar
        </CharString>
        <CharString name="ograve">
          -4 404 4 callsubr
          -2 -677 rmoveto
          168 117 135 231 -17 callgsubr
          -16 callgsubr
        </CharString>
        <CharString name="ohorn">
          -4 587 508 -94 callsubr
        </CharString>
        <CharString name="ohungarumlaut">
          -4 188 550 rmoveto
          148 155 rlineto
          19 -80 vlineto
          -91 -160 rlineto
          184 -14 rmoveto
          148 155 rlineto
          19 -80 vlineto
          -91 -160 rlineto
          -10 -56 -105 callsubr
          endchar
        </CharString>
        <CharString name="omacron">
          -4 204 -33 callsubr
          -112 -142 -105 callsubr
          endchar
        </CharString>
        <CharString name="one">
          -6 415 38 rmoveto
          -141 27 99 550 -262 -38 -7 -40 rlineto
          157 hlineto
          -84 -472 -164 -27 -6 -38 rlineto
          401 hlineto
          endchar
        </CharString>
        <CharString name="one.dnom">
          -125 94 369 rmoveto
          114 hlineto
          -71 -369 rlineto
          81 hlineto
          83 431 -200 -29 rlineto
          endchar
        </CharString>
        <CharString name="one.numr">
          -125 101 542 -4 callgsubr
          endchar
        </CharString>
        <CharString name="one.osf">
          -6 415 38 rmoveto
          -142 27 85 470 -261 -38 -8 -40 rlineto
          158 hlineto
          -71 -392 -163 -27 -7 -38 rlineto
          402 hlineto
          endchar
        </CharString>
        <CharString name="oneeighth">
          415 296 -8 callgsubr
          -68 hlineto
          -402 -80 -4 callgsubr
          562 -582 -96 callsubr
        </CharString>
        <CharString name="onehalf">
          393 261 -8 callgsubr
          -67 hlineto
          -356 25 callsubr
          291 -542 rmoveto
          305 hlineto
          29 108 -38 2 -38 -55 -169 -3 130 101 rlineto
          86 66 53 62 69 vvcurveto
          63 -48 27 -75 -54 -58 -18 -20 -40 vhcurveto
          15 40 callgsubr
          42 20 -20 -32 -55 -42 -48 -56 -47 hvcurveto
          -174 -145 rlineto
          endchar
        </CharString>
        <CharString name="onequarter">
          393 265 -8 callgsubr
          -68 hlineto
          -372 25 callsubr
          480 -542 11 callgsubr
          6 -35 rlineto
          201 hlineto
          -125 50 rmoveto
          172 44 callgsubr
        </CharString>
        <CharString name="ordfeminine">
          -58 353 427 rmoveto
          44 230 -38 8 -18 -23 rlineto
          0 -36 10 -35 -131 -85 -107 -162 -87 45 -27 50 33 47 25 41 32 vhcurveto
          -3 -3 -21 -6 vvcurveto
          -22 10 -14 33 20 29 7 15 43 vhcurveto
          32 -55 vlineto
          0 4 45 11 59 vhcurveto
          -176 -101 rmoveto
          -24 -15 12 52 98 37 121 89 14 16 -6 -7 11 hvcurveto
          -14 -71 -23 43 callsubr
        </CharString>
        <CharString name="ordmasculine">
          -79 265 654 rmoveto
          -126 -89 -100 -171 -73 37 -41 80 127 88 99 171 74 -36 28 callsubr
          89 38 8 -30 -40 -97 -34 -127 -88 hvcurveto
          endchar
        </CharString>
        <CharString name="oslash">
          -4 106 -92 -50 callsubr
        </CharString>
        <CharString name="oslashacute">
          -4 232 563 -89 callgsubr
          -107 -679 -50 callsubr
        </CharString>
        <CharString name="otilde">
          -4 468 683 rmoveto
          4 callgsubr
          22 vhcurveto
          14 callsubr
          22 hvcurveto
          -152 -175 -105 callsubr
          endchar
        </CharString>
        <CharString name="p">
          38 21 -182 rmoveto
          107 15 25 173 rlineto
          -6 20 20 -3 35 hhcurveto
          200 76 182 192 103 -46 35 -61 -61 -66 -47 -57 -48 hvcurveto
          1 4 11 54 22 vvcurveto
          14 -7 10 -14 -34 -69 -16 -20 -57 vhcurveto
          7 -29 74 -7 rlineto
          101 -388 rmoveto
          -26 -29 10 13 -16 hvcurveto
          48 274 rlineto
          39 30 69 57 39 hhcurveto
          36 18 -29 -57 -99 -25 -208 -144 hvcurveto
          endchar
        </CharString>
        <CharString name="paragraph">
          26 220 210 rmoveto
          10 11 0 2 8 hvcurveto
          77 403 rlineto
          2 -8 -7 0 -11 hhcurveto
          -145 -100 -119 -132 -90 55 -66 110 hvcurveto
          -80 -210 rmoveto
          290 hlineto
          7 36 -86 22 96 495 94 22 -28 callsubr
          -182 hlineto
          -107 -553 -111 -22 rlineto
          endchar
        </CharString>
        <CharString name="parenleft">
          -200 155 264 rmoveto
          35 181 35 176 147 60 -5 31 rcurveline
          -200 -54 -43 -105 -56 -289 rrcurveto
          -20 -101 -13 -78 -62 vvcurveto
          -113 42 -56 116 -35 vhcurveto
          17 31 rlineto
          -66 31 -21 64 82 vvcurveto
          71 16 83 16 83 vhcurveto
          endchar
        </CharString>
        <CharString name="parenright">
          -200 147 264 rmoveto
          -35 -179 -34 -176 -147 -59 5 -31 rcurveline
          198 53 44 106 56 286 rrcurveto
          20 102 12 79 61 vvcurveto
          114 -42 57 -115 35 vhcurveto
          -17 -31 rlineto
          67 -32 21 -65 -81 vvcurveto
          -69 -17 -86 -16 -84 vhcurveto
          endchar
        </CharString>
        <CharString name="partialdiff">
          28 57 667 rmoveto
          18 -29 rlineto
          23 48 27 8 45 hhcurveto
          144 29 -102 -139 11 hvcurveto
          2 -54 24 -64 -138 -85 -90 -137 -133 58 -104 147 108 139 62 283 273 -107 121 -154 -66 -60 -17 -45 -46 vhcurveto
          202 -621 rmoveto
          -90 -28 61 116 115 44 64 88 49 34 -15 -15 28 hvcurveto
          2 -39 1 -20 -35 vvcurveto
          -150 -40 -82 -88 vhcurveto
          endchar
        </CharString>
        <CharString name="percent">
          393 184 173 rmoveto
          118 48 callsubr
          -76 39 callgsubr
          62 hlineto
          301 612 rlineto
          -63 hlineto
          -370 -365 rmoveto
          -42 -47 19 79 112 54 93 92 46 43 -20 -77 -139 -81 -67 -65 hvcurveto
          433 -255 rmoveto
          119 98 127 181 105 -56 37 -73 -122 -96 51 callsubr
          74 hvcurveto
          16 74 rmoveto
          -43 -46 20 78 144 84 61 63 44 29 callgsubr
          endchar
        </CharString>
        <CharString name="period">
          -299 145 57 rmoveto
          36 -31 31 -37 -36 -32 -31 -36 -37 32 -29 36 37 31 29 37 vhcurveto
          endchar
        </CharString>
        <CharString name="periodcentered">
          -267 186 254 -11 callsubr
        </CharString>
        <CharString name="perthousand">
          773 190 173 rmoveto
          119 48 callsubr
          -77 39 callgsubr
          63 hlineto
          300 612 rlineto
          -62 hlineto
          -371 -365 rmoveto
          -42 -46 19 79 112 54 93 92 45 43 -20 -77 -139 -80 -67 -66 hvcurveto
          434 -255 rmoveto
          119 97 127 181 105 -55 37 -74 -121 -97 51 callsubr
          75 hvcurveto
          380 hmoveto
          118 98 127 181 105 -55 37 -74 -122 -96 51 callsubr
          75 hvcurveto
          -364 74 rmoveto
          -43 -46 20 78 144 83 61 63 45 29 callgsubr
          379 hmoveto
          -42 -46 20 78 144 83 61 63 44 29 callgsubr
          endchar
        </CharString>
        <CharString name="pi">
          118 77 44 rmoveto
          -32 vlineto
          -13 41 27 -3 31 hhcurveto
          45 15 27 53 hvcurveto
          339 151 -256 vlineto
          -146 35 -17 85 19 35 6 18 36 vhcurveto
          -5 35 rlineto
          -46 hlineto
          -53 -19 36 51 hvcurveto
          273 33 vlineto
          62 17 43 81 hvcurveto
          16 -44 vlineto
          -40 -18 -15 -32 vhcurveto
          -361 hlineto
          -69 -42 -57 -69 hvcurveto
          36 -8 rlineto
          37 23 13 12 55 hhcurveto
          9 -350 hlineto
          endchar
        </CharString>
        <CharString name="plus">
          6 223 110 rmoveto
          60 165 167 61 -167 166 -60 -166 -166 -61 166 hlineto
          endchar
        </CharString>
        <CharString name="plusminus">
          15 228 110 rmoveto
          60 165 168 61 -168 166 -60 -166 -165 -61 165 hlineto
          -165 -254 36 callsubr
        </CharString>
        <CharString name="product">
          168 38 hmoveto
          275 37 hlineto
          -88 21 rlineto
          497 221 -497 vlineto
          -87 -21 rlineto
          -37 274 37 vlineto
          -88 21 rlineto
          497 vlineto
          88 20 rlineto
          37 -595 -37 vlineto
          88 -20 rlineto
          -497 vlineto
          -88 -21 rlineto
          endchar
        </CharString>
        <CharString name="q">
          1 489 516 rmoveto
          -41 8 -28 -33 rlineto
          10 -30 -30 7 -48 hhcurveto
          -168 -112 -137 -243 -110 51 -27 58 55 69 33 60 48 hvcurveto
          -52 -267 105 16 11 101 rlineto
          0 111 580 1 2 vhcurveto
          -164 -363 rmoveto
          -44 -27 -65 -50 -44 hhcurveto
          -35 -20 18 62 131 40 186 132 31 33 -13 -13 9 hvcurveto
          -97 -18 -35 -180 -1 hhcurveto
          endchar
        </CharString>
        <CharString name="question">
          -130 133 159 rmoveto
          14 18 3 0 hvcurveto
          7 27 rlineto
          -4 -27 1 20 22 34 27 54 39 hvcurveto
          118 86 42 52 66 vvcurveto
          77 -62 49 -87 -70 -62 -26 -17 -27 vhcurveto
          13 -37 rlineto
          0 63 24 51 49 33 -23 -57 -34 -26 -52 -93 -76 vhcurveto
          -60 -49 -43 -39 -31 vvcurveto
          -38 23 -14 42 vhcurveto
          -39 -169 rmoveto
          34 26 25 33 33 -26 27 -34 -32 -27 -27 -33 -33 27 -25 32 hvcurveto
          endchar
        </CharString>
        <CharString name="questiondown">
          -130 286 387 rmoveto
          33 26 26 34 33 -26 25 -33 -33 -27 -25 -33 -34 27 -26 33 hvcurveto
          -144 -521 rmoveto
          62 71 26 17 27 hvcurveto
          -14 38 rlineto
          0 -63 -24 -50 -50 -33 22 58 33 27 53 92 75 vhcurveto
          61 50 43 39 31 vvcurveto
          37 -23 15 -42 -14 -18 -3 0 vhcurveto
          -7 -28 rlineto
          4 27 -1 -20 -22 -34 -27 -55 -38 hvcurveto
          -118 -86 -42 -53 -66 vvcurveto
          -76 62 -50 87 vhcurveto
          endchar
        </CharString>
        <CharString name="quotedbl">
          -197 85 698 rmoveto
          -10 -231 rlineto
          28 hlineto
          80 231 rlineto
          43 hmoveto
          -9 -231 rlineto
          26 hlineto
          79 231 rlineto
          endchar
        </CharString>
        <CharString name="quotedblbase">
          -147 -9 -121 rmoveto
          129 215 -15 20 -88 -19 -55 -209 rlineto
          186 -7 rmoveto
          128 215 -15 20 -87 -19 -56 -209 rlineto
          endchar
        </CharString>
        <CharString name="quotedblleft">
          -170 196 662 37 callsubr
          128 6 37 callsubr
          endchar
        </CharString>
        <CharString name="quotedblright">
          -170 76 427 38 callsubr
          186 -7 38 callsubr
          endchar
        </CharString>
        <CharString name="quoteleft">
          -327 203 662 rmoveto
          -128 -215 14 -20 88 19 55 210 rlineto
          endchar
        </CharString>
        <CharString name="quoteright">
          -327 82 427 rmoveto
          128 216 -14 19 -88 -19 -55 -209 rlineto
          endchar
        </CharString>
        <CharString name="quotesinglbase">
          -301 1 -119 rmoveto
          126 212 -13 21 -86 -20 -54 -206 rlineto
          endchar
        </CharString>
        <CharString name="quotesingle">
          -335 106 698 rmoveto
          -10 -231 rlineto
          29 hlineto
          79 231 rlineto
          endchar
        </CharString>
        <CharString name="r">
          -29 callgsubr
          endchar
        </CharString>
        <CharString name="racute">
          -106 222 563 -64 callsubr
          -150 -596 -91 callsubr
          endchar
        </CharString>
        <CharString name="radical">
          4 511 685 rmoveto
          90 19 -1 36 rlineto
          -136 hlineto
          -193 -620 -107 371 rlineto
          -148 -35 hlineto
          60 -21 151 -449 59 10 rlineto
          endchar
        </CharString>
        <CharString name="rcaron">
          -106 248 559 rmoveto
          20 callsubr
          -92 87 -31 -20 rlineto
          -117 -712 -91 callsubr
          endchar
        </CharString>
        <CharString name="rcommaaccent">
          -29 callgsubr
          -95 -659 -38 callsubr
          -36 24 callsubr
        </CharString>
        <CharString name="registered">
          0 252 209 rmoveto
          5 callsubr
          -133 109 -111 134 hvcurveto
          33 vmoveto
          -116 -94 93 118 117 94 28 callgsubr
          hvcurveto
          -125 63 rmoveto
          124 19 hlineto
          -34 8 rlineto
          111 6 vlineto
          27 2 -3 -135 61 hvcurveto
          82 19 hlineto
          -30 8 -12 23 -10 20 -11 19 rlinecurve
          -19 36 -7 15 -17 6 rrcurveto
          55 14 13 42 30 vvcurveto
          34 -27 40 -76 vhcurveto
          -127 -21 hlineto
          34 -7 rlineto
          -251 vlineto
          -34 -8 rlineto
          90 141 rmoveto
          120 18 vlineto
          43 18 -22 -33 -37 -18 -28 -38 hvcurveto
          endchar
        </CharString>
        <CharString name="ring">
          -248 189 542 rmoveto
          74 47 54 67 48 -29 31 callgsubr
          60 hvcurveto
          7 18 callsubr
          endchar
        </CharString>
        <CharString name="ring.case">
          -248 204 636 -70 callsubr
          endchar
        </CharString>
        <CharString name="s">
          -103 245 453 -99 callsubr
          endchar
        </CharString>
        <CharString name="sacute">
          -103 178 563 -48 callgsubr
          86 -134 -99 callsubr
          endchar
        </CharString>
        <CharString name="sacute.loclPLK">
          -103 223 550 -56 callgsubr
          44 -111 -99 callsubr
          endchar
        </CharString>
        <CharString name="scaron">
          -103 170 723 rmoveto
          -32 -20 78 -144 rlineto
          20 callsubr
          rlineto
          -16 -183 -99 callsubr
          endchar
        </CharString>
        <CharString name="scedilla">
          -103 245 453 rmoveto
          21 31 -4 -9 14 hvcurveto
          9 -76 rlineto
          35 hlineto
          33 115 rlineto
          20 -40 -48 9 -41 hhcurveto
          -122 -74 -68 -96 -58 32 -36 40 -19 hvcurveto
          77 -35 rlineto
          42 -18 12 -21 -26 vvcurveto
          -60 -41 -26 -66 -37 -24 6 8 -18 vhcurveto
          -7 87 rlineto
          -36 hlineto
          -33 -126 35 -20 46 -7 41 -2 rlinecurve
          -31 -59 1 -12 rlineto
          49 14 -20 -20 -38 -38 -29 -42 -14 -12 2 5 -11 hvcurveto
          -15 32 callgsubr
          29 hhcurveto
          68 77 48 67 33 -27 26 -64 hvcurveto
          18 37 rlineto
          121 5 70 63 104 vvcurveto
          59 -33 33 -45 21 vhcurveto
          -75 35 rlineto
          -37 17 -16 15 33 vvcurveto
          43 35 33 64 vhcurveto
          endchar
        </CharString>
        <CharString name="scircumflex">
          -103 362 559 -90 callsubr
          -32 -189 -99 callsubr
          endchar
        </CharString>
        <CharString name="scommaaccent">
          -103 145 -9 rmoveto
          131 76 65 108 59 -33 33 -45 21 hvcurveto
          -75 35 rlineto
          -37 17 -16 15 33 vvcurveto
          43 35 33 64 21 31 -4 -9 14 vhcurveto
          9 -76 rlineto
          35 hlineto
          33 115 rlineto
          20 -40 -48 9 -41 hhcurveto
          -122 -74 -68 -96 -58 32 -36 40 -19 hvcurveto
          77 -35 rlineto
          42 -18 12 -21 -26 vvcurveto
          -60 -41 -26 -66 -37 -24 6 8 -18 vhcurveto
          -7 87 rlineto
          -36 hlineto
          -33 -126 rlineto
          -22 41 56 -7 44 hhcurveto
          -46 -216 -38 callsubr
          -36 24 callsubr
        </CharString>
        <CharString name="section">
          -103 340 578 rmoveto
          3 -81 rlineto
          39 hlineto
          38 116 rlineto
          0 -57 26 -79 -89 -88 -45 -93 -61 62 -35 169 -191 vhcurveto
          6 9 11 17 30 80 -172 98 71 vvcurveto
          61 58 6 37 24 27 -4 -4 11 vhcurveto
          -272 -442 rmoveto
          -35 hlineto
          -36 -124 rlineto
          2 63 -21 81 hhcurveto
          95 87 55 83 53 -61 36 -175 197 hvcurveto
          -10 -12 -7 -21 -19 -83 175 -94 -68 vvcurveto
          -53 -57 -23 -48 -31 -25 7 4 -13 vhcurveto
          endchar
        </CharString>
        <CharString name="semicolon">
          -258 138 356 rmoveto
          39 33 29 39 39 -33 33 -39 -38 -32 -33 -39 -39 32 -29 38 hvcurveto
          -110 -475 rmoveto
          130 228 -17 22 -97 -22 -49 -221 rlineto
          endchar
        </CharString>
        <CharString name="seven">
          -6 102 612 rmoveto
          -13 -73 rlineto
          322 hlineto
          -348 -535 88 -29 351 601 -12 36 rlineto
          endchar
        </CharString>
        <CharString name="seven.dnom">
          -98 150 -13 rmoveto
          240 401 -8 40 rlineto
          -295 hlineto
          -12 -93 rlineto
          29 hlineto
          29 38 rlineto
          179 hlineto
          -243 -370 rlineto
          endchar
        </CharString>
        <CharString name="seven.numr">
          -98 165 163 0 callsubr
          endchar
        </CharString>
        <CharString name="seven.osf">
          -6 85 524 rmoveto
          -12 -72 rlineto
          317 hlineto
          -142 -177 -116 -173 -84 -184 90 -23 rcurveline
          84 206 112 189 152 199 -12 35 rcurveline
          endchar
        </CharString>
        <CharString name="seveneighths">
          456 337 20 callgsubr
          -379 -459 0 callsubr
          625 -185 -96 callsubr
        </CharString>
        <CharString name="six">
          -44 callgsubr
        </CharString>
        <CharString name="six.dnom">
          -98 155 -8 41 callsubr
          -38 -11 -24 -32 hvcurveto
          32 105 79 52 61 6 12 2 16 0 17 -2 6 40 rcurveline
          -19 4 -20 1 -20 -2 -90 -9 -136 -69 -36 -187 rrcurveto
          -4 -23 -3 -22 -20 vvcurveto
          -69 30 -48 95 vhcurveto
          11 46 rmoveto
          -39 -15 28 43 16 2 17 3 18 hvcurveto
          31 25 44 26 36 hhcurveto
          36 12 -21 -32 -69 -35 -57 -69 hvcurveto
          endchar
        </CharString>
        <CharString name="six.numr">
          -98 155 163 rmoveto
          175 26 139 43 51 -30 43 -77 -44 -37 -12 -23 -33 hvcurveto
          32 104 78 51 61 6 12 3 16 0 18 -1 6 40 rcurveline
          -19 3 -21 1 -21 -2 -89 -10 -133 -67 -38 -186 rrcurveto
          -4 -22 -3 -22 -21 vvcurveto
          -69 31 -49 94 vhcurveto
          11 45 14 callgsubr
          26 43 27 37 hhcurveto
          36 11 -22 -31 -69 -35 -58 -69 hvcurveto
          endchar
        </CharString>
        <CharString name="six.osf">
          -44 callgsubr
        </CharString>
        <CharString name="slash">
          -143 346 677 rmoveto
          -72 hlineto
          -248 -766 rlineto
          71 hlineto
          endchar
        </CharString>
        <CharString name="space">
          -327 endchar
        </CharString>
        <CharString name="sterling">
          -6 196 159 rmoveto
          19 104 rlineto
          177 hlineto
          17 49 rlineto
          -184 hlineto
          7 38 rlineto
          123 23 23 91 84 hhcurveto
          18 18 -3 -6 18 hvcurveto
          4 -92 rlineto
          43 hlineto
          33 129 rlineto
          17 -38 -47 11 -54 hhcurveto
          -134 -49 -102 -206 -39 hvcurveto
          -88 hlineto
          -17 -49 rlineto
          97 hlineto
          -20 -103 rlineto
          -14 -75 -102 -42 0 vvcurveto
          5 -43 rlineto
          391 hlineto
          47 97 -18 15 -56 -48 -263 -10 43 21 48 43 8 41 rlinecurve
          endchar
        </CharString>
        <CharString name="summation">
          19 424 467 rmoveto
          44 152 -460 -45 hlineto
          231 -312 -233 -316 rlineto
          -30 469 175 -44 vlineto
          -25 -91 rlineto
          -288 hlineto
          210 280 rlineto
          10 vlineto
          -197 272 rlineto
          269 hlineto
          endchar
        </CharString>
        <CharString name="t">
          -22 callgsubr
          endchar
        </CharString>
        <CharString name="tbar">
          -171 349 431 rmoveto
          59 -103 vlineto
          19 107 rlineto
          -40 hlineto
          -71 -106 -104 -29 6 -31 rlineto
          84 hlineto
          -7 -35 -8 -43 -9 -44 rrcurveto
          -83 hlineto
          -9 -48 rlineto
          82 hlineto
          -22 -108 -20 -106 -16 vvcurveto
          -27 13 -16 36 28 60 9 19 61 vhcurveto
          35 -101 vlineto
          41 210 rlineto
          109 48 -100 hlineto
          24 122 rlineto
          endchar
        </CharString>
        <CharString name="tcaron">
          -167 319 730 rmoveto
          16 -204 rlineto
          28 hlineto
          40 188 -54 16 rlineto
          -115 -299 rmoveto
          -5 callgsubr
          29 59 9 19 61 vhcurveto
          35 -101 vlineto
          endchar
        </CharString>
        <CharString name="thorn">
          17 9 -182 rmoveto
          104 15 7 49 9 58 10 64 rlinecurve
          -4 18 19 -3 30 hhcurveto
          207 73 187 186 104 -47 35 -62 -59 -66 -46 -56 -47 hvcurveto
          14 83 15 82 13 77 rrcurveto
          7 36 2 16 6 vvcurveto
          12 -5 11 -15 -36 -68 -15 -22 -58 vhcurveto
          7 -28 75 -9 rlineto
          64 -607 rmoveto
          -27 -29 11 12 -15 hvcurveto
          30 174 8 51 8 50 rrcurveto
          39 31 71 56 35 hhcurveto
          33 22 -21 -63 -107 -32 -202 -135 hvcurveto
          endchar
        </CharString>
        <CharString name="three">
          -6 270 628 rmoveto
          -67 -54 -21 -29 -52 hvcurveto
          13 -46 rlineto
          22 52 42 9 39 hhcurveto
          60 23 -23 -43 -75 -60 -61 -126 -15 hvcurveto
          -47 vlineto
          86 77 -16 -79 -104 -85 -53 -114 -19 -28 0 7 -49 hvcurveto
          -8 -52 rlineto
          -10 43 29 -1 55 hhcurveto
          167 112 88 127 64 -47 50 -84 16 hvcurveto
          76 30 80 59 91 vvcurveto
          74 -62 38 -99 vhcurveto
          endchar
        </CharString>
        <CharString name="three.dnom">
          -98 262 440 -71 callsubr
        </CharString>
        <CharString name="three.numr">
          -98 262 610 -42 callgsubr
          endchar
        </CharString>
        <CharString name="three.osf">
          -6 256 535 rmoveto
          -75 -50 -21 -28 -51 hvcurveto
          12 -46 rlineto
          21 51 41 10 42 hhcurveto
          63 19 -27 -39 -74 -60 -62 -126 -15 hvcurveto
          -47 vlineto
          92 72 -17 -80 -101 -84 -53 -119 -24 -25 2 5 -43 hvcurveto
          -9 -51 rlineto
          -9 41 33 -3 49 hhcurveto
          171 112 89 121 67 -45 47 -85 20 hvcurveto
          74 29 81 59 93 vvcurveto
          73 -64 37 -93 vhcurveto
          endchar
        </CharString>
        <CharString name="threeeighths">
          454 351 -8 callgsubr
          -67 hlineto
          -297 -12 -42 callgsubr
          446 -618 -96 callsubr
        </CharString>
        <CharString name="threequarters">
          393 325 -8 callgsubr
          -67 hlineto
          -387 -459 rmoveto
          108 87 48 103 47 -29 33 -53 11 hvcurveto
          53 22 52 46 62 vvcurveto
          51 -48 24 -60 -52 -57 -18 -21 -40 vhcurveto
          10 -39 rlineto
          19 41 36 8 25 hhcurveto
          39 17 -16 -26 -47 -42 -47 -88 -9 hvcurveto
          -3 -38 rlineto
          53 59 -7 -56 -72 -56 -29 -61 -25 -31 2 15 -40 hvcurveto
          -18 -45 rlineto
          -13 35 45 -8 43 hhcurveto
          550 -163 11 callgsubr
          5 -35 rlineto
          202 hlineto
          -126 50 rmoveto
          173 44 callgsubr
        </CharString>
        <CharString name="tilde">
          -248 356 683 rmoveto
          2 callgsubr
          14 callsubr
          21 hvcurveto
          endchar
        </CharString>
        <CharString name="tilde.case">
          -248 377 763 -93 callgsubr
          endchar
        </CharString>
        <CharString name="tildecomb">
          -503 122 763 -93 callgsubr
          endchar
        </CharString>
        <CharString name="trademark">
          358 72 278 rmoveto
          188 25 hlineto
          -59 12 rlineto
          288 76 vlineto
          13 -51 rlineto
          32 hlineto
          4 93 rlineto
          -318 hlineto
          3 -93 rlineto
          32 hlineto
          13 51 rlineto
          76 -288 hlineto
          -60 -12 rlineto
          465 -32 rmoveto
          51 8 101 287 11 -251 -52 -12 rlineto
          -24 174 24 vlineto
          -54 12 -12 292 51 12 rlineto
          26 -133 vlineto
          -99 -281 -98 281 rlineto
          -135 -26 hlineto
          48 -11 -12 -293 -47 -12 rlineto
          -24 143 24 vlineto
          -52 12 8 250 rlineto
          endchar
        </CharString>
        <CharString name="two">
          -6 6 hmoveto
          395 hlineto
          24 104 -48 -1 -29 -24 -244 -13 183 148 rlineto
          121 99 59 88 91 vvcurveto
          103 -70 33 -90 -91 -56 -31 -28 -55 vhcurveto
          15 -46 rlineto
          22 53 53 14 39 hhcurveto
          69 27 -36 -44 -74 -34 -60 -91 -80 hvcurveto
          -240 -209 rlineto
          endchar
        </CharString>
        <CharString name="two.dnom">
          -98 224 387 rmoveto
          42 20 -20 -32 -55 -42 -48 -55 -47 hvcurveto
          -174 -145 2 -40 rlineto
          304 hlineto
          30 108 -39 2 -38 10 callsubr
          -40 vhcurveto
          15 40 callgsubr
          endchar
        </CharString>
        <CharString name="two.numr">
          -98 224 560 -31 callgsubr
          endchar
        </CharString>
        <CharString name="two.osf">
          -4 10 hmoveto
          392 hlineto
          25 104 -49 -1 -39 -25 -225 -12 122 79 rlineto
          134 87 69 81 90 vvcurveto
          97 -81 35 -88 -77 -69 -27 -27 -48 vhcurveto
          15 -50 rlineto
          21 50 54 15 43 hhcurveto
          68 26 -36 -47 -62 -46 -51 -104 -79 hvcurveto
          -182 -138 rlineto
          endchar
        </CharString>
        <CharString name="u">
          62 141 -9 -104 callgsubr
          endchar
        </CharString>
        <CharString name="uacute">
          62 270 563 -64 callsubr
          -109 -596 -102 callsubr
        </CharString>
        <CharString name="ubreve">
          62 346 -81 callgsubr
          -205 -593 -104 callgsubr
          endchar
        </CharString>
        <CharString name="ucircumflex">
          62 236 559 rmoveto
          120 83 84 -83 30 -78 callsubr
          rlineto
          -71 -590 -102 callsubr
        </CharString>
        <CharString name="udieresis">
          62 250 -14 callgsubr
          -313 -593 -102 callsubr
        </CharString>
        <CharString name="ugrave">
          62 416 563 -68 callsubr
          -55 -677 -102 callsubr
        </CharString>
        <CharString name="uhorn">
          62 451 203 -101 callsubr
          endchar
        </CharString>
        <CharString name="uhungarumlaut">
          62 227 550 -56 callgsubr
          183 -14 -56 callgsubr
          -224 -573 -102 callsubr
        </CharString>
        <CharString name="umacron">
          62 230 590 rmoveto
          223 hlineto
          9 60 rlineto
          -224 hlineto
          -96 -659 -102 callsubr
        </CharString>
        <CharString name="underscore">
          -54 439 -65 rmoveto
          6 46 rlineto
          -441 hlineto
          -5 -46 rlineto
          endchar
        </CharString>
        <CharString name="uni00A0">
          -319 endchar
        </CharString>
        <CharString name="uni00AD">
          -213 278 209 rmoveto
          53 -265 -53 vlineto
          endchar
        </CharString>
        <CharString name="uni00B2">
          -98 223 666 rmoveto
          42 20 -19 -33 -55 -41 -49 -54 -45 hvcurveto
          -175 -146 2 -40 rlineto
          298 hlineto
          29 108 -38 3 -38 -56 -163 -3 131 102 rlineto
          86 66 51 60 70 vvcurveto
          63 -48 27 -75 -54 -58 -18 -21 -40 vhcurveto
          14 -40 rlineto
          18 42 32 8 37 hhcurveto
          endchar
        </CharString>
        <CharString name="uni00B3">
          -98 262 716 rmoveto
          -51 -58 -18 -22 -41 hvcurveto
          11 -38 rlineto
          19 41 36 9 25 hhcurveto
          39 17 -17 -26 -47 -41 -48 -90 -9 hvcurveto
          -2 -38 rlineto
          53 59 -6 -56 -72 -57 -30 -61 -24 -32 3 15 -40 hvcurveto
          -17 -45 rlineto
          -14 35 45 -6 43 hhcurveto
          108 87 45 104 47 -30 33 -53 12 hvcurveto
          54 23 51 44 62 vvcurveto
          51 -46 25 -61 vhcurveto
          endchar
        </CharString>
        <CharString name="uni00B5">
          -59 callsubr
        </CharString>
        <CharString name="uni00B9">
          -98 99 646 rmoveto
          113 hlineto
          -71 -368 rlineto
          81 hlineto
          84 431 -201 -30 rlineto
          endchar
        </CharString>
        <CharString name="uni0162">
          3 85 612 rmoveto
          -20 -146 rlineto
          39 hlineto
          36 89 rlineto
          125 hlineto
          -96 -497 -99 -51 callgsubr
          126 hlineto
          -36 -68 -24 callsubr
          69 76 48 67 33 -27 26 -64 hvcurveto
          23 45 rlineto
          123 -12 callsubr
          -90 56 callsubr
          rlineto
          125 -89 42 hlineto
          34 146 rlineto
          endchar
        </CharString>
        <CharString name="uni0163">
          -167 234 431 rmoveto
          1 callgsubr
          -25 11 -16 30 -2 vhcurveto
          -29 -56 -39 callgsubr
          18 35 31 3 44 8 45 15 rlinecurve
          35 -101 vlineto
          endchar
        </CharString>
        <CharString name="uni018F">
          118 258 -9 rmoveto
          190 144 162 243 156 -76 75 -170 -82 -64 -16 -22 -57 hvcurveto
          -17 -121 rlineto
          41 hlineto
          39 85 rlineto
          15 47 40 5 34 hhcurveto
          121 37 -66 -116 1 hvcurveto
          -19 -1 -20 -3 -20 vhcurveto
          -434 hlineto
          -8 -39 -5 -40 -40 vvcurveto
          -133 62 -89 161 vhcurveto
          10 54 rmoveto
          -97 -29 68 100 17 2 22 3 26 hvcurveto
          327 hlineto
          -119 -24 -64 -114 -118 hhcurveto
          endchar
        </CharString>
        <CharString name="uni019D">
          171 493 612 rmoveto
          -6 -37 75 -20 -79 -413 -233 470 rlineto
          -146 -45 callsubr
          71 -20 -101 -560 rlineto
          -82 -15 -38 -25 -58 hhcurveto
          -27 -27 5 7 -22 hvcurveto
          -10 -42 rlineto
          -15 22 35 -15 44 hhcurveto
          84 53 57 101 18 hvcurveto
          46 256 29 160 12 71 236 -482 rcurveline
          63 9 107 555 5 callgsubr
          endchar
        </CharString>
        <CharString name="uni01C4">
          625 864 801 -77 callgsubr
          -980 -723 rmoveto
          -61 callgsubr
        </CharString>
        <CharString name="uni01C5">
          515 804 -67 callsubr
          -120 -88 rlineto
          -908 -636 rmoveto
          -80 callgsubr
          631 -95 -93 callsubr
          endchar
        </CharString>
        <CharString name="uni01C6">
          407 -92 callgsubr
          553 732 rmoveto
          -31 -20 78 -144 rlineto
          67 hlineto
          121 142 -23 23 -120 -88 rlineto
          -2 -684 -93 callsubr
          -596 107 -55 callsubr
        </CharString>
        <CharString name="uni01C7">
          270 402 hmoveto
          -57 callsubr
          471 -149 -82 callgsubr
        </CharString>
        <CharString name="uni01C8">
          233 672 -13 callsubr
          -270 -583 rmoveto
          -57 callsubr
          445 -172 rmoveto
          15 callgsubr
          hvcurveto
          -23 callsubr
          -88 callgsubr
          vhcurveto
          endchar
        </CharString>
        <CharString name="uni01C9">
          74 106 -9 -84 callgsubr
          407 592 -47 callgsubr
          -239 -755 rmoveto
          15 callgsubr
          hvcurveto
          -23 callsubr
          -88 callgsubr
          vhcurveto
          endchar
        </CharString>
        <CharString name="uni01CA">
          489 493 -27 callgsubr
          -31 -761 -82 callgsubr
        </CharString>
        <CharString name="uni01CB">
          452 891 -13 callsubr
          -398 29 -97 callgsubr
          -57 -784 rmoveto
          15 callgsubr
          hvcurveto
          -23 callsubr
          -88 callgsubr
          vhcurveto
          endchar
        </CharString>
        <CharString name="uni01CC">
          344 783 -13 callsubr
          -556 -188 -90 callgsubr
          317 -567 rmoveto
          15 callgsubr
          hvcurveto
          -23 callsubr
          -88 callgsubr
          vhcurveto
          endchar
        </CharString>
        <CharString name="uni01CD">
          50 263 801 -77 callgsubr
          -18 -520 -104 callsubr
          endchar
        </CharString>
        <CharString name="uni01CE">
          20 243 -67 callsubr
          -120 -88 rlineto
          84 -430 -107 callgsubr
          endchar
        </CharString>
        <CharString name="uni01CF">
          -167 155 801 -77 callgsubr
          -271 -723 rmoveto
          -82 callsubr
          endchar
        </CharString>
        <CharString name="uni01D0">
          -206 130 -67 callsubr
          -120 -88 rlineto
          15 -150 -96 callgsubr
          endchar
        </CharString>
        <CharString name="uni01D1">
          298 801 -77 callgsubr
          -139 -732 -105 callgsubr
          endchar
        </CharString>
        <CharString name="uni01D2">
          -4 231 -67 callsubr
          -120 -88 rlineto
          -7 -128 -105 callsubr
          endchar
        </CharString>
        <CharString name="uni01D3">
          107 291 801 -77 callgsubr
          121 -487 rmoveto
          62 319 80 -61 callsubr
          -219 -106 callsubr
          endchar
        </CharString>
        <CharString name="uni01D4">
          62 263 -67 callsubr
          -120 -88 rlineto
          -214 -645 -104 callgsubr
          endchar
        </CharString>
        <CharString name="uni01D5">
          107 313 921 -30 callsubr
          -199 -197 -94 callgsubr
          -47 -488 rmoveto
          62 319 80 -61 callsubr
          -219 -106 callsubr
          endchar
        </CharString>
        <CharString name="uni01D6">
          62 267 802 -30 callsubr
          -199 -197 -94 callgsubr
          -376 -614 -104 callgsubr
          endchar
        </CharString>
        <CharString name="uni01D7">
          107 379 820 -89 callgsubr
          -2 -120 -94 callgsubr
          -47 -488 rmoveto
          62 319 80 -61 callsubr
          -219 -106 callsubr
          endchar
        </CharString>
        <CharString name="uni01D8">
          62 333 701 -89 callgsubr
          -2 -120 -94 callgsubr
          -376 -614 -104 callgsubr
          endchar
        </CharString>
        <CharString name="uni01D9">
          107 325 975 -77 callgsubr
          -71 -173 -94 callgsubr
          -47 -488 rmoveto
          62 319 80 -61 callsubr
          -219 -106 callsubr
          endchar
        </CharString>
        <CharString name="uni01DA">
          62 279 856 -77 callgsubr
          -71 -173 -94 callgsubr
          -376 -614 -104 callgsubr
          endchar
        </CharString>
        <CharString name="uni01DB">
          107 466 820 -68 callsubr
          111 -201 -94 callgsubr
          -47 -488 rmoveto
          62 319 80 -61 callsubr
          -219 -106 callsubr
          endchar
        </CharString>
        <CharString name="uni01DC">
          62 420 701 -68 callsubr
          111 -201 -94 callgsubr
          -376 -614 -104 callgsubr
          endchar
        </CharString>
        <CharString name="uni01EA">
          607 410 rmoveto
          125 -59 92 -162 -224 -122 -202 -212 -133 62 -89 161 35 32 5 9 29 vhcurveto
          -50 -47 -21 -46 -35 vvcurveto
          -38 24 -34 59 53 35 28 25 21 vhcurveto
          -16 18 rlineto
          -15 -19 -19 -7 -19 hhcurveto
          -28 -16 16 30 53 51 68 44 35 hvcurveto
          -1 hlineto
          99 77 51 136 141 vvcurveto
          -460 -197 rmoveto
          94 40 266 187 100 28 -70 -96 -146 -58 -216 -171 -97 -29 68 100 vhcurveto
          endchar
        </CharString>
        <CharString name="uni01EB">
          -4 333 36 rmoveto
          83 58 51 110 153 vvcurveto
          -17 callgsubr
          -166 -118 -134 -231 -97 47 -55 103 23 23 3 5 21 vhcurveto
          -54 -49 -22 -47 -35 vvcurveto
          -38 23 -35 63 67 39 54 0 vhcurveto
          -16 18 rlineto
          -16 -19 -19 -6 -18 hhcurveto
          -29 -16 15 30 47 50 72 35 27 hvcurveto
          -201 103 rmoveto
          126 39 188 125 55 16 -38 -57 -132 -41 -181 -122 -56 -16 37 57 vhcurveto
          endchar
        </CharString>
        <CharString name="uni01F1">
          625 -12 hmoveto
          -61 callgsubr
        </CharString>
        <CharString name="uni01F2">
          515 -12 hmoveto
          -80 callgsubr
          631 -95 -93 callsubr
          endchar
        </CharString>
        <CharString name="uni01F3">
          407 -92 callgsubr
          643 -39 -93 callsubr
          -596 107 -55 callsubr
        </CharString>
        <CharString name="uni01F4">
          85 335 646 -89 callgsubr
          166 -109 -92 callsubr
        </CharString>
        <CharString name="uni01F5">
          2 235 563 -89 callgsubr
          -86 -766 -97 callsubr
        </CharString>
        <CharString name="uni0200">
          50 276 -76 callgsubr
          25 -588 -104 callsubr
          endchar
        </CharString>
        <CharString name="uni0201">
          20 248 552 -73 callsubr
          127 -501 -107 callgsubr
          endchar
        </CharString>
        <CharString name="uni0202">
          50 379 -85 callgsubr
          -30 -590 -104 callsubr
          endchar
        </CharString>
        <CharString name="uni0203">
          20 349 -85 callsubr
          70 -507 -107 callgsubr
          endchar
        </CharString>
        <CharString name="uni0204">
          27 264 -76 callgsubr
          79 -398 -103 callgsubr
          endchar
        </CharString>
        <CharString name="uni0205">
          -87 194 552 -73 callsubr
          75 -199 -107 callsubr
          endchar
        </CharString>
        <CharString name="uni0206">
          27 367 -85 callgsubr
          24 -400 -103 callgsubr
          endchar
        </CharString>
        <CharString name="uni0207">
          -87 295 -85 callsubr
          18 -205 -107 callsubr
          endchar
        </CharString>
        <CharString name="uni0208">
          -167 168 -76 callgsubr
          -228 -791 rmoveto
          -82 callsubr
          endchar
        </CharString>
        <CharString name="uni0209">
          -206 135 552 -73 callsubr
          58 -221 -96 callgsubr
          endchar
        </CharString>
        <CharString name="uni020A">
          -167 271 -85 callgsubr
          -283 -793 rmoveto
          -82 callsubr
          endchar
        </CharString>
        <CharString name="uni020B">
          -206 236 -85 callsubr
          1 -227 -96 callgsubr
          endchar
        </CharString>
        <CharString name="uni020C">
          311 -76 callgsubr
          -96 -800 -105 callgsubr
          endchar
        </CharString>
        <CharString name="uni020D">
          -4 236 552 -73 callsubr
          36 -199 -105 callsubr
          endchar
        </CharString>
        <CharString name="uni020E">
          414 -85 callgsubr
          -151 -802 -105 callgsubr
          endchar
        </CharString>
        <CharString name="uni020F">
          -4 337 -85 callsubr
          -21 -205 -105 callsubr
          endchar
        </CharString>
        <CharString name="uni0210">
          52 277 -76 callgsubr
          40 -791 rmoveto
          -86 callgsubr
          endchar
        </CharString>
        <CharString name="uni0211">
          -106 185 552 -73 callsubr
          -176 -716 -91 callsubr
          endchar
        </CharString>
        <CharString name="uni0212">
          52 380 -85 callgsubr
          -15 -793 rmoveto
          -86 callgsubr
          endchar
        </CharString>
        <CharString name="uni0213">
          -106 286 -85 callsubr
          -233 -722 -91 callsubr
          endchar
        </CharString>
        <CharString name="uni0214">
          107 304 -76 callgsubr
          164 -555 rmoveto
          62 319 80 -61 callsubr
          -219 -106 callsubr
          endchar
        </CharString>
        <CharString name="uni0215">
          62 268 552 -73 callsubr
          -171 -716 -104 callgsubr
          endchar
        </CharString>
        <CharString name="uni0216">
          107 407 -85 callgsubr
          109 -557 rmoveto
          62 319 80 -61 callsubr
          -219 -106 callsubr
          endchar
        </CharString>
        <CharString name="uni0217">
          62 369 -85 callsubr
          -228 -722 -104 callgsubr
          endchar
        </CharString>
        <CharString name="uni021A">
          3 85 612 rmoveto
          -20 -63 callsubr
          -415 -837 -38 callsubr
          -36 24 callsubr
        </CharString>
        <CharString name="uni021B">
          -167 112 -12 rmoveto
          29 59 9 19 61 hvcurveto
          35 -101 vlineto
          74 380 rlineto
          -5 callgsubr
          vhcurveto
          -33 -213 rmoveto
          103 43 callgsubr
        </CharString>
        <CharString name="uni0232">
          22 237 747 -30 callsubr
          -93 -172 -95 callgsubr
          endchar
        </CharString>
        <CharString name="uni0232.loclGUA">
          146 299 747 -30 callsubr
          -315 -914 -103 callsubr
        </CharString>
        <CharString name="uni0233">
          -48 194 -33 callsubr
          -352 -833 -83 callgsubr
          endchar
        </CharString>
        <CharString name="uni0233.loclGUA">
          41 238 -33 callsubr
          -296 -818 -101 callgsubr
        </CharString>
        <CharString name="uni0237">
          -222 243 485 rmoveto
          -88 callgsubr
          15 callgsubr
          vhcurveto
          -23 callsubr
          endchar
        </CharString>
        <CharString name="uni0259">
          -87 103 -15 rmoveto
          200 81 184 165 119 -57 49 -103 -57 -48 -16 -23 -41 hvcurveto
          9 -37 rlineto
          10 27 31 8 27 hhcurveto
          87 27 -30 -84 -24 -2 -23 -5 -28 hvcurveto
          -186 -101 -66 -106 -66 49 -32 62 hvcurveto
          24 55 rmoveto
          -35 -12 24 28 80 75 43 116 hvcurveto
          -111 -22 -51 -64 -71 hhcurveto
          endchar
        </CharString>
        <CharString name="uni0272">
          63 423 53 rmoveto
          29 131 51 226 35 vvcurveto
          44 -21 20 -41 -55 -93 -46 -68 -66 vhcurveto
          4 19 11 56 12 vvcurveto
          15 -8 10 -14 -35 -69 -17 -19 -56 vhcurveto
          5 -29 75 -8 -79 -439 rlineto
          -82 -14 -40 -25 -58 hhcurveto
          -26 -27 5 7 -22 hvcurveto
          -10 -42 rlineto
          0 49 -30 65 15 callgsubr
          vhcurveto
          60 350 rlineto
          56 45 74 43 39 hhcurveto
          19 10 -10 -20 hvcurveto
          -39 -73 -286 -33 vvcurveto
          -42 26 -14 40 32 42 11 17 38 vhcurveto
          34 vlineto
          endchar
        </CharString>
        <CharString name="uni02B0">
          -81 37 18 callgsubr
          -15 -16 -70 -14 -61 hvcurveto
          -12 -52 -10 -50 -12 -1 callgsubr
          -49 vhcurveto
          -2 1 rlineto
          22 121 16 89 9 15 callsubr
          endchar
        </CharString>
        <CharString name="uni02BC">
          -248 194 526 19 callsubr
          endchar
        </CharString>
        <CharString name="uni02C9">
          -248 96 671 rmoveto
          -9 -60 rlineto
          224 hlineto
          9 60 rlineto
          endchar
        </CharString>
        <CharString name="uni02E1">
          -279 89 269 rmoveto
          19 35 7 14 41 hvcurveto
          31 -56 vlineto
          31 174 53 285 18 15 callsubr
          -40 -218 -44 -216 -20 vvcurveto
          -25 15 -12 26 vhcurveto
          endchar
        </CharString>
        <CharString name="uni02E2">
          -179 198 609 rmoveto
          13 21 -6 -4 11 hvcurveto
          6 -59 rlineto
          31 hlineto
          27 91 rlineto
          15 -30 -35 8 -34 hhcurveto
          -92 -56 -47 -82 -43 19 -29 36 -14 hvcurveto
          61 -24 rlineto
          29 -11 10 -9 -19 vvcurveto
          -42 -30 -19 -47 -24 -16 2 4 -14 vhcurveto
          -6 65 rlineto
          -33 hlineto
          -24 -99 rlineto
          -14 30 44 -4 33 hhcurveto
          98 59 51 86 41 -22 26 -35 14 hvcurveto
          -62 26 rlineto
          -26 11 -11 9 18 vvcurveto
          34 24 24 45 vhcurveto
          endchar
        </CharString>
        <CharString name="uni0302">
          -503 68 647 -99 callgsubr
          endchar
        </CharString>
        <CharString name="uni0304">
          -503 -154 747 -30 callsubr
          endchar
        </CharString>
        <CharString name="uni0306">
          -503 -45 664 -100 callgsubr
          endchar
        </CharString>
        <CharString name="uni0307">
          -503 32 -42 callsubr
          endchar
        </CharString>
        <CharString name="uni0308">
          -503 -75 724 -94 callgsubr
          endchar
        </CharString>
        <CharString name="uni030A">
          -503 -51 636 -70 callsubr
          endchar
        </CharString>
        <CharString name="uni030B">
          -503 -177 -25 callgsubr
          -87 -153 rlineto
          endchar
        </CharString>
        <CharString name="uni030C">
          -503 -138 801 -77 callgsubr
          endchar
        </CharString>
        <CharString name="uni030F">
          -503 -81 550 -73 callsubr
          endchar
        </CharString>
        <CharString name="uni030F.case">
          -503 -84 -76 callgsubr
          endchar
        </CharString>
        <CharString name="uni0311">
          -503 -38 -85 callsubr
          endchar
        </CharString>
        <CharString name="uni0311.case">
          -503 -23 -85 callgsubr
          endchar
        </CharString>
        <CharString name="uni031B">
          -503 -163 529 rmoveto
          -6 -13 rlineto
          3 -13 2 -16 -12 vvcurveto
          -44 -28 -9 -43 vhcurveto
          -30 -45 rlineto
          10 hlineto
          88 90 40 69 15 -4 24 -9 18 hvcurveto
          endchar
        </CharString>
        <CharString name="uni0326">
          -503 -239 -225 rmoveto
          103 43 callgsubr
        </CharString>
        <CharString name="uni0327">
          -503 -249 -219 rmoveto
          -10 callgsubr
          28 52 rlineto
          -36 hlineto
          -40 -75 -24 callsubr
          endchar
        </CharString>
        <CharString name="uni0328">
          -503 -153 hmoveto
          -37 hlineto
          -82 -59 -32 -62 -43 -27 callsubr
          -29 -16 16 29 48 41 62 36 32 hvcurveto
          endchar
        </CharString>
        <CharString name="uni0394">
          -6 callgsubr
        </CharString>
        <CharString name="uni03A9">
          -51 callsubr
        </CharString>
        <CharString name="uni03BC">
          -59 callsubr
        </CharString>
        <CharString name="uni1E0C">
          125 -12 hmoveto
          -80 callgsubr
          -17 -88 -102 callgsubr
        </CharString>
        <CharString name="uni1E0D">
          17 -92 callgsubr
          47 68 -71 callgsubr
          2 -100 -102 callgsubr
        </CharString>
        <CharString name="uni1E24">
          170 -12 hmoveto
          -68 callgsubr
          275 -78 -102 callgsubr
        </CharString>
        <CharString name="uni1E25">
          51 41 -9 -74 callgsubr
          15 78 41 222 12 vvcurveto
          14 -5 10 -15 -34 -68 -15 -21 -57 vhcurveto
          5 -28 75 -9 rlineto
          37 -698 -102 callgsubr
        </CharString>
        <CharString name="uni1E44">
          171 497 -42 callsubr
          -4 -110 -97 callgsubr
          endchar
        </CharString>
        <CharString name="uni1E45">
          63 361 -52 callgsubr
          -134 -186 -90 callgsubr
          endchar
        </CharString>
        <CharString name="uni1E5A">
          52 365 hmoveto
          -86 callgsubr
          -72 -361 -102 callgsubr
        </CharString>
        <CharString name="uni1E5B">
          -29 callgsubr
          -53 -475 -102 callgsubr
        </CharString>
        <CharString name="uni1E62">
          -30 158 -11 -23 callgsubr
          -24 22 41 vvcurveto
          76 56 35 78 26 35 -89 callsubr
          rlineto
          -21 46 63 -10 50 hhcurveto
          10 -30 -102 callgsubr
        </CharString>
        <CharString name="uni1E63">
          -103 245 453 -99 callsubr
          -113 -494 -102 callgsubr
        </CharString>
        <CharString name="uni1E6C">
          -6 76 612 rmoveto
          -21 -63 callsubr
          -370 -653 -102 callgsubr
        </CharString>
        <CharString name="uni1E6D">
          -22 callgsubr
          -63 -92 -102 callgsubr
        </CharString>
        <CharString name="uni1E92">
          -3 446 151 -75 callsubr
          37 79 rlineto
          212 -20 callgsubr
          401 hlineto
          -226 -41 -102 callgsubr
        </CharString>
        <CharString name="uni1E93">
          -113 266 -48 -93 callsubr
          -139 7 -102 callgsubr
        </CharString>
        <CharString name="uni1E9E">
          76 334 -10 rmoveto
          127 93 90 98 72 -45 54 -98 17 hvcurveto
          166 212 1 33 rlineto
          25 -33 -67 36 -98 hhcurveto
          -140 -97 -77 -166 -32 hvcurveto
          -63 -326 -92 -21 -8 -37 rlineto
          237 hlineto
          8 39 -47 19 68 351 rlineto
          111 21 47 50 95 hhcurveto
          49 34 -13 -13 21 hvcurveto
          -189 -242 11 -33 rlineto
          116 39 -42 -59 -62 -42 -62 -70 -22 -15 6 6 -8 hvcurveto
          -5 90 rlineto
          -43 hlineto
          -35 -125 rlineto
          -21 30 44 -10 42 hhcurveto
          endchar
        </CharString>
        <CharString name="uni1EA0">
          50 349 203 -104 callsubr
          -134 -291 -102 callgsubr
        </CharString>
        <CharString name="uni1EA1">
          20 419 206 -107 callgsubr
          6 -100 -102 callgsubr
        </CharString>
        <CharString name="uni1EA2">
          50 347 674 -106 callgsubr
          2 -471 -104 callsubr
          endchar
        </CharString>
        <CharString name="uni1EA3">
          20 309 555 -106 callgsubr
          110 -349 -107 callgsubr
          endchar
        </CharString>
        <CharString name="uni1EA4">
          50 476 696 -33 callgsubr
          -8 -64 -99 callgsubr
          5 -524 -104 callsubr
          endchar
        </CharString>
        <CharString name="uni1EA5">
          20 470 613 -33 callgsubr
          -21 -69 -90 callsubr
          81 -436 -107 callgsubr
          endchar
        </CharString>
        <CharString name="uni1EA6">
          50 486 694 -25 callsubr
          62 -225 -99 callgsubr
          5 -524 -104 callsubr
          endchar
        </CharString>
        <CharString name="uni1EA7">
          20 478 611 -25 callsubr
          49 -230 -90 callsubr
          83 -436 -107 callgsubr
          endchar
        </CharString>
        <CharString name="uni1EA8">
          50 476 761 -106 callgsubr
          -8 -114 -99 callgsubr
          -21 -524 -104 callsubr
          endchar
        </CharString>
        <CharString name="uni1EA9">
          20 435 678 -106 callgsubr
          -11 -119 -90 callsubr
          80 -436 -107 callgsubr
          endchar
        </CharString>
        <CharString name="uni1EAA">
          50 555 905 -93 callgsubr
          -87 -258 -99 callgsubr
          -21 -524 -104 callsubr
          endchar
        </CharString>
        <CharString name="uni1EAB">
          20 517 786 -93 callgsubr
          -87 -258 -99 callgsubr
          87 -402 -107 callgsubr
          endchar
        </CharString>
        <CharString name="uni1EAC">
          50 468 647 -99 callgsubr
          -21 -524 -104 callsubr
          -134 -291 -102 callgsubr
        </CharString>
        <CharString name="uni1EAD">
          20 424 559 -90 callsubr
          80 -436 -107 callgsubr
          6 -100 -102 callgsubr
        </CharString>
        <CharString name="uni1EAE">
          50 340 780 -89 callgsubr
          36 -140 -100 callgsubr
          -8 -461 -104 callsubr
          endchar
        </CharString>
        <CharString name="uni1EAF">
          20 302 661 -89 callgsubr
          36 -140 -100 callgsubr
          100 -339 -107 callgsubr
          endchar
        </CharString>
        <CharString name="uni1EB0">
          50 427 780 -68 callsubr
          149 -221 -100 callgsubr
          -8 -461 -104 callsubr
          endchar
        </CharString>
        <CharString name="uni1EB1">
          20 389 661 -68 callsubr
          149 -221 -100 callgsubr
          100 -339 -107 callgsubr
          endchar
        </CharString>
        <CharString name="uni1EB2">
          50 370 808 -106 callgsubr
          -13 -144 -100 callgsubr
          -8 -461 -104 callsubr
          endchar
        </CharString>
        <CharString name="uni1EB3">
          20 332 689 -106 callgsubr
          -13 -144 -100 callgsubr
          100 -339 -107 callgsubr
          endchar
        </CharString>
        <CharString name="uni1EB4">
          50 550 897 -93 callgsubr
          -193 -233 -100 callgsubr
          -8 -461 -104 callsubr
          endchar
        </CharString>
        <CharString name="uni1EB5">
          20 512 778 -93 callgsubr
          -193 -233 -100 callgsubr
          100 -339 -107 callgsubr
          endchar
        </CharString>
        <CharString name="uni1EB6">
          50 357 664 -100 callgsubr
          -8 -461 -104 callsubr
          -134 -291 -102 callgsubr
        </CharString>
        <CharString name="uni1EB7">
          20 326 -81 callgsubr
          93 -378 -107 callgsubr
          6 -100 -102 callgsubr
        </CharString>
        <CharString name="uni1EB8">
          27 391 393 -103 callgsubr
          -233 -434 -102 callgsubr
        </CharString>
        <CharString name="uni1EB9">
          -87 313 508 -107 callsubr
          -149 -494 -102 callgsubr
        </CharString>
        <CharString name="uni1EBA">
          27 335 674 -106 callgsubr
          56 -281 -103 callgsubr
          endchar
        </CharString>
        <CharString name="uni1EBB">
          -87 255 555 -106 callgsubr
          58 -47 -107 callsubr
          endchar
        </CharString>
        <CharString name="uni1EBC">
          35 518 763 rmoveto
          -35 14 rlineto
          0 -19 -34 -23 -57 callgsubr
          34 22 callsubr
          -122 -370 rmoveto
          -69 callsubr
          179 hlineto
          2 -79 rlineto
          42 hlineto
          26 136 rlineto
          -420 -34 callgsubr
          83 -28 callgsubr
          -90 -51 callgsubr
          442 hlineto
          -21 callsubr
          -42 hlineto
          -42 -91 rlineto
          -194 hlineto
          42 218 rlineto
          124 hlineto
          8 -69 rlineto
          39 -32 callgsubr
          endchar
        </CharString>
        <CharString name="uni1EBD">
          -89 452 683 rmoveto
          2 callgsubr
          14 callsubr
          21 hvcurveto
          -139 -175 -107 callsubr
          endchar
        </CharString>
        <CharString name="uni1EBE">
          27 464 696 -33 callgsubr
          -8 -64 -99 callgsubr
          59 -334 -103 callgsubr
          endchar
        </CharString>
        <CharString name="uni1EBF">
          -87 416 613 -33 callgsubr
          -21 -69 -90 callsubr
          29 -134 -107 callsubr
          endchar
        </CharString>
        <CharString name="uni1EC0">
          27 474 694 -25 callsubr
          62 -225 -99 callgsubr
          59 -334 -103 callgsubr
          endchar
        </CharString>
        <CharString name="uni1EC1">
          -87 424 611 -25 callsubr
          49 -230 -90 callsubr
          31 -134 -107 callsubr
          endchar
        </CharString>
        <CharString name="uni1EC2">
          27 464 761 -106 callgsubr
          -8 -114 17 callgsubr
          -334 -103 callgsubr
          endchar
        </CharString>
        <CharString name="uni1EC3">
          -87 381 678 -106 callgsubr
          -11 -119 -90 callsubr
          28 -134 -107 callsubr
          endchar
        </CharString>
        <CharString name="uni1EC4">
          27 543 905 -93 callgsubr
          -87 -258 17 callgsubr
          -334 -103 callgsubr
          endchar
        </CharString>
        <CharString name="uni1EC5">
          -87 463 786 -93 callgsubr
          -87 -258 -99 callgsubr
          35 -100 -107 callsubr
          endchar
        </CharString>
        <CharString name="uni1EC6">
          27 456 647 17 callgsubr
          -334 -103 callgsubr
          -233 -434 -102 callgsubr
        </CharString>
        <CharString name="uni1EC7">
          -87 370 559 -90 callsubr
          28 -134 -107 callsubr
          -149 -494 -102 callgsubr
        </CharString>
        <CharString name="uni1EC8">
          -167 239 674 -106 callgsubr
          -251 -674 rmoveto
          -82 callsubr
          endchar
        </CharString>
        <CharString name="uni1EC9">
          -206 196 555 -106 callgsubr
          41 -69 -96 callgsubr
          endchar
        </CharString>
        <CharString name="uni1ECA">
          -167 -12 hmoveto
          -82 callsubr
          105 -78 -102 callgsubr
        </CharString>
        <CharString name="uni1ECB">
          -208 -19 callsubr
          22 -222 -49 callsubr
          -156 -527 -102 callgsubr
        </CharString>
        <CharString name="uni1ECC">
          263 -9 -105 callgsubr
          -30 -86 -102 callgsubr
        </CharString>
        <CharString name="uni1ECD">
          -4 316 508 -105 callsubr
          -22 -86 -102 callgsubr
        </CharString>
        <CharString name="uni1ECE">
          382 674 -106 callgsubr
          -119 -683 -105 callgsubr
          endchar
        </CharString>
        <CharString name="uni1ECF">
          -4 297 555 -106 callgsubr
          19 -47 -105 callsubr
          endchar
        </CharString>
        <CharString name="uni1ED0">
          511 696 -33 callgsubr
          -8 -64 -99 callgsubr
          -116 -736 -105 callgsubr
          endchar
        </CharString>
        <CharString name="uni1ED1">
          -4 458 613 -33 callgsubr
          -21 -69 -90 callsubr
          -10 -134 -105 callsubr
          endchar
        </CharString>
        <CharString name="uni1ED2">
          521 694 -25 callsubr
          62 -225 -99 callgsubr
          -116 -736 -105 callgsubr
          endchar
        </CharString>
        <CharString name="uni1ED3">
          -4 466 611 -25 callsubr
          49 -230 -90 callsubr
          -8 -134 -105 callsubr
          endchar
        </CharString>
        <CharString name="uni1ED4">
          511 761 -106 callgsubr
          -8 -114 -99 callgsubr
          -142 -736 -105 callgsubr
          endchar
        </CharString>
        <CharString name="uni1ED5">
          -4 423 678 -106 callgsubr
          -11 -119 -90 callsubr
          -11 -134 -105 callsubr
          endchar
        </CharString>
        <CharString name="uni1ED6">
          590 905 -93 callgsubr
          -87 -258 -99 callgsubr
          -142 -736 -105 callgsubr
          endchar
        </CharString>
        <CharString name="uni1ED7">
          -4 505 786 -93 callgsubr
          -87 -258 -99 callgsubr
          -4 -100 -105 callsubr
          endchar
        </CharString>
        <CharString name="uni1ED8">
          503 647 -99 callgsubr
          -142 -736 -105 callgsubr
          -30 -86 -102 callgsubr
        </CharString>
        <CharString name="uni1ED9">
          -4 412 559 -90 callsubr
          -11 -134 -105 callsubr
          -22 -86 -102 callgsubr
        </CharString>
        <CharString name="uni1EDA">
          571 751 -2 callgsubr
          340 -9 -95 callsubr
        </CharString>
        <CharString name="uni1EDB">
          -4 453 667 -2 callgsubr
          353 -54 -94 callsubr
        </CharString>
        <CharString name="uni1EDC">
          457 670 -9 callsubr
          253 -9 -95 callsubr
        </CharString>
        <CharString name="uni1EDD">
          -4 407 586 -9 callsubr
          198 -54 -94 callsubr
        </CharString>
        <CharString name="uni1EDE">
          396 771 -70 callgsubr
          309 -103 -95 callsubr
        </CharString>
        <CharString name="uni1EDF">
          -4 313 651 -70 callgsubr
          287 -112 -94 callsubr
        </CharString>
        <CharString name="uni1EE0">
          325 -17 callsubr
          367 -68 -95 callsubr
        </CharString>
        <CharString name="uni1EE1">
          -4 256 625 -11 callgsubr
          331 -117 -94 callsubr
        </CharString>
        <CharString name="uni1EE2">
          692 637 -87 callgsubr
          -39 -21 -11 -35 -3 vhcurveto
          34 -35 -53 20 -75 hhcurveto
          -224 -122 -202 -212 -133 62 -89 161 225 119 204 215 48 -9 43 -19 34 hvcurveto
          62 15 51 35 52 vvcurveto
          -419 -592 rmoveto
          -97 -29 68 100 94 40 266 187 100 28 -70 -96 -146 -58 -216 -171 hvcurveto
          -30 -86 -102 callgsubr
        </CharString>
        <CharString name="uni1EE3">
          -4 587 508 -87 callgsubr
          -37 -20 -12 -32 -3 vhcurveto
          40 -23 -43 23 -66 hhcurveto
          -166 -118 -134 -231 -97 47 -55 103 168 117 135 231 17 -1 16 -4 14 hvcurveto
          68 13 57 36 55 vvcurveto
          -383 -463 rmoveto
          -56 -16 37 57 126 39 188 125 55 16 -38 -57 -132 -41 -181 -122 hvcurveto
          -22 -86 -102 callgsubr
        </CharString>
        <CharString name="uni1EE4">
          107 516 236 rmoveto
          62 319 80 -61 callsubr
          -219 -106 callsubr
          -279 -277 -102 callgsubr
        </CharString>
        <CharString name="uni1EE5">
          62 141 -9 -104 callgsubr
          73 -32 -102 callgsubr
        </CharString>
        <CharString name="uni1EE6">
          107 375 674 -106 callgsubr
          141 -438 rmoveto
          62 319 80 -61 callsubr
          -219 -106 callsubr
          endchar
        </CharString>
        <CharString name="uni1EE7">
          62 329 555 -106 callgsubr
          -188 -564 -104 callgsubr
          endchar
        </CharString>
        <CharString name="uni1EE8">
          107 564 751 -2 callgsubr
          370 30 -87 callgsubr
          -44 -28 -9 -43 vhcurveto
          -111 -106 callsubr
          63 325 60 24 rlineto
          1 vlineto
          44 18 32 31 41 vvcurveto
          endchar
        </CharString>
        <CharString name="uni1EE9">
          62 483 668 -2 callgsubr
          187 -360 -101 callsubr
          endchar
        </CharString>
        <CharString name="uni1EEA">
          107 450 670 -9 callsubr
          283 30 -87 callgsubr
          -44 -28 -9 -43 vhcurveto
          -111 -106 callsubr
          63 325 60 24 rlineto
          1 vlineto
          44 18 32 31 41 vvcurveto
          endchar
        </CharString>
        <CharString name="uni1EEB">
          62 437 587 -9 callsubr
          32 -360 -101 callsubr
          endchar
        </CharString>
        <CharString name="uni1EEC">
          107 389 771 -70 callgsubr
          339 -64 -87 callgsubr
          -44 -28 -9 -43 vhcurveto
          -111 -106 callsubr
          63 325 60 24 rlineto
          1 vlineto
          44 18 32 31 41 vvcurveto
          endchar
        </CharString>
        <CharString name="uni1EED">
          62 343 652 -70 callgsubr
          121 -418 -101 callsubr
          endchar
        </CharString>
        <CharString name="uni1EEE">
          107 318 -17 callsubr
          397 -29 -87 callgsubr
          -44 -28 -9 -43 vhcurveto
          -111 -106 callsubr
          63 325 60 24 rlineto
          1 vlineto
          44 18 32 31 41 vvcurveto
          endchar
        </CharString>
        <CharString name="uni1EEF">
          62 286 626 -11 callgsubr
          165 -423 -101 callsubr
          endchar
        </CharString>
        <CharString name="uni1EF0">
          107 715 676 -87 callgsubr
          -44 -28 -9 -43 vhcurveto
          -111 -106 callsubr
          63 325 60 24 rlineto
          1 vlineto
          44 18 32 31 41 vvcurveto
          -478 -717 -102 callgsubr
        </CharString>
        <CharString name="uni1EF1">
          62 451 203 -101 callsubr
          -237 -244 -102 callgsubr
        </CharString>
        <CharString name="uni1EF4">
          22 388 575 -95 callgsubr
          -200 -653 -102 callgsubr
        </CharString>
        <CharString name="uni1EF5">
          -48 66 -183 -83 callgsubr
          195 -27 -102 callgsubr
        </CharString>
        <CharString name="uni1EF6">
          22 333 674 -106 callgsubr
          55 -99 -95 callgsubr
          endchar
        </CharString>
        <CharString name="uni1EF7">
          -48 275 555 -106 callgsubr
          -209 -738 -83 callgsubr
          endchar
        </CharString>
        <CharString name="uni1EF8">
          34 524 21 callgsubr
          -37 -84 40 -38 hhcurveto
          -33 -26 -45 -54 -21 hvcurveto
          35 22 callsubr
          -128 -188 -95 callgsubr
          endchar
        </CharString>
        <CharString name="uni1EF8.loclGUA">
          146 488 666 rmoveto
          32 24 44 53 22 hvcurveto
          -8 callsubr
          -260 -833 -103 callsubr
        </CharString>
        <CharString name="uni1EF9">
          -35 345 587 rmoveto
          33 22 43 53 22 hvcurveto
          -35 -30 callgsubr
          -23 vhcurveto
          -37 -74 39 -39 hhcurveto
          -33 -23 -43 -54 -21 -26 callgsubr
          20 35 23 vhcurveto
          34 77 -39 38 hhcurveto
          -266 -770 -91 callgsubr
        </CharString>
        <CharString name="uni1EF9.loclGUA">
          41 424 10 callgsubr
          -33 -23 -43 -54 -22 -35 callgsubr
          35 22 vhcurveto
          33 callgsubr
          -258 -755 -101 callgsubr
        </CharString>
        <CharString name="uni2070">
          -98 159 270 rmoveto
          119 98 112 194 106 -56 38 -73 -141 -77 -150 -156 -105 56 -39 74 hvcurveto
          15 74 rmoveto
          -42 -46 18 79 118 54 87 92 45 43 -20 -77 -153 -81 -52 -65 hvcurveto
          endchar
        </CharString>
        <CharString name="uni2074">
          -98 206 278 rmoveto
          8 callgsubr
          52 rlineto
          -59 hlineto
          56 287 -62 7 -291 -311 5 -35 rlineto
          203 hlineto
          -127 52 rmoveto
          173 184 -36 -184 rlineto
          endchar
        </CharString>
        <CharString name="uni2075">
          -98 376 707 rmoveto
          -235 hlineto
          -54 -190 14 -17 rlineto
          101 54 -18 -58 -66 -54 -41 -68 -32 -27 6 13 -36 hvcurveto
          -17 -43 rlineto
          -16 35 42 -7 47 hhcurveto
          121 77 69 97 51 -32 56 39 callsubr
        </CharString>
        <CharString name="uni2076">
          -98 155 269 rmoveto
          176 25 140 43 50 -30 43 -77 -44 -37 -11 -24 -33 hvcurveto
          32 104 77 52 61 6 rrcurveto
          2 13 16 0 18 hhcurveto
          6 40 -19 3 -19 1 -20 -2 rlinecurve
          -90 -9 -135 -67 -38 -188 rrcurveto
          -5 -23 -2 -21 -21 vvcurveto
          -69 30 -49 95 vhcurveto
          11 46 14 callgsubr
          25 44 26 36 hhcurveto
          36 12 -21 -32 -68 -34 -58 -70 hvcurveto
          endchar
        </CharString>
        <CharString name="uni2077">
          -112 148 267 rmoveto
          240 400 -8 40 rlineto
          -294 hlineto
          -12 -93 rlineto
          28 hlineto
          33 38 rlineto
          175 hlineto
          -242 -370 rlineto
          endchar
        </CharString>
        <CharString name="uni2078">
          -102 156 270 rmoveto
          110 71 62 80 46 -38 29 -43 24 hvcurveto
          93 37 20 50 41 vvcurveto
          44 -37 34 -81 -115 -49 -66 -67 -39 23 -27 33 -23 vhcurveto
          -65 -29 -46 -49 -64 vvcurveto
          -44 28 -39 96 vhcurveto
          64 263 rmoveto
          -34 19 -23 26 28 vvcurveto
          38 34 31 45 36 18 -20 -29 -42 -28 -28 -48 -23 vhcurveto
          -55 -220 rmoveto
          -34 -27 12 36 51 37 38 35 22 hvcurveto
          11 -5 rlineto
          34 -18 31 -23 -38 vvcurveto
          -50 -42 -25 -45 vhcurveto
          endchar
        </CharString>
        <CharString name="uni2079">
          -98 38 284 rmoveto
          25 -10 30 -5 35 1 94 6 111 54 36 183 rrcurveto
          5 24 3 24 24 vvcurveto
          71 -29 60 -96 -168 -22 -136 -37 -58 32 -46 76 30 35 8 17 39 vhcurveto
          -25 -98 -65 -45 -67 -5 -21 -1 -23 4 -25 7 rrcurveto
          156 165 rmoveto
          -37 -20 20 43 63 37 53 56 38 18 -22 -46 -22 -3 -28 -7 -31 hvcurveto
          -17 -26 -31 -13 -25 hhcurveto
          endchar
        </CharString>
        <CharString name="uni207D">
          -244 170 167 rmoveto
          16 28 rlineto
          -49 23 -15 47 59 vvcurveto
          45 10 62 13 66 vhcurveto
          26 140 30 117 102 41 -6 29 rcurveline
          -146 -30 -40 -100 -39 -195 rrcurveto
          -14 -73 -10 -58 -48 vvcurveto
          -85 34 -46 88 -22 vhcurveto
          endchar
        </CharString>
        <CharString name="uni207E">
          -244 -15 167 rmoveto
          147 31 40 101 39 196 rrcurveto
          14 72 9 58 47 vvcurveto
          84 -33 47 -89 21 vhcurveto
          -15 -28 rlineto
          48 -24 15 -47 -59 vvcurveto
          -47 -9 -58 -12 -64 vhcurveto
          -27 -142 -30 -119 -102 -41 rrcurveto
          endchar
        </CharString>
        <CharString name="uni207F">
          -73 45 18 callgsubr
          -14 -14 -62 -14 -59 hvcurveto
          -13 -56 -11 -56 -13 -1 callgsubr
          -50 vhcurveto
          4 16 5 30 7 vvcurveto
          12 -6 9 -13 -23 -55 -12 -14 -44 vhcurveto
          5 -27 53 -6 rlineto
          endchar
        </CharString>
        <CharString name="uni2080">
          -98 160 -119 rmoveto
          96 81 65 159 30 hvcurveto
          6 31 3 27 26 vvcurveto
          105 -54 37 -74 -97 -84 -68 -154 -30 vhcurveto
          -5 -30 -3 -27 -26 vvcurveto
          -106 56 -39 75 vhcurveto
          14 74 rmoveto
          -42 -46 19 25 callgsubr
          -77 -17 -1 -18 -4 -19 hvcurveto
          -122 -22 -67 -29 -52 hhcurveto
          endchar
        </CharString>
        <CharString name="uni2081">
          -125 92 258 rmoveto
          114 hlineto
          -72 -369 rlineto
          82 hlineto
          83 431 -200 -30 rlineto
          endchar
        </CharString>
        <CharString name="uni2082">
          -98 224 276 rmoveto
          42 21 -20 -33 hvcurveto
          -1 -54 -42 -49 -55 -46 -174 -145 rcurveline
          2 -40 rlineto
          304 hlineto
          30 108 -38 2 -39 10 callsubr
          -39 vhcurveto
          14 40 callgsubr
          endchar
        </CharString>
        <CharString name="uni2083">
          -98 262 329 rmoveto
          -51 -58 -18 -21 -40 hvcurveto
          11 -41 rlineto
          20 40 36 8 25 hhcurveto
          39 17 -15 -27 -47 -41 -46 -89 -11 hvcurveto
          -3 -37 rlineto
          53 59 -7 -55 -72 -55 -31 -62 -24 -33 3 15 -40 hvcurveto
          -17 -45 rlineto
          -14 35 45 -7 43 hhcurveto
          109 86 47 104 47 -30 33 -53 11 hvcurveto
          54 22 52 46 61 vvcurveto
          51 -47 26 -61 vhcurveto
          endchar
        </CharString>
        <CharString name="uni2084">
          -98 207 -111 rmoveto
          79 hlineto
          17 90 rlineto
          59 hlineto
          10 51 rlineto
          -59 hlineto
          56 289 -62 6 -291 -310 5 -36 rlineto
          203 hlineto
          -127 51 rmoveto
          174 44 callgsubr
        </CharString>
        <CharString name="uni2085">
          -98 376 327 rmoveto
          -236 hlineto
          -54 -198 14 -19 rlineto
          100 55 -17 -57 -67 -54 -41 -68 -32 -27 6 12 -36 hvcurveto
          -16 -42 42 callsubr
          50 -31 56 -157 1 hvcurveto
          31 112 rlineto
          180 hlineto
          endchar
        </CharString>
        <CharString name="uni2086">
          -98 155 -120 41 callsubr
          -37 -11 -23 -33 hvcurveto
          32 104 78 52 60 6 13 2 16 0 18 -1 6 40 rcurveline
          -20 3 -21 1 -21 -2 -89 -11 -135 -68 -36 -188 rrcurveto
          -4 -22 -2 -20 -20 vvcurveto
          -69 30 -49 95 vhcurveto
          11 46 14 callgsubr
          25 44 27 37 hhcurveto
          35 12 -22 -30 -69 -33 -59 -71 hvcurveto
          endchar
        </CharString>
        <CharString name="uni2087">
          -112 141 -123 rmoveto
          240 401 -8 40 rlineto
          -294 hlineto
          -12 -93 rlineto
          29 hlineto
          27 38 rlineto
          181 hlineto
          -243 -370 rlineto
          endchar
        </CharString>
        <CharString name="uni2088">
          -102 156 -120 rmoveto
          109 72 61 80 47 -37 29 -44 24 hvcurveto
          93 38 20 49 41 vvcurveto
          45 -37 33 -81 -115 -49 -67 -66 -40 23 -26 33 -22 vhcurveto
          -67 -30 -44 -50 -64 vvcurveto
          -43 29 -39 95 vhcurveto
          64 262 rmoveto
          -33 19 -23 27 27 vvcurveto
          39 33 30 46 35 18 -18 -30 -41 -28 -29 -48 -24 vhcurveto
          -55 -219 rmoveto
          -34 -27 12 36 51 38 38 34 23 hvcurveto
          12 -7 rlineto
          33 -17 31 -23 -38 vvcurveto
          -51 -42 -24 -45 vhcurveto
          endchar
        </CharString>
        <CharString name="uni2089">
          -98 38 -104 rmoveto
          28 55 callgsubr
          35 181 rrcurveto
          5 23 3 25 24 vvcurveto
          71 -29 61 -96 -166 -24 -135 -39 -58 32 -46 76 30 35 7 18 39 vhcurveto
          -24 -96 -61 -45 -67 -5 -22 -3 -27 4 -25 7 rrcurveto
          156 166 rmoveto
          -37 -20 19 43 54 callgsubr
          -29 -7 -30 hvcurveto
          -18 -26 -31 -11 -25 hhcurveto
          endchar
        </CharString>
        <CharString name="uni208D">
          -205 130 100 rmoveto
          25 128 25 127 108 44 -5 30 rcurveline
          -151 -41 -32 -78 -41 -210 rrcurveto
          -15 -74 -9 -57 -45 vvcurveto
          -85 32 -41 88 -28 vhcurveto
          16 28 rlineto
          -49 24 -15 47 58 vvcurveto
          50 12 62 11 61 vhcurveto
          endchar
        </CharString>
        <CharString name="uni208E">
          -205 172 100 rmoveto
          -25 -131 -25 -127 -108 -44 5 -28 rcurveline
          150 42 32 76 41 212 rrcurveto
          14 73 10 58 45 vvcurveto
          84 -32 42 -87 27 vhcurveto
          -17 -30 rlineto
          49 -24 16 -48 -58 vvcurveto
          -51 -12 -59 -11 -59 vhcurveto
          endchar
        </CharString>
        <CharString name="uni20B2">
          60 305 305 rmoveto
          -7 -37 78 -21 -33 52 callgsubr
          -29 -3 -22 hhcurveto
          -94 -29 74 87 123 42 205 172 29 37 -6 -6 21 hvcurveto
          5 -98 rlineto
          41 hlineto
          39 135 -34 17 -64 11 -51 2 rlinecurve
          17 90 rlineto
          -53 hlineto
          -18 -92 rlineto
          -197 -19 -93 -180 -178 vvcurveto
          -119 45 -81 119 -17 vhcurveto
          -19 -98 rlineto
          54 hlineto
          18 95 67 1 65 17 46 25 rlinecurve
          38 199 68 -61 callsubr
          endchar
        </CharString>
        <CharString name="uni20BA">
          -6 82 351 rmoveto
          -10 -49 93 33 -12 -63 -93 -33 -10 -50 93 34 -32 -165 -87 -51 callgsubr
          138 hlineto
          203 105 149 158 29 hvcurveto
          -54 -7 rlineto
          -129 -21 -101 -107 -112 hhcurveto
          37 193 128 47 10 50 -128 -47 11 63 130 47 9 49 -129 -46 27 135 87 -61 callsubr
          -258 -45 callsubr
          79 -20 -34 24 callsubr
        </CharString>
        <CharString name="uni20BD">
          -6 75 297 rmoveto
          -7 -41 rlineto
          82 hlineto
          -11 -58 rlineto
          -83 hlineto
          -8 -41 rlineto
          82 hlineto
          -18 -99 -88 -51 callgsubr
          274 hlineto
          7 38 -94 20 19 99 rlineto
          162 hlineto
          9 41 rlineto
          -163 hlineto
          11 58 rlineto
          60 hlineto
          106 130 64 161 88 -62 43 -110 hvcurveto
          -231 hlineto
          -7 -38 79 -22 -49 -255 rlineto
          92 hmoveto
          50 258 rlineto
          7 20 14 2 18 hhcurveto
          60 28 -28 -60 -147 -84 -32 -79 hvcurveto
          endchar
        </CharString>
        <CharString name="uni2113">
          -80 219 53 rmoveto
          -39 -16 19 41 19 4 23 5 28 hvcurveto
          8 40 rlineto
          101 63 150 124 161 vvcurveto
          53 -29 35 -71 -134 -46 -121 -141 -27 vhcurveto
          -32 -165 -25 -17 -27 -16 -26 -18 rlinecurve
          16 -40 16 8 17 9 17 8 rlinecurve
          -10 -52 rlineto
          -3 -16 -2 -15 -13 vvcurveto
          -54 28 -27 72 79 77 40 8 10 vhcurveto
          -1 34 rlineto
          -1 -1 -71 -17 -40 hhcurveto
          3 380 rmoveto
          119 22 19 48 51 hhcurveto
          28 12 -13 -30 -113 -77 -87 -82 -62 hvcurveto
          endchar
        </CharString>
        <CharString name="uni2126">
          -51 callsubr
        </CharString>
        <CharString name="uni2153">
          351 283 -20 rmoveto
          66 hlineto
          208 642 rlineto
          -67 hlineto
          -389 -80 -4 callgsubr
          604 -134 -71 callsubr
        </CharString>
        <CharString name="uni2154">
          448 365 -8 callgsubr
          -67 hlineto
          -349 -62 -31 callgsubr
          584 -120 -71 callsubr
        </CharString>
        <CharString name="uni2196">
          62 464 370 rmoveto
          -356 56 -10 -11 66 -347 44 -1 -19 217 209 -228 68 69 -228 211 226 -11 rlineto
          endchar
        </CharString>
        <CharString name="uni2197">
          62 406 69 rmoveto
          60 353 -10 11 -350 -63 -2 -44 223 16 -229 -210 68 -69 210 229 -14 -224 rlineto
          endchar
        </CharString>
        <CharString name="uni2198">
          62 327 158 rmoveto
          -223 15 2 -44 350 -63 10 11 -60 353 rlineto
          -44 hlineto
          14 -223 -210 229 -68 -69 rlineto
          endchar
        </CharString>
        <CharString name="uni2199">
          62 189 200 rmoveto
          19 217 rlineto
          -44 hlineto
          -66 -347 10 -11 356 58 rlineto
          43 vlineto
          -226 -11 228 211 -68 68 rlineto
          endchar
        </CharString>
        <CharString name="uni2206">
          -6 callgsubr
        </CharString>
        <CharString name="uni2215">
          -208 -4 -69 rmoveto
          66 hlineto
          238 732 rlineto
          -68 hlineto
          endchar
        </CharString>
        <CharString name="uni2219">
          -222 204 267 rmoveto
          38 -27 27 -38 -35 -30 -27 -38 -36 30 -28 35 38 27 28 36 vhcurveto
          endchar
        </CharString>
        <CharString name="uniA78B">
          -401 57 275 rmoveto
          119 317 -15 20 rlineto
          -79 hlineto
          -61 -330 rlineto
          endchar
        </CharString>
        <CharString name="uniA78C">
          -370 86 351 rmoveto
          127 336 -16 19 -88 -19 -59 -329 rlineto
          endchar
        </CharString>
        <CharString name="uniF6E9">
          -97 333 427 rmoveto
          44 230 -38 8 -19 -23 rlineto
          0 -36 10 -34 -132 -85 -107 -162 -87 46 -27 49 33 47 25 41 33 vhcurveto
          -1 -3 -2 -21 -6 vvcurveto
          -22 10 -14 32 21 28 7 15 43 vhcurveto
          32 -54 vlineto
          0 4 45 11 59 vhcurveto
          -177 -101 rmoveto
          -24 -14 12 52 98 37 121 89 13 17 -6 -7 11 hvcurveto
          -14 -71 -24 43 callsubr
        </CharString>
        <CharString name="uniF6EA">
          -110 165 269 rmoveto
          162 51 160 121 78 -37 26 -47 -38 -51 -24 -42 -34 hvcurveto
          24 123 rlineto
          11 59 4 18 11 vvcurveto
          10 -5 8 -13 -26 -54 -12 -15 -44 vhcurveto
          6 -25 54 -6 -91 -463 rlineto
          -9 20 46 -18 62 hhcurveto
          9 46 rmoveto
          -19 -22 7 8 -11 hvcurveto
          15 72 26 129 0 vvcurveto
          31 21 49 36 25 hhcurveto
          22 16 -13 -45 -110 -33 -115 -89 hvcurveto
          endchar
        </CharString>
        <CharString name="uniF6EB">
          -99 119 269 rmoveto
          38 53 25 41 34 hvcurveto
          0 -3 -25 -5 vvcurveto
          -22 12 -14 28 22 30 6 16 42 vhcurveto
          30 -57 vlineto
          1 5 57 52 10 hvcurveto
          15 87 35 188 16 94 rrcurveto
          11 -6 8 -11 -27 -54 -12 -16 -44 vhcurveto
          6 -25 55 -5 -23 -111 rlineto
          3 -14 -16 2 -20 hhcurveto
          -120 -94 -99 -178 -83 40 -25 47 hvcurveto
          35 58 rmoveto
          -25 -15 13 46 111 42 113 83 21 18 -5 -9 10 hvcurveto
          -40 -202 rlineto
          -31 -19 -50 -36 -25 hhcurveto
          endchar
        </CharString>
        <CharString name="uniF6EC">
          -181 243 654 rmoveto
          -150 -62 -127 -132 -89 56 -37 67 43 36 11 18 31 hvcurveto
          -7 32 rlineto
          -9 -27 -21 -3 -16 hhcurveto
          -55 -27 20 59 18 1 16 4 20 hvcurveto
          144 1 69 48 78 vvcurveto
          51 -37 25 -49 vhcurveto
          -17 -45 rmoveto
          23 8 -18 -19 -54 -49 -32 -85 -1 hvcurveto
          80 18 34 44 51 hhcurveto
          endchar
        </CharString>
        <CharString name="uniF6ED">
          -271 177 709 rmoveto
          27 25 22 30 28 -25 22 -27 -30 -23 -22 -28 -30 23 -22 30 hvcurveto
          -80 -440 rmoveto
          21 35 6 16 41 hvcurveto
          32 -58 vlineto
          11 54 11 59 11 58 rrcurveto
          12 59 14 72 8 vvcurveto
          13 -5 8 -15 -24 -50 -11 -15 -47 vhcurveto
          4 -26 54 -6 -6 -29 -7 -30 -6 -31 rlinecurve
          -19 -89 -19 -97 -14 vvcurveto
          -26 12 -11 30 vhcurveto
          endchar
        </CharString>
</ttFont>
